<?xml version="1.0" standalone="no"?>
<!DOCTYPE svg PUBLIC "-//W3C//DTD SVG 1.1//EN" "http://www.w3.org/Graphics/SVG/1.1/DTD/svg11.dtd" >
<svg xmlns="http://www.w3.org/2000/svg">
<metadata></metadata>
<defs>
<font id="airborneregular" horiz-adv-x="1300" >
<font-face units-per-em="2048" ascent="1638" descent="-410" />
<missing-glyph horiz-adv-x="650" />
<glyph horiz-adv-x="2048" />
<glyph horiz-adv-x="2048" />
<glyph unicode="&#xd;" horiz-adv-x="390" />
<glyph unicode=" "  horiz-adv-x="650" />
<glyph unicode="&#x09;" horiz-adv-x="650" />
<glyph unicode="&#xa0;" horiz-adv-x="650" />
<glyph unicode="!" horiz-adv-x="480" d="M111 0v258h258v-258h-258zM112 964v536h257v-536l-50 -535h-158z" />
<glyph unicode="&#x22;" horiz-adv-x="739" d="M75 1500h258l-30 -598h-198zM406 1500h258l-30 -598h-198z" />
<glyph unicode="#" horiz-adv-x="1193" d="M111 414v258h144l38 257h-111v258h147l26 166h237l-22 -166h170l24 166h237l-23 -166h104v-258h-144l-37 -259l112 2l-1 -257l-148 -1l-31 -207h-241l30 206h-170l-31 -206h-235l30 206zM492 671h170l38 258h-170z" />
<glyph unicode="$" d="M111 295l215 -215h649l215 215v369l-215 215h-549l-66 67v149l67 68h448l67 -68v-100h248v210l-215 215h-649l-215 -215v-369l215 -215h550l67 -68v-147l-67 -67h-450l-66 67l-1 99l-248 1v-211zM534 -100h231v1700h-231v-1700z" />
<glyph unicode="%" horiz-adv-x="1468" d="M111 1143q0 119 92.5 208t215.5 89q120 0 202.5 -83.5t82.5 -210.5t-87 -213.5t-210 -86.5q-119 0 -207.5 87.5t-88.5 209.5zM214 410l896 898l182 -182l-896 -897zM309 1143q0 -41 29 -70t69 -29q41 0 69.5 28.5t28.5 71.5q0 42 -27 70t-67 28q-41 0 -71.5 -30 t-30.5 -69zM763 361q0 119 92.5 208t215.5 89q120 0 202.5 -83.5t82.5 -210.5t-87 -213.5t-210 -86.5q-119 0 -207.5 87.5t-88.5 209.5zM961 361q0 -41 29 -70t69 -29q41 0 69.5 28.5t28.5 71.5q0 42 -27 70t-67 28q-41 0 -71.5 -30t-30.5 -69z" />
<glyph unicode="&#x26;" d="M111 215v401l134 134l-134 134v401l215 215h424l215 -215v-200h-258v71l-87 86h-165l-86 -86l-1 -190l88 -87h420l1 74h257l-1 -74h114v-258h-114v-621h-807zM370 345l87 -87h419v363h-419l-87 -87v-189z" />
<glyph unicode="'" horiz-adv-x="475" d="M111 1500h253l-29 -504h-195z" />
<glyph unicode="(" horiz-adv-x="649" d="M111 85l215 -215h212v258h-82l-86 87v1070l87 88h81v257h-212l-215 -215v-1330z" />
<glyph unicode=")" horiz-adv-x="649" d="M111 128h82l87 87v1071l-86 87h-83v258h212l215 -215v-1331l-214 -215h-212z" />
<glyph unicode="*" horiz-adv-x="973" d="M111 1035h212l-106 -188l163 -90l115 180l106 -180l155 90l-106 188h212v187h-212l98 196l-155 82l-115 -180l-106 180l-155 -82l106 -196h-212v-187z" />
<glyph unicode="+" horiz-adv-x="1201" d="M111 621v258h361v369h256v-369h362v-258h-361v-375h-258v375h-360z" />
<glyph unicode="," horiz-adv-x="499" d="M111 65v277h277v-277l-142 -220l-117 76l96 144h-114z" />
<glyph unicode="-" horiz-adv-x="761" d="M176 621v258h410v-258h-410z" />
<glyph unicode="." horiz-adv-x="499" d="M111 0v277h277v-277h-277z" />
<glyph unicode="/" d="M111 392l896 898l182 -182l-896 -897z" />
<glyph unicode="0" d="M111 215l215 -215h649l215 215v1070l-215 215h-649l-215 -215v-1070zM369 345v810l87 87h389l87 -87v-810l-87 -87h-389z" />
<glyph unicode="1" horiz-adv-x="565" d="M70 1242v258h365v-1500h-258v1242h-107z" />
<glyph unicode="2" d="M111 0v634l215 215h519l86 87v219l-87 88h-388l-87 -88v-120h-258v250l215 215h649l215 -215v-479l-215 -215h-520l-86 -88v-245h821v-258h-1079z" />
<glyph unicode="3" d="M111 215l215 -215h649l215 215v401l-134 134l134 134v401l-215 215h-649l-215 -215v-250h258v121l87 86h390l86 -86l1 -190l-88 -87h-369v-258h370l86 -86l1 -189l-88 -88h-388l-88 87v120h-258v-250z" />
<glyph unicode="4" horiz-adv-x="1301" d="M116 368v256l690 874h257v-874h129v-256h-129v-368h-257v368h-690zM425 624h381v475z" />
<glyph unicode="5" d="M111 215l215 -215h649l215 215v536l-215 215h-586v276h761v258h-1019v-792h715l87 -88v-274l-87 -88h-390l-87 88v119l-258 1v-251z" />
<glyph unicode="6" d="M111 215l215 -215h649l215 215v449l-215 215h-606v277l88 87h388l87 -87v-121h258v250l-215 215h-649l-215 -215v-1070zM369 345v276h476l87 -87v-189l-87 -87h-389z" />
<glyph unicode="7" d="M132 1243v257h1052l-1 -286l-475 -1214h-276l485 1243h-785z" />
<glyph unicode="8" d="M111 215l215 -215h649l215 215v401l-134 134l134 134v401l-215 215h-649l-215 -215v-401l134 -134l-134 -134v-401zM369 345v189l87 87h389l87 -87v-189l-87 -87h-389zM369 966v189l87 87h389l87 -87v-189l-87 -87h-389z" />
<glyph unicode="9" d="M111 215l215 -215h649l215 215v1070l-215 215h-649l-215 -215v-449l215 -215h606v-277l-88 -87h-388l-87 87v121h-258v-250zM369 966v189l87 87h389l87 -87v-276h-476z" />
<glyph unicode=":" horiz-adv-x="499" d="M111 343v277h277v-277h-277zM111 879v277h277v-277h-277z" />
<glyph unicode=";" horiz-adv-x="499" d="M111 65v277h277v-277l-142 -220l-117 76l96 144h-114zM111 581v277h277v-277h-277z" />
<glyph unicode="&#x3c;" horiz-adv-x="1033" d="M111 751l628 630l183 -182l-449 -449l449 -448l-183 -182z" />
<glyph unicode="=" horiz-adv-x="1197" d="M111 403v258h975v-258h-975zM111 839v258h975v-258h-975z" />
<glyph unicode="&#x3e;" horiz-adv-x="1033" d="M111 302l183 -182l628 631l-628 630l-183 -182l449 -449z" />
<glyph unicode="?" d="M111 1035h258v121l87 87l390 -1l86 -86l1 -190l-88 -87h-171l-183 -183v-268h258v149l79 79h174l188 188v441l-215 215h-649l-215 -215v-250zM491 0v258h259v-258h-259z" />
<glyph unicode="@" horiz-adv-x="1506" d="M111 712q0 130 37.5 246.5t111.5 211.5q101 132 245.5 202t313.5 70q263 0 426 -153t163 -396q0 -127 -46 -233.5t-133 -180.5q-48 -41 -105 -62.5t-118 -21.5q-75 0 -114 28.5t-45 85.5q-40 -59 -86.5 -85.5t-109.5 -26.5q-117 0 -175.5 65t-58.5 195q0 183 97.5 305.5 t242.5 122.5q50 0 88.5 -21t61.5 -62l33 61h165l-106 -466q-2 -9 -2.5 -13.5t-0.5 -8.5q0 -18 8.5 -27t23.5 -9q87 0 157 105.5t70 245.5q0 175 -118.5 283t-314.5 108q-97 0 -181 -26.5t-153 -78.5q-105 -80 -162 -199.5t-57 -260.5q0 -218 136 -348t364 -130q109 0 209 35 t189 104l79 -119q-112 -90 -233 -134t-259 -44q-128 0 -241.5 40.5t-199.5 116.5q-102 88 -152 207t-50 268zM608 652q0 -53 20.5 -82.5t58.5 -29.5q49 0 88 41t54 111l32 145q-5 50 -29 78t-62 28q-64 0 -113 -86.5t-49 -204.5z" />
<glyph unicode="A" horiz-adv-x="1305" d="M45 0l447 1500h322l446 -1500h-268l-100 331h-480l-98 -331h-269zM486 589h332l-166 557z" />
<glyph unicode="B" d="M111 0h864l215 215v401l-134 134l134 134v401l-215 215h-864v-1500zM369 258v363h476l87 -87v-189l-87 -87h-476zM369 879v363h476l87 -87v-189l-87 -87h-476z" />
<glyph unicode="C" d="M111 215l215 -215h649l215 215v272h-258v-141l-87 -88h-389l-86 87v810l87 88h388l87 -88v-142h258v272l-215 215h-649l-215 -215v-1070z" />
<glyph unicode="D" d="M111 0h864l215 215v1070l-215 215h-864v-1500zM369 258v984h476l87 -87v-810l-87 -87h-476z" />
<glyph unicode="E" horiz-adv-x="1221" d="M111 0v1500h999v-258h-741v-363h578v-258h-578v-363h741v-258h-999z" />
<glyph unicode="F" horiz-adv-x="1221" d="M111 0v1500h999v-258h-741v-363h578v-258h-578v-621h-258z" />
<glyph unicode="G" horiz-adv-x="1298" d="M109 215l215 -215h649l215 215v594h-460v-258h202v-206l-87 -87h-389l-86 87v810l87 88h388l87 -88v-142h258v272l-215 215h-649l-215 -215v-1070z" />
<glyph unicode="H" d="M111 0v1500h258v-621h563v621h258v-1500h-258v621h-563v-621h-258z" />
<glyph unicode="I" horiz-adv-x="480" d="M111 0v1500h258v-1500h-258z" />
<glyph unicode="J" d="M111 215l215 -215h649l215 215v1285h-257v-1154l-87 -88h-390l-87 88v141h-258v-272z" />
<glyph unicode="K" d="M112 0v1500h257v-582l551 582h320l-594 -635l594 -865h-293l-485 666l-93 -99v-567h-257z" />
<glyph unicode="L" horiz-adv-x="1221" d="M111 0v1500h258v-1242h741v-258h-999z" />
<glyph unicode="M" horiz-adv-x="1660" d="M111 0v1500h369l350 -998l350 998h370l-1 -1500h-258v1069l-349 -1069h-223l-350 1068v-1068h-258z" />
<glyph unicode="N" d="M111 0v1500h377l444 -1094v1094h258v-1500h-375l-446 1092v-1092h-258z" />
<glyph unicode="O" d="M111 215l215 -215h649l215 215v1070l-215 215h-649l-215 -215v-1070zM369 345v810l87 87h389l87 -87v-810l-87 -87h-389z" />
<glyph unicode="P" d="M111 0h258v621h606l215 215v449l-215 215h-864v-1500zM369 879v363h476l87 -87v-189l-87 -87h-476z" />
<glyph unicode="Q" d="M111 215l215 -215h538l149 -151l163 164l-94 93l108 109v1070l-215 215h-649l-215 -215v-1070zM369 345v810l87 87h389l87 -87v-810l-44 -45l-239 239l-164 -163l117 -118h-146z" />
<glyph unicode="R" d="M111 0h258v621h333l215 -621h274l-216 621l215 215v449l-215 215h-864v-1500zM369 879v363h476l87 -87v-189l-87 -87h-476z" />
<glyph unicode="S" d="M111 215l215 -215h649l215 215v449l-215 215h-519l-86 87v189l87 88h388l87 -88v-120h258v250l-215 215h-649l-215 -215v-449l215 -215h520l87 -88v-187l-88 -88h-389l-87 87v120h-258v-250z" />
<glyph unicode="T" horiz-adv-x="1221" d="M111 1242v258h999v-258h-371v-1242h-258v1242h-370z" />
<glyph unicode="U" d="M111 215l215 -215h649l215 215v1285h-258l1 -1154l-88 -88h-389l-86 87v1155h-259v-1285z" />
<glyph unicode="V" horiz-adv-x="1303" d="M44 1500h268l340 -1146l338 1146h269l-447 -1500h-322z" />
<glyph unicode="W" horiz-adv-x="1846" d="M44 1500h249l263 -1052l243 1052h252l243 -1052l264 1052h245l-364 -1501l-279 1l-236 968l-233 -968h-283z" />
<glyph unicode="X" d="M71 0h291l288 498l286 -498h292l-431 750l430 750h-294l-283 -494l-285 494h-294l432 -750z" />
<glyph unicode="Y" d="M72 1500l449 -850v-650h258v647l449 853h-284l-293 -554l-295 554h-284z" />
<glyph unicode="Z" horiz-adv-x="1242" d="M111 0v251l709 991h-709v258h1020v-258l-709 -984h709v-258h-1020z" />
<glyph unicode="[" horiz-adv-x="649" d="M111 -130h427v258h-168v1245h168v257h-427v-1760z" />
<glyph unicode="\" d="M111 1108l181 182l898 -897l-183 -183z" />
<glyph unicode="]" horiz-adv-x="649" d="M111 128h169v1245h-169v257h427v-1760h-426z" />
<glyph unicode="^" horiz-adv-x="1067" d="M55 1107l480 480l476 -476l-167 -168l-309 309l-313 -313z" />
<glyph unicode="_" d="M-10 -92h1320v-258h-1320v258z" />
<glyph unicode="`" horiz-adv-x="597" d="M111 1661l303 -131l72 166l-303 131z" />
<glyph unicode="a" horiz-adv-x="1305" d="M45 0l447 1500h322l446 -1500h-268l-100 331h-480l-98 -331h-269zM486 589h332l-166 557z" />
<glyph unicode="b" d="M111 0h864l215 215v401l-134 134l134 134v401l-215 215h-864v-1500zM369 258v363h476l87 -87v-189l-87 -87h-476zM369 879v363h476l87 -87v-189l-87 -87h-476z" />
<glyph unicode="c" d="M111 215l215 -215h649l215 215v272h-258v-141l-87 -88h-389l-86 87v810l87 88h388l87 -88v-142h258v272l-215 215h-649l-215 -215v-1070z" />
<glyph unicode="d" d="M111 0h864l215 215v1070l-215 215h-864v-1500zM369 258v984h476l87 -87v-810l-87 -87h-476z" />
<glyph unicode="e" horiz-adv-x="1221" d="M111 0v1500h999v-258h-741v-363h578v-258h-578v-363h741v-258h-999z" />
<glyph unicode="f" horiz-adv-x="1221" d="M111 0v1500h999v-258h-741v-363h578v-258h-578v-621h-258z" />
<glyph unicode="g" horiz-adv-x="1298" d="M109 215l215 -215h649l215 215v594h-460v-258h202v-206l-87 -87h-389l-86 87v810l87 88h388l87 -88v-142h258v272l-215 215h-649l-215 -215v-1070z" />
<glyph unicode="h" d="M111 0v1500h258v-621h563v621h258v-1500h-258v621h-563v-621h-258z" />
<glyph unicode="i" horiz-adv-x="480" d="M111 0v1500h258v-1500h-258z" />
<glyph unicode="j" d="M111 215l215 -215h649l215 215v1285h-257v-1154l-87 -88h-390l-87 88v141h-258v-272z" />
<glyph unicode="k" d="M112 0v1500h257v-582l551 582h320l-594 -635l594 -865h-293l-485 666l-93 -99v-567h-257z" />
<glyph unicode="l" horiz-adv-x="1221" d="M111 0v1500h258v-1242h741v-258h-999z" />
<glyph unicode="m" horiz-adv-x="1660" d="M111 0v1500h369l350 -998l350 998h370l-1 -1500h-258v1069l-349 -1069h-223l-350 1068v-1068h-258z" />
<glyph unicode="n" d="M111 0v1500h377l444 -1094v1094h258v-1500h-375l-446 1092v-1092h-258z" />
<glyph unicode="o" d="M111 215l215 -215h649l215 215v1070l-215 215h-649l-215 -215v-1070zM369 345v810l87 87h389l87 -87v-810l-87 -87h-389z" />
<glyph unicode="p" d="M111 0h258v621h606l215 215v449l-215 215h-864v-1500zM369 879v363h476l87 -87v-189l-87 -87h-476z" />
<glyph unicode="q" d="M111 215l215 -215h538l149 -151l163 164l-94 93l108 109v1070l-215 215h-649l-215 -215v-1070zM369 345v810l87 87h389l87 -87v-810l-44 -45l-239 239l-164 -163l117 -118h-146z" />
<glyph unicode="r" d="M111 0h258v621h333l215 -621h274l-216 621l215 215v449l-215 215h-864v-1500zM369 879v363h476l87 -87v-189l-87 -87h-476z" />
<glyph unicode="s" d="M111 215l215 -215h649l215 215v449l-215 215h-519l-86 87v189l87 88h388l87 -88v-120h258v250l-215 215h-649l-215 -215v-449l215 -215h520l87 -88v-187l-88 -88h-389l-87 87v120h-258v-250z" />
<glyph unicode="t" horiz-adv-x="1221" d="M111 1242v258h999v-258h-371v-1242h-258v1242h-370z" />
<glyph unicode="u" d="M111 215l215 -215h649l215 215v1285h-258l1 -1154l-88 -88h-389l-86 87v1155h-259v-1285z" />
<glyph unicode="v" horiz-adv-x="1303" d="M44 1500h268l340 -1146l338 1146h269l-447 -1500h-322z" />
<glyph unicode="w" horiz-adv-x="1846" d="M44 1500h249l263 -1052l243 1052h252l243 -1052l264 1052h245l-364 -1501l-279 1l-236 968l-233 -968h-283z" />
<glyph unicode="x" d="M71 0h291l288 498l286 -498h292l-431 750l430 750h-294l-283 -494l-285 494h-294l432 -750z" />
<glyph unicode="y" d="M72 1500l449 -850v-650h258v647l449 853h-284l-293 -554l-295 554h-284z" />
<glyph unicode="z" horiz-adv-x="1242" d="M111 0v251l709 991h-709v258h1020v-258l-709 -984h709v-258h-1020z" />
<glyph unicode="{" horiz-adv-x="820" d="M111 656v194h19h19q36 0 84 52.5t48 180.5v233q0 132 22 186t75 86q43 23 105.5 34t154.5 11q12 0 35 -1t36 -1v-194q-8 0 -23 1t-21 1q-73 0 -106 -35.5t-33 -151.5v-222q0 -138 -42 -195.5t-91 -82.5q49 -25 91 -81.5t42 -194.5v-223q0 -114 32.5 -149.5t106.5 -35.5 q6 0 21 1t23 1v-194q-13 0 -36 -1t-35 -1q-92 0 -154.5 11t-105.5 34q-53 32 -75 85.5t-22 185.5v234q0 127 -47.5 179t-84.5 52q-6 0 -19 0.5t-19 0.5z" />
<glyph unicode="|" horiz-adv-x="479" d="M111 -130v1760h257v-1760h-257z" />
<glyph unicode="}" horiz-adv-x="820" d="M111 70v-194q13 0 36 -1t35 -1q92 0 154.5 11t105.5 34q53 32 75 85.5t22 185.5v234q0 127 47.5 179t84.5 52q6 0 19 0.5t19 0.5v194h-19h-19q-36 0 -84 52.5t-48 180.5v233q0 132 -22 186t-75 86q-43 23 -105.5 34t-154.5 11q-12 0 -35 -1t-36 -1v-194q8 0 23 1t21 1 q73 0 106 -35.5t33 -151.5v-222q0 -138 42 -195.5t91 -82.5q-49 -25 -91 -81.5t-42 -194.5v-223q0 -114 -32.5 -149.5t-106.5 -35.5q-6 0 -21 1t-23 1z" />
<glyph unicode="~" horiz-adv-x="1132" d="M111 732l30 44q30 47 99 106.5t165 59.5t206 -89q48 -36 83 -42q38 -5 65.5 6.5t65.5 50.5l41 56l155 -144l-37 -55q-39 -58 -96.5 -106.5t-152.5 -48.5q-83 0 -218 90q-56 41 -104 41q-53 -2 -79.5 -23.5t-71.5 -93.5z" />
<glyph unicode="&#xa1;" horiz-adv-x="480" d="M111 0v536l50 535h158l49 -535v-536h-257zM111 1242v258h258v-258h-258z" />
<glyph unicode="&#xa2;" d="M111 341l215 -215h649l215 215v264h-258v-133l-87 -88h-389l-86 87v558l87 88h388l87 -88v-133h258v263l-215 215h-649l-215 -215v-818zM534 -50h231v1600h-231v-1600z" />
<glyph unicode="&#xa3;" horiz-adv-x="1301" d="M111 0h1079v410h-258v-152l-502 1v343l422 -1v258h-423v296l87 88h238l87 -88v-120h258v250l-215 215h-499l-215 -215v-426h-59v-257h59v-344h-59v-258z" />
<glyph unicode="&#xa4;" horiz-adv-x="1409" d="M66 43l11 -11h32l11 11v15h-13v-9l-4 -4h-20l-4 4v41l4 4h20l4 -4v-9h13v15l-11 11h-32l-11 -11v-53zM131 32v75h12v-31h29v31h12v-75h-12v31h-29v-31h-12zM191 32h13l5 17h24l5 -17h13l-22 75h-16zM213 61l8 28l8 -28h-16zM258 32h13v31h10l16 -31h15l-17 31h6l11 11v22 l-11 11h-43v-75zM271 76v18h24l4 -4v-10l-4 -4h-24zM275 572q-16 174 77 309q-93 177 8 358q122 176 323 176q215 0 331 -185q85 -174 -2 -358q143 -199 20 -450q-78 -113 -190 -166l-7 39q285 155 202 457q-89 222 -307 254l-48 345l-53 -345q-284 -63 -318 -333 q-13 -270 215 -378l-6 -40q-208 112 -245 317zM310 1252q-107 -190 8 -407q-153 -328 124 -551q35 -25 77 -49l-7 -56l43 42q133 -31 249 1l48 -43l-10 60q174 80 230 244q63 192 -29 350q103 207 13 405q-122 218 -373 219q-230 0 -373 -215zM322 32v75h12v-62h38v-13h-50z M383 32v76h50v-13h-37v-19h29v-12h-29v-19h37v-13h-50zM443 43l11 -11h32l11 11v23l-11 10h-26l-4 5v9l4 5h20l4 -5v-6h13v13l-11 11h-32l-11 -11v-23l11 -10h26l4 -5v-9l-4 -5h-20l-4 5v6h-13v-13zM498 531l107 29l74 489l78 -489l109 -29l-95 -66l21 -159l-110 99 l-112 -99l21 159zM534 43l11 -11h32l11 11v15h-13v-9l-4 -4h-20l-4 4v41l4 4h20l4 -4v-9h13v15l-11 11h-32l-11 -11v-53zM565 237l34 33q88 -20 164 0l34 -30q-109 -30 -232 -3zM593 32h13l5 17h24l5 -17h13l-22 75h-16zM615 61l8 28l8 -28h-16zM658 43l11 -11h32l11 11v23 l-11 10h-26l-4 5v9l4 5h20l4 -5v-6h13v13l-11 11h-32l-11 -11v-23l11 -10h26l4 -5v-9l-4 -5h-20l-4 5v6h-13v-13zM724 32v75h12v-75h-12zM748 32v76h18l18 -48l17 48h19l-1 -76h-12v55l-20 -55h-7l-20 55v-55h-12zM832 32v75h12v-75h-12zM855 32h13v31h10l16 -31h15l-17 31 h6l11 11v22l-11 11h-43v-75zM868 76v18h24l4 -4v-10l-4 -4h-24zM918 43l11 -11h32l11 11v54l-11 11h-32l-11 -11v-54zM931 50v40l4 5h20l4 -5v-40l-4 -5h-20zM1006 32h43l11 11v53l-11 11h-43v-75zM1018 45v49h24l5 -4v-41l-5 -4h-24zM1071 32v76h50v-13h-37v-19h29v-12h-29 v-19h37v-13h-50zM1132 43l11 -11h32l11 11v23l-11 10h-26l-4 5v9l4 5h20l4 -5v-6h13v13l-11 11h-32l-11 -11v-23l11 -10h26l4 -5v-9l-4 -5h-20l-4 5v6h-13v-13zM1199 32v75h12v-75h-12zM1224 43l10 -11h33l11 11v28h-24v-13h11v-8l-5 -5h-19l-5 5v40l5 5h19l5 -5v-9h13v16 l-11 11h-33l-10 -11v-54zM1290 32v76h18l23 -55v55h13v-76h-19l-23 55v-55h-12z" />
<glyph unicode="&#xa5;" d="M72 1500l449 -850v-650h258v647l449 853h-284l-293 -554l-295 554h-284zM235 313h832v258h-832v-258zM235 689h832v258h-832v-258z" />
<glyph unicode="&#xa6;" horiz-adv-x="479" d="M111 -130v786h257v-786h-257zM111 849v780h257v-780h-257z" />
<glyph unicode="&#xa7;" horiz-adv-x="1025" d="M111 783q0 78 38 137t112 99q-43 39 -64 86t-21 104q0 131 90 211t240 80q153 0 240.5 -79t90.5 -218h-206q-2 59 -35 89.5t-94 30.5q-54 0 -83.5 -23.5t-29.5 -66.5q0 -35 34.5 -65t124.5 -72l147 -69q112 -53 165.5 -118t53.5 -150q0 -80 -40 -139t-114 -91 q51 -45 76.5 -99.5t25.5 -118.5q0 -135 -96.5 -223t-247.5 -88q-166 0 -255.5 80.5t-97.5 237.5h216q7 -69 41 -102t96 -33q57 0 91.5 27.5t34.5 74.5q0 39 -25.5 67.5t-100.5 64.5l-209 106q-100 50 -149 115t-49 145zM306 836q0 -34 26 -60t114 -72l195 -100 q35 20 52.5 44.5t17.5 52.5q0 34 -20 58t-83 57l-232 120q-34 -21 -52 -46t-18 -54z" />
<glyph unicode="&#xa8;" horiz-adv-x="780" d="M111 1550v193h193v-193h-193zM476 1550v193h193v-193h-193z" />
<glyph unicode="&#xa9;" horiz-adv-x="1477" d="M111 747q0 251 196.5 439t455.5 188q254 0 429 -176.5t175 -445.5q0 -268 -184.5 -450.5t-443.5 -182.5q-253 0 -440.5 185.5t-187.5 442.5zM267 747q0 -194 141 -333t331 -139q195 0 333.5 137t138.5 338q0 203 -131.5 335.5t-322.5 132.5q-195 0 -342.5 -141.5 t-147.5 -329.5zM477 481l106 -106h318l106 106v154h-127v-90l-42 -43h-192l-42 43v397l43 44h191l42 -44v-89h127v153l-106 106h-318l-106 -106v-525z" />
<glyph unicode="&#xaa;" horiz-adv-x="697" d="M45 750l223 750h161l223 -750h-134l-50 165h-239l-49 -165h-135zM265 1044h167l-84 279z" />
<glyph unicode="&#xab;" horiz-adv-x="1116" d="M34 445l443 445l139 -138l-307 -307l307 -307l-139 -138zM500 445l443 445l139 -138l-307 -307l307 -307l-139 -138z" />
<glyph unicode="&#xac;" horiz-adv-x="1155" d="M36 737v201h1080v-466h-199v265h-881z" />
<glyph unicode="&#xad;" horiz-adv-x="761" d="M176 621v258h410v-258h-410z" />
<glyph unicode="&#xae;" horiz-adv-x="1477" d="M111 747q0 251 196.5 439t455.5 188q254 0 429 -176.5t175 -445.5q0 -268 -184.5 -450.5t-443.5 -182.5q-253 0 -440.5 185.5t-187.5 442.5zM267 747q0 -194 141 -333t331 -139q195 0 333.5 137t138.5 338q0 203 -131.5 335.5t-322.5 132.5q-195 0 -342.5 -141.5 t-147.5 -329.5zM480 375h127v306h165l106 -306h135l-107 306l107 106v221l-107 106h-426v-739zM607 808v179h235l42 -43v-93l-42 -43h-235z" />
<glyph unicode="&#xaf;" horiz-adv-x="708" d="M111 1584v174h485v-174h-485z" />
<glyph unicode="&#xb0;" horiz-adv-x="842" d="M111 1190q0 124 97 217t224 93q126 0 212.5 -87.5t86.5 -220.5t-91.5 -223.5t-218.5 -90.5q-126 0 -218 92.5t-92 219.5zM318 1190q0 -44 30.5 -74.5t72.5 -30.5t72.5 30.5t30.5 74.5t-28.5 73.5t-70.5 29.5q-44 0 -75.5 -31.5t-31.5 -71.5z" />
<glyph unicode="&#xb1;" horiz-adv-x="1201" d="M111 0v258h979v-258h-979zM111 791v258h361v369h256v-369h362v-258h-361v-375h-258v375h-360z" />
<glyph unicode="&#xb2;" horiz-adv-x="762" d="M111 750v317l108 107h259l43 44v110l-43 44h-194l-44 -44v-60h-129v124l108 108h324l108 -108v-239l-108 -107h-260l-43 -44v-123h411v-129h-540z" />
<glyph unicode="&#xb3;" horiz-adv-x="761" d="M111 858l107 -108h325l107 108v200l-67 67l67 67v200l-107 108h-325l-107 -108v-124h129v60l43 43h195l43 -43l1 -95l-44 -43h-185v-129h185l43 -43l1 -95l-44 -44h-194l-44 43v60h-129v-124z" />
<glyph unicode="&#xb4;" horiz-adv-x="597" d="M111 1696l303 131l72 -166l-303 -131z" />
<glyph unicode="&#xb5;" horiz-adv-x="1192" d="M111 -218h259l-1 218h437l112 110l113 -110l210 210l-160 157v825h-258v-846l-87 -88h-280l-86 87v847h-259v-1410z" />
<glyph unicode="&#xb6;" horiz-adv-x="1161" d="M111 836v449l215 215h724v-1500h-228v1272h-135l1 -1272h-227l-1 621h-134z" />
<glyph unicode="&#xb7;" horiz-adv-x="480" d="M111 621v258h258v-258h-258z" />
<glyph unicode="&#xb8;" horiz-adv-x="574" d="M111 -2l100 -99l-98 -98l126 -126l224 224l-226 225z" />
<glyph unicode="&#xb9;" horiz-adv-x="365" d="M54 1371v129h200v-750h-129v621h-71z" />
<glyph unicode="&#xba;" horiz-adv-x="762" d="M111 858l108 -108h324l108 108v534l-108 108h-324l-108 -108v-534zM240 923v404l44 44h194l44 -44v-404l-44 -44h-194z" />
<glyph unicode="&#xbb;" horiz-adv-x="1116" d="M34 138l139 -138l443 445l-443 445l-139 -138l307 -307zM500 138l139 -138l443 445l-443 445l-139 -138l307 -307z" />
<glyph unicode="&#xbc;" horiz-adv-x="796" d="M111 683v128h573v-128h-573zM130 64v128l345 437h128v-437h65v-128h-65v-184h-128v184h-345zM257 1491v129h200v-750h-129v621h-71zM285 192h190v238z" />
<glyph unicode="&#xbd;" horiz-adv-x="795" d="M111 683v128h573v-128h-573zM125 -123v317l108 108h259l43 43v109l-43 44h-194l-44 -44v-60h-129v126l108 107h324l108 -107v-240l-108 -108h-260l-43 -44v-122h411v-129h-540zM258 1491v129h200v-750h-129v621h-71z" />
<glyph unicode="&#xbe;" horiz-adv-x="795" d="M111 683v128h573v-128h-573zM119 978l107 -107h325l107 107v201l-67 67l67 67v201l-107 107h-325l-107 -107v-126h129v61l43 43h195l43 -43l1 -95l-44 -44h-185v-128h185l43 -44l1 -94l-44 -44h-194l-44 44v60h-129v-126zM131 64v128l345 437h128v-437h65v-128h-65v-184 h-128v184h-345zM286 192h190v238z" />
<glyph unicode="&#xbf;" d="M110 215l215 -215h649l215 215v250h-258v-121l-87 -87l-390 1l-86 86l-1 190l88 87h171l183 183v268h-258v-149l-79 -79h-174l-188 -188v-441zM550 1242v258h259v-258h-259z" />
<glyph unicode="&#xc0;" horiz-adv-x="1305" d="M45 0l447 1500h322l446 -1500h-268l-100 331h-480l-98 -331h-269zM353 1661l303 -131l72 166l-303 131zM486 589h332l-166 557z" />
<glyph unicode="&#xc1;" horiz-adv-x="1305" d="M45 0l447 1500h322l446 -1500h-268l-100 331h-480l-98 -331h-269zM486 589h332l-166 557zM572 1696l303 131l72 -166l-303 -131z" />
<glyph unicode="&#xc2;" horiz-adv-x="1305" d="M45 0l447 1500h322l446 -1500h-268l-100 331h-480l-98 -331h-269zM387 1639l268 189l267 -187l-116 -136l-151 100l-152 -102zM486 589h332l-166 557z" />
<glyph unicode="&#xc3;" horiz-adv-x="1305" d="M45 0l447 1500h322l446 -1500h-268l-100 331h-480l-98 -331h-269zM320 1636l22 34q22 37 72.5 83.5t121.5 46.5q70 0 151 -69q35 -29 61 -34q28 -4 48 5t48 40l30 38l111 -87l-29 -46q-25 -39 -66.5 -77t-123.5 -38q-61 0 -158 71q-38 32 -66 32q-29 -2 -51 -19.5 t-60 -72.5zM486 589h332l-166 557z" />
<glyph unicode="&#xc4;" horiz-adv-x="1305" d="M45 0l447 1500h322l446 -1500h-268l-100 331h-480l-98 -331h-269zM371 1550v193h193v-193h-193zM486 589h332l-166 557zM736 1550v193h193v-193h-193z" />
<glyph unicode="&#xc5;" horiz-adv-x="1305" d="M45 0l447 1500h322l446 -1500h-268l-100 331h-480l-98 -331h-269zM486 589h332l-166 557zM486 1670q0 65 51 114t118 49q66 0 111.5 -46t45.5 -116t-48 -117.5t-115 -47.5q-66 0 -114.5 48.5t-48.5 115.5zM595 1670q0 -23 16 -39t38 -16t38 16t16 39t-15 38.5t-37 15.5 q-23 0 -39.5 -16.5t-16.5 -37.5z" />
<glyph unicode="&#xc6;" horiz-adv-x="1829" d="M46 0l565 1500h1107v-258h-607v-363h444v-258h-444v-363h607v-258h-865l1 381l-388 1l-138 -382h-282zM560 640h298v602h-68z" />
<glyph unicode="&#xc7;" d="M111 215l215 -215h649l215 215v272h-258v-141l-87 -88h-389l-86 87v810l87 88h388l87 -88v-142h258v272l-215 215h-649l-215 -215v-1070zM529 -2l100 -99l-98 -98l126 -126l224 224l-226 225z" />
<glyph unicode="&#xc8;" horiz-adv-x="1221" d="M111 0v1500h999v-258h-741v-363h578v-258h-578v-363h741v-258h-999zM316 1661l303 -131l72 166l-303 131z" />
<glyph unicode="&#xc9;" horiz-adv-x="1221" d="M111 0v1500h999v-258h-741v-363h578v-258h-578v-363h741v-258h-999zM537 1696l303 131l72 -166l-303 -131z" />
<glyph unicode="&#xca;" horiz-adv-x="1221" d="M111 0v1500h999v-258h-741v-363h578v-258h-578v-363h741v-258h-999zM358 1639l268 189l267 -187l-116 -136l-151 100l-152 -102z" />
<glyph unicode="&#xcb;" horiz-adv-x="1221" d="M111 0v1500h999v-258h-741v-363h578v-258h-578v-363h741v-258h-999zM338 1550v193h193v-193h-193zM703 1550v193h193v-193h-193z" />
<glyph unicode="&#xcc;" horiz-adv-x="480" d="M-52 1661l303 -131l72 166l-303 131zM111 0v1500h258v-1500h-258z" />
<glyph unicode="&#xcd;" horiz-adv-x="480" d="M111 0v1500h258v-1500h-258zM161 1696l303 131l72 -166l-303 -131z" />
<glyph unicode="&#xce;" horiz-adv-x="480" d="M-23 1639l268 189l267 -187l-116 -136l-151 100l-152 -102zM111 0v1500h258v-1500h-258z" />
<glyph unicode="&#xcf;" horiz-adv-x="480" d="M-37 1550v193h193v-193h-193zM111 0v1500h258v-1500h-258zM328 1550v193h193v-193h-193z" />
<glyph unicode="&#xd0;" d="M31 621h612v258h-612v-258zM131 0h844l215 215v1070l-215 215h-844v-1500zM389 258v984h456l87 -87v-810l-87 -87h-456z" />
<glyph unicode="&#xd1;" d="M111 0v1500h377l444 -1094v1094h258v-1500h-375l-446 1092v-1092h-258zM320 1646l22 32q22 35 72.5 78.5t121.5 43.5q70 0 151 -65q35 -27 61 -31q28 -4 48 4.5t48 37.5l30 41l114 -106l-27 -40q-29 -43 -71 -78.5t-112 -35.5q-61 0 -160 66q-41 30 -76 30 q-39 -1 -58.5 -17t-52.5 -69z" />
<glyph unicode="&#xd2;" d="M111 215l215 -215h649l215 215v1070l-215 215h-649l-215 -215v-1070zM356 1661l303 -131l72 166l-303 131zM369 345v810l87 87h389l87 -87v-810l-87 -87h-389z" />
<glyph unicode="&#xd3;" d="M111 215l215 -215h649l215 215v1070l-215 215h-649l-215 -215v-1070zM369 345v810l87 87h389l87 -87v-810l-87 -87h-389zM572 1696l303 131l72 -166l-303 -131z" />
<glyph unicode="&#xd4;" d="M111 215l215 -215h649l215 215v1070l-215 215h-649l-215 -215v-1070zM369 345v810l87 87h389l87 -87v-810l-87 -87h-389zM387 1639l268 189l267 -187l-116 -136l-151 100l-152 -102z" />
<glyph unicode="&#xd5;" d="M111 215l215 -215h649l215 215v1070l-215 215h-649l-215 -215v-1070zM320 1646l22 32q22 35 72.5 78.5t121.5 43.5q70 0 151 -65q35 -27 61 -31q28 -4 48 4.5t48 37.5l30 41l114 -106l-27 -40q-29 -43 -71 -78.5t-112 -35.5q-61 0 -160 66q-41 30 -76 30 q-39 -1 -58.5 -17t-52.5 -69zM369 345v810l87 87h389l87 -87v-810l-87 -87h-389z" />
<glyph unicode="&#xd6;" d="M111 215l215 -215h649l215 215v1070l-215 215h-649l-215 -215v-1070zM369 345v810l87 87h389l87 -87v-810l-87 -87h-389zM370 1550v193h193v-193h-193zM735 1550v193h193v-193h-193z" />
<glyph unicode="&#xd7;" horiz-adv-x="1211" d="M111 1061l181 181l311 -311l306 306l183 -183l-306 -305l315 -315l-182 -182l-315 315l-305 -305l-182 183l305 305z" />
<glyph unicode="&#xd8;" d="M29 297l182 -182l1074 1075l-182 182zM111 215l215 -215h649l215 215v1070l-215 215h-649l-215 -215v-1070zM369 345v810l87 87h389l87 -87v-810l-87 -87h-389z" />
<glyph unicode="&#xd9;" d="M111 215l215 -215h649l215 215v1285h-258l1 -1154l-88 -88h-389l-86 87v1155h-259v-1285zM356 1661l303 -131l72 166l-303 131z" />
<glyph unicode="&#xda;" d="M111 215l215 -215h649l215 215v1285h-258l1 -1154l-88 -88h-389l-86 87v1155h-259v-1285zM576 1696l303 131l72 -166l-303 -131z" />
<glyph unicode="&#xdb;" d="M111 215l215 -215h649l215 215v1285h-258l1 -1154l-88 -88h-389l-86 87v1155h-259v-1285zM387 1639l268 189l267 -187l-116 -136l-151 100l-152 -102z" />
<glyph unicode="&#xdc;" d="M111 215l215 -215h649l215 215v1285h-258l1 -1154l-88 -88h-389l-86 87v1155h-259v-1285zM370 1550v193h193v-193h-193zM735 1550v193h193v-193h-193z" />
<glyph unicode="&#xdd;" d="M72 1500l449 -850v-650h258v647l449 853h-284l-293 -554l-295 554h-284zM572 1696l303 131l72 -166l-303 -131z" />
<glyph unicode="&#xde;" d="M111 0h258v195h606l215 215v678l-215 215h-606v197h-258v-1500zM369 453v592h476l87 -87v-418l-87 -87h-476z" />
<glyph unicode="&#xdf;" horiz-adv-x="2601" d="M111 215l215 -215h649l215 215v449l-215 215h-519l-86 87v189l87 88h388l87 -88v-120h258v250l-215 215h-649l-215 -215v-449l215 -215h520l87 -88v-187l-88 -88h-389l-87 87v120h-258v-250zM1411 215l215 -215h649l215 215v449l-215 215h-519l-86 87v189l87 88h388 l87 -88v-120h258v250l-215 215h-649l-215 -215v-449l215 -215h520l87 -88v-187l-88 -88h-389l-87 87v120h-258v-250z" />
<glyph unicode="&#xe0;" horiz-adv-x="1305" d="M45 0l447 1500h322l446 -1500h-268l-100 331h-480l-98 -331h-269zM353 1661l303 -131l72 166l-303 131zM486 589h332l-166 557z" />
<glyph unicode="&#xe1;" horiz-adv-x="1305" d="M45 0l447 1500h322l446 -1500h-268l-100 331h-480l-98 -331h-269zM486 589h332l-166 557zM572 1696l303 131l72 -166l-303 -131z" />
<glyph unicode="&#xe2;" horiz-adv-x="1305" d="M45 0l447 1500h322l446 -1500h-268l-100 331h-480l-98 -331h-269zM387 1639l268 189l267 -187l-116 -136l-151 100l-152 -102zM486 589h332l-166 557z" />
<glyph unicode="&#xe3;" horiz-adv-x="1305" d="M45 0l447 1500h322l446 -1500h-268l-100 331h-480l-98 -331h-269zM320 1646l22 32q22 35 72.5 78.5t121.5 43.5q70 0 151 -65q35 -27 61 -31q28 -4 48 4.5t48 37.5l30 41l114 -106l-27 -40q-29 -43 -71 -78.5t-112 -35.5q-61 0 -160 66q-41 30 -76 30q-39 -1 -58.5 -17 t-52.5 -69zM486 589h332l-166 557z" />
<glyph unicode="&#xe4;" horiz-adv-x="1305" d="M45 0l447 1500h322l446 -1500h-268l-100 331h-480l-98 -331h-269zM371 1550v193h193v-193h-193zM486 589h332l-166 557zM736 1550v193h193v-193h-193z" />
<glyph unicode="&#xe5;" horiz-adv-x="1305" d="M45 0l447 1500h322l446 -1500h-268l-100 331h-480l-98 -331h-269zM486 589h332l-166 557zM486 1670q0 65 51 114t118 49q66 0 111.5 -46t45.5 -116t-48 -117.5t-115 -47.5q-66 0 -114.5 48.5t-48.5 115.5zM595 1670q0 -23 16 -39t38 -16t38 16t16 39t-15 38.5t-37 15.5 q-23 0 -39.5 -16.5t-16.5 -37.5z" />
<glyph unicode="&#xe6;" horiz-adv-x="1829" d="M46 0l565 1500h1107v-258h-607v-363h444v-258h-444v-363h607v-258h-865l1 381l-388 1l-138 -382h-282zM560 640h298v602h-68z" />
<glyph unicode="&#xe7;" d="M111 215l215 -215h649l215 215v272h-258v-141l-87 -88h-389l-86 87v810l87 88h388l87 -88v-141h258v271l-215 215h-649l-215 -215v-1070zM529 -2l100 -99l-98 -98l126 -126l224 224l-226 225z" />
<glyph unicode="&#xe8;" horiz-adv-x="1221" d="M111 0v1500h999v-258h-741v-363h578v-258h-578v-363h741v-258h-999zM316 1661l303 -131l72 166l-303 131z" />
<glyph unicode="&#xe9;" horiz-adv-x="1221" d="M111 0v1500h999v-258h-741v-363h578v-258h-578v-363h741v-258h-999zM537 1696l303 131l72 -166l-303 -131z" />
<glyph unicode="&#xea;" horiz-adv-x="1221" d="M111 0v1500h999v-258h-741v-363h578v-258h-578v-363h741v-258h-999zM358 1639l268 189l267 -187l-116 -136l-151 100l-152 -102z" />
<glyph unicode="&#xeb;" horiz-adv-x="1221" d="M111 0v1500h999v-258h-741v-363h578v-258h-578v-363h741v-258h-999zM338 1550v193h193v-193h-193zM703 1550v193h193v-193h-193z" />
<glyph unicode="&#xec;" horiz-adv-x="480" d="M-52 1661l303 -131l72 166l-303 131zM111 0v1500h258v-1500h-258z" />
<glyph unicode="&#xed;" horiz-adv-x="480" d="M111 0v1500h258v-1500h-258zM161 1696l303 131l72 -166l-303 -131z" />
<glyph unicode="&#xee;" horiz-adv-x="480" d="M-23 1639l268 189l267 -187l-116 -136l-151 100l-152 -102zM111 0v1500h258v-1500h-258z" />
<glyph unicode="&#xef;" horiz-adv-x="480" d="M-37 1550v193h193v-193h-193zM111 0v1500h258v-1500h-258zM328 1550v193h193v-193h-193z" />
<glyph unicode="&#xf0;" d="M31 621h612v258h-612v-258zM131 0h844l215 215v1070l-215 215h-844v-1500zM389 258v984h456l87 -87v-810l-87 -87h-456z" />
<glyph unicode="&#xf1;" d="M111 0v1500h377l444 -1094v1094h258v-1500h-375l-446 1092v-1092h-258zM320 1646l22 32q22 35 72.5 78.5t121.5 43.5q70 0 151 -65q35 -27 61 -31q28 -4 48 4.5t48 37.5l30 41l114 -106l-27 -40q-29 -43 -71 -78.5t-112 -35.5q-61 0 -160 66q-41 30 -76 30 q-39 -1 -58.5 -17t-52.5 -69z" />
<glyph unicode="&#xf2;" d="M111 215l215 -215h649l215 215v1070l-215 215h-649l-215 -215v-1070zM356 1661l303 -131l72 166l-303 131zM369 345v810l87 87h389l87 -87v-810l-87 -87h-389z" />
<glyph unicode="&#xf3;" d="M111 215l215 -215h649l215 215v1070l-215 215h-649l-215 -215v-1070zM369 345v810l87 87h389l87 -87v-810l-87 -87h-389zM572 1696l303 131l72 -166l-303 -131z" />
<glyph unicode="&#xf4;" d="M111 215l215 -215h649l215 215v1070l-215 215h-649l-215 -215v-1070zM369 345v810l87 87h389l87 -87v-810l-87 -87h-389zM387 1639l268 189l267 -187l-116 -136l-151 100l-152 -102z" />
<glyph unicode="&#xf5;" d="M111 215l215 -215h649l215 215v1070l-215 215h-649l-215 -215v-1070zM320 1646l22 32q22 35 72.5 78.5t121.5 43.5q70 0 151 -65q35 -27 61 -31q28 -4 48 4.5t48 37.5l30 41l114 -106l-27 -40q-29 -43 -71 -78.5t-112 -35.5q-61 0 -160 66q-41 30 -76 30 q-39 -1 -58.5 -17t-52.5 -69zM369 345v810l87 87h389l87 -87v-810l-87 -87h-389z" />
<glyph unicode="&#xf6;" d="M111 215l215 -215h649l215 215v1070l-215 215h-649l-215 -215v-1070zM369 345v810l87 87h389l87 -87v-810l-87 -87h-389zM370 1550v193h193v-193h-193zM735 1550v193h193v-193h-193z" />
<glyph unicode="&#xf7;" d="M111 621v258h1079v-258h-1079zM525 176v258h258v-258h-258zM525 1061v258h258v-258h-258z" />
<glyph unicode="&#xf8;" d="M29 297l182 -182l1074 1075l-182 182zM111 215l215 -215h649l215 215v1070l-215 215h-649l-215 -215v-1070zM369 345v810l87 87h389l87 -87v-810l-87 -87h-389z" />
<glyph unicode="&#xf9;" d="M111 215l215 -215h649l215 215v1285h-258l1 -1154l-88 -88h-389l-86 87v1155h-259v-1285zM356 1661l303 -131l72 166l-303 131z" />
<glyph unicode="&#xfa;" d="M111 215l215 -215h649l215 215v1285h-258l1 -1154l-88 -88h-389l-86 87v1155h-259v-1285zM576 1696l303 131l72 -166l-303 -131z" />
<glyph unicode="&#xfb;" d="M111 215l215 -215h649l215 215v1285h-258l1 -1154l-88 -88h-389l-86 87v1155h-259v-1285zM387 1639l268 189l267 -187l-116 -136l-151 100l-152 -102z" />
<glyph unicode="&#xfc;" d="M111 215l215 -215h649l215 215v1285h-258l1 -1154l-88 -88h-389l-86 87v1155h-259v-1285zM370 1550v193h193v-193h-193zM735 1550v193h193v-193h-193z" />
<glyph unicode="&#xfd;" d="M72 1500l449 -850v-650h258v647l449 853h-284l-293 -554l-295 554h-284zM572 1696l303 131l72 -166l-303 -131z" />
<glyph unicode="&#xfe;" d="M111 0h258v195h606l215 215v678l-215 215h-606v197h-258v-1500zM369 453v592h476l87 -87v-418l-87 -87h-476z" />
<glyph unicode="&#xff;" d="M72 1500l449 -850v-650h258v647l449 853h-284l-293 -554l-295 554h-284zM370 1550v193h193v-193h-193zM735 1550v193h193v-193h-193z" />
<glyph unicode="&#x131;" horiz-adv-x="480" d="M111 0v1500h258v-1500h-258z" />
<glyph unicode="&#x141;" horiz-adv-x="1221" d="M-97 694l684 420l134 -220l-683 -419zM132 0v1500h258v-1242h721v-258h-979z" />
<glyph unicode="&#x142;" horiz-adv-x="1221" d="M-97 694l684 420l134 -220l-683 -419zM132 0v1500h258v-1242h721v-258h-979z" />
<glyph unicode="&#x152;" horiz-adv-x="1829" d="M111 215l1 1071l214 214h1392v-258h-607v-363h444v-258h-444v-363h607v-258h-1392zM369 345l87 -87h311l87 87v810l-87 87h-311l-87 -87v-810z" />
<glyph unicode="&#x153;" horiz-adv-x="1829" d="M111 215l1 1071l214 214h1392v-258h-607v-363h444v-258h-444v-363h607v-258h-1392zM369 345l87 -87h311l87 87v810l-87 87h-311l-87 -87v-810z" />
<glyph unicode="&#x160;" d="M111 215l215 -215h649l215 215v449l-215 215h-519l-86 87v189l87 88h388l87 -88v-120h258v250l-215 215h-649l-215 -215v-449l215 -215h520l87 -88v-187l-88 -88h-389l-87 87v120h-258v-250zM381 1689l116 136l151 -100l152 102l116 -136l-268 -189z" />
<glyph unicode="&#x161;" d="M111 215l215 -215h649l215 215v449l-215 215h-519l-86 87v189l87 88h388l87 -88v-120h258v250l-215 215h-649l-215 -215v-449l215 -215h520l87 -88v-187l-88 -88h-389l-87 87v120h-258v-250zM381 1689l116 136l151 -100l152 102l116 -136l-268 -189z" />
<glyph unicode="&#x178;" d="M72 1500l449 -850v-650h258v647l449 853h-284l-293 -554l-295 554h-284zM370 1550v193h193v-193h-193zM735 1550v193h193v-193h-193z" />
<glyph unicode="&#x17d;" horiz-adv-x="1242" d="M111 0v251l709 991h-709v258h1020v-258l-709 -984h709v-258h-1020zM381 1689l116 136l151 -100l152 102l116 -136l-268 -189z" />
<glyph unicode="&#x17e;" horiz-adv-x="1242" d="M111 0v251l709 991h-709v258h1020v-258l-709 -984h709v-258h-1020zM381 1689l116 136l151 -100l152 102l116 -136l-268 -189z" />
<glyph unicode="&#x192;" horiz-adv-x="891" d="M111 0h255l215 215l1 526h198v258h-199v156l88 88h111v257h-242l-215 -215v-285h-162v-259l162 1v-396l-87 -89h-125v-257z" />
<glyph unicode="&#x2c6;" horiz-adv-x="656" d="M110 1610l218 219l217 -217l-96 -96l-121 120l-122 -122z" />
<glyph unicode="&#x2c7;" horiz-adv-x="757" d="M111 1689l116 136l151 -100l152 102l116 -136l-268 -189z" />
<glyph unicode="&#x2d8;" horiz-adv-x="723" d="M120 1806h147q-5 -70 24 -92.5t79 -22.5q49 0 78 22t24 93h147q10 -143 -66 -210.5t-183 -67.5q-105 0 -182.5 68t-67.5 210z" />
<glyph unicode="&#x2d9;" horiz-adv-x="480" d="M111 1541v258h258v-258h-258z" />
<glyph unicode="&#x2da;" horiz-adv-x="548" d="M111 1670q0 65 51 114t118 49q66 0 111.5 -46t45.5 -116t-48 -117.5t-115 -47.5q-66 0 -114.5 48.5t-48.5 115.5zM220 1670q0 -23 16 -39t38 -16t38 16t16 39t-15 38.5t-37 15.5q-23 0 -39.5 -16.5t-16.5 -37.5z" />
<glyph unicode="&#x2db;" horiz-adv-x="601" d="M111 81h188v-210h191v-198h-379v408z" />
<glyph unicode="&#x2dc;" horiz-adv-x="890" d="M111 1646l22 32q22 35 72.5 78.5t121.5 43.5q70 0 151 -65q35 -27 61 -31q28 -4 48 4.5t48 37.5l30 41l114 -106l-27 -40q-29 -43 -71 -78.5t-112 -35.5q-61 0 -160 66q-41 30 -76 30q-39 -1 -58.5 -17t-52.5 -69z" />
<glyph unicode="&#x2dd;" horiz-adv-x="682" d="M111 1615l114 208l138 -104l-152 -169zM319 1615l114 208l138 -104l-152 -169z" />
<glyph unicode="&#x391;" horiz-adv-x="1305" d="M45 0l447 1500h322l446 -1500h-268l-100 331h-480l-98 -331h-269zM486 589h332l-166 557z" />
<glyph unicode="&#x392;" d="M111 0h864l215 215v401l-134 134l134 134v401l-215 215h-864v-1500zM369 258v363h476l87 -87v-189l-87 -87h-476zM369 879v363h476l87 -87v-189l-87 -87h-476z" />
<glyph unicode="&#x393;" horiz-adv-x="1221" d="M111 0h258v1242h741v258h-999v-1500z" />
<glyph unicode="&#x394;" horiz-adv-x="1305" d="M45 0l447 1500h322l446 -1500h-1215zM390 257h524l-262 889z" />
<glyph unicode="&#x395;" horiz-adv-x="1221" d="M111 0v1500h999v-258h-741v-363h578v-258h-578v-363h741v-258h-999z" />
<glyph unicode="&#x396;" horiz-adv-x="1242" d="M111 0v251l709 991h-709v258h1020v-258l-709 -984h709v-258h-1020z" />
<glyph unicode="&#x397;" d="M111 0v1500h258v-621h563v621h258v-1500h-258v621h-563v-621h-258z" />
<glyph unicode="&#x398;" d="M111 215l215 -215h649l215 215v1070l-215 215h-649l-215 -215v-1070zM369 345v810l87 87h389l87 -87v-810l-87 -87h-389zM450 621v258h401v-258h-401z" />
<glyph unicode="&#x399;" horiz-adv-x="480" d="M111 0v1500h258v-1500h-258z" />
<glyph unicode="&#x39a;" d="M112 0v1500h257v-582l551 582h320l-594 -635l594 -865h-293l-485 666l-93 -99v-567h-257z" />
<glyph unicode="&#x39b;" horiz-adv-x="1303" d="M44 0h268l340 1146l338 -1146h269l-447 1500h-322z" />
<glyph unicode="&#x39c;" horiz-adv-x="1660" d="M111 0v1500h369l350 -958l350 959h370l-1 -1501h-258v1089l-389 -1089h-143l-390 1088v-1088h-258z" />
<glyph unicode="&#x39d;" d="M111 0v1500h377l444 -1094v1094h258v-1500h-375l-446 1092v-1092h-258z" />
<glyph unicode="&#x39e;" horiz-adv-x="1284" d="M111 0v258h1079v-258h-1079zM111 1242v258h1079v-258h-1079zM235 621v258h831v-258h-831z" />
<glyph unicode="&#x39f;" d="M111 215l215 -215h649l215 215v1070l-215 215h-649l-215 -215v-1070zM369 345v810l87 87h389l87 -87v-810l-87 -87h-389z" />
<glyph unicode="&#x3a0;" d="M111 0v1500h1079v-1500h-258v1242h-563v-1242h-258z" />
<glyph unicode="&#x3a1;" d="M111 0h258v621h606l215 215v449l-215 215h-864v-1500zM369 879v363h476l87 -87v-189l-87 -87h-476z" />
<glyph unicode="&#x3a3;" horiz-adv-x="1222" d="M111 1200v300h1000v-259h-674l433 -419v-143l-432 -421h673v-258h-999v299l448 451z" />
<glyph unicode="&#x3a4;" horiz-adv-x="1221" d="M111 1242v258h999v-258h-371v-1242h-258v1242h-370z" />
<glyph unicode="&#x3a5;" d="M72 1500l449 -850v-650h258v647l449 853h-284l-293 -554l-295 554h-284z" />
<glyph unicode="&#x3a6;" horiz-adv-x="1402" d="M111 341l215 -215h750l215 215v818l-215 215h-750l-215 -215v-818zM369 471v558l87 87h490l87 -87v-558l-87 -87h-490zM572 0h258v1500h-258v-1500z" />
<glyph unicode="&#x3a7;" d="M71 0h291l288 498l286 -498h292l-431 750l430 750h-294l-283 -494l-285 494h-294l432 -750z" />
<glyph unicode="&#x3a8;" horiz-adv-x="1402" d="M111 341l215 -215h750l215 215v1033h-258l1 -902l-88 -88h-490l-86 87v903h-259v-1033zM572 0h258v1500h-258v-1500z" />
<glyph unicode="&#x3a9;" d="M111 1285l1 -815l213 -213h-213v-257h444v384l-188 186v584l88 88h389l86 -87v-587l-186 -185l1 -383h444v258l-213 -1l213 214v814l-215 215h-649z" />
<glyph unicode="&#x3b1;" horiz-adv-x="1305" d="M45 0l447 1500h322l446 -1500h-268l-100 331h-480l-98 -331h-269zM486 589h332l-166 557z" />
<glyph unicode="&#x3b2;" d="M111 0h864l215 215v401l-134 134l134 134v401l-215 215h-864v-1500zM369 258v363h476l87 -87v-189l-87 -87h-476zM369 879v363h476l87 -87v-189l-87 -87h-476z" />
<glyph unicode="&#x3b3;" horiz-adv-x="1221" d="M111 0h258v1242h741v258h-999v-1500z" />
<glyph unicode="&#x3b4;" horiz-adv-x="1305" d="M45 0l447 1500h322l446 -1500h-1215zM390 257h524l-262 889z" />
<glyph unicode="&#x3b5;" horiz-adv-x="1221" d="M111 0v1500h999v-258h-741v-363h578v-258h-578v-363h741v-258h-999z" />
<glyph unicode="&#x3b6;" horiz-adv-x="1242" d="M111 0v251l709 991h-709v258h1020v-258l-709 -984h709v-258h-1020z" />
<glyph unicode="&#x3b7;" d="M111 0v1500h258v-621h563v621h258v-1500h-258v621h-563v-621h-258z" />
<glyph unicode="&#x3b8;" d="M111 215l215 -215h649l215 215v1070l-215 215h-649l-215 -215v-1070zM369 345v810l87 87h389l87 -87v-810l-87 -87h-389zM450 621v258h401v-258h-401z" />
<glyph unicode="&#x3b9;" horiz-adv-x="480" d="M111 0v1500h258v-1500h-258z" />
<glyph unicode="&#x3ba;" d="M112 0v1500h257v-582l551 582h320l-594 -635l594 -865h-293l-485 666l-93 -99v-567h-257z" />
<glyph unicode="&#x3bb;" horiz-adv-x="1303" d="M44 0h268l340 1146l338 -1146h269l-447 1500h-322z" />
<glyph unicode="&#x3bc;" horiz-adv-x="1660" d="M111 0v1500h369l350 -958l350 959h370l-1 -1501h-258v1089l-389 -1089h-143l-390 1088v-1088h-258z" />
<glyph unicode="&#x3bd;" d="M111 0v1500h377l444 -1094v1094h258v-1500h-375l-446 1092v-1092h-258z" />
<glyph unicode="&#x3be;" horiz-adv-x="1284" d="M111 0v258h1079v-258h-1079zM111 1242v258h1079v-258h-1079zM235 621v258h831v-258h-831z" />
<glyph unicode="&#x3bf;" d="M111 215l215 -215h649l215 215v1070l-215 215h-649l-215 -215v-1070zM369 345v810l87 87h389l87 -87v-810l-87 -87h-389z" />
<glyph unicode="&#x3c0;" d="M111 934v258h1079v-258h-110v-677h50v-257h-168l-120 120v814h-363v-934h-238v934h-130z" />
<glyph unicode="&#x3c1;" d="M111 0h258v621h606l215 215v449l-215 215h-864v-1500zM369 879v363h476l87 -87v-189l-87 -87h-476z" />
<glyph unicode="&#x3c2;" horiz-adv-x="1222" d="M111 1200v300h1000v-259h-674l433 -419v-143l-432 -421h673v-258h-999v299l448 451z" />
<glyph unicode="&#x3c3;" horiz-adv-x="1222" d="M111 1200v300h1000v-259h-674l433 -419v-143l-432 -421h673v-258h-999v299l448 451z" />
<glyph unicode="&#x3c4;" horiz-adv-x="1221" d="M111 1242v258h999v-258h-371v-1242h-258v1242h-370z" />
<glyph unicode="&#x3c5;" d="M72 1500l449 -850v-650h258v647l449 853h-284l-293 -554l-295 554h-284z" />
<glyph unicode="&#x3c6;" horiz-adv-x="1402" d="M111 341l215 -215h750l215 215v818l-215 215h-750l-215 -215v-818zM369 471v558l87 87h490l87 -87v-558l-87 -87h-490zM572 0h258v1500h-258v-1500z" />
<glyph unicode="&#x3c7;" d="M71 0h291l288 498l286 -498h292l-431 750l430 750h-294l-283 -494l-285 494h-294l432 -750z" />
<glyph unicode="&#x3c8;" horiz-adv-x="1402" d="M111 341l215 -215h750l215 215v1033h-258l1 -902l-88 -88h-490l-86 87v903h-259v-1033zM572 0h258v1500h-258v-1500z" />
<glyph unicode="&#x3c9;" d="M111 1285l1 -815l213 -213h-213v-257h444v384l-188 186v584l88 88h389l86 -87v-587l-186 -185l1 -383h444v258l-213 -1l213 214v814l-215 215h-649z" />
<glyph unicode="&#x410;" horiz-adv-x="1305" d="M45 0l447 1500h322l446 -1500h-268l-100 331h-480l-98 -331h-269zM486 589h332l-166 557z" />
<glyph unicode="&#x411;" d="M111 0v1500h954l1 -258h-697v-363h606l215 -215v-449l-215 -215h-864zM369 258h476l87 87v189l-87 87h-476v-363z" />
<glyph unicode="&#x412;" d="M111 0h864l215 215v401l-134 134l134 134v401l-215 215h-864v-1500zM369 258v363h476l87 -87v-189l-87 -87h-476zM369 879v363h476l87 -87v-189l-87 -87h-476z" />
<glyph unicode="&#x413;" horiz-adv-x="1221" d="M111 0h258v1242h741v258h-999v-1500z" />
<glyph unicode="&#x414;" horiz-adv-x="1431" d="M111 -165h258v165h693v-165h258v423h-103v1242h-785l-208 -1242h-113v-423zM485 258l173 984h301v-984h-474z" />
<glyph unicode="&#x415;" horiz-adv-x="1221" d="M111 0v1500h999v-258h-741v-363h578v-258h-578v-363h741v-258h-999z" />
<glyph unicode="&#x416;" horiz-adv-x="2171" d="M111 -1l594 866l-594 635h320l551 -582v582h257v-582l551 582h320l-594 -635l594 -865h-293l-485 666l-93 -99v-567h-257l1 568l-94 99l-485 -667z" />
<glyph unicode="&#x417;" d="M111 215l215 -215h649l215 215v401l-134 134l134 134v401l-215 215h-649l-215 -215v-250h258v121l87 86h390l86 -86l1 -190l-88 -87h-369v-258h370l86 -86l1 -189l-88 -88h-388l-88 87v120h-258v-250z" />
<glyph unicode="&#x418;" d="M111 0h375l446 1092v-1092h258v1500h-377l-444 -1094v1094h-258v-1500z" />
<glyph unicode="&#x419;" d="M111 0h375l446 1092v-1092h258v1500h-377l-444 -1094v1094h-258v-1500zM399 1806h147q-5 -70 24 -92.5t79 -22.5q49 0 78 22t24 93h147q10 -143 -66 -210.5t-183 -67.5q-105 0 -182.5 68t-67.5 210z" />
<glyph unicode="&#x41a;" d="M112 0v1500h257v-582l551 582h320l-594 -635l594 -865h-293l-485 666l-93 -99v-567h-257z" />
<glyph unicode="&#x41b;" horiz-adv-x="1301" d="M111 0v258h82l87 87v1155h910v-1500h-257l-1 1242h-394v-1027l-214 -215h-213z" />
<glyph unicode="&#x41c;" horiz-adv-x="1660" d="M111 0v1500h369l350 -958l350 959h370l-1 -1501h-258v1089l-389 -1089h-143l-390 1088v-1088h-258z" />
<glyph unicode="&#x41d;" d="M111 0v1500h258v-621h563v621h258v-1500h-258v621h-563v-621h-258z" />
<glyph unicode="&#x41e;" d="M111 215l215 -215h649l215 215v1070l-215 215h-649l-215 -215v-1070zM369 345v810l87 87h389l87 -87v-810l-87 -87h-389z" />
<glyph unicode="&#x41f;" d="M111 0v1500h1079v-1500h-258v1242h-563v-1242h-258z" />
<glyph unicode="&#x420;" d="M111 0h258v621h606l215 215v449l-215 215h-864v-1500zM369 879v363h476l87 -87v-189l-87 -87h-476z" />
<glyph unicode="&#x421;" d="M111 215l215 -215h649l215 215v272h-258v-141l-87 -88h-389l-86 87v810l87 88h388l87 -88v-141h258v271l-215 215h-649l-215 -215v-1070z" />
<glyph unicode="&#x422;" horiz-adv-x="1221" d="M111 1242v258h999v-258h-371v-1242h-258v1242h-370z" />
<glyph unicode="&#x423;" horiz-adv-x="1303" d="M44 1500h279l329 -816l329 816h278l-605 -1500h-359v258h185l32 79z" />
<glyph unicode="&#x424;" horiz-adv-x="1402" d="M111 341l215 -215h750l215 215v818l-215 215h-750l-215 -215v-818zM369 471v558l87 87h490l87 -87v-558l-87 -87h-490zM572 0h258v1500h-258v-1500z" />
<glyph unicode="&#x425;" d="M71 0h291l288 498l286 -498h292l-431 750l430 750h-294l-283 -494l-285 494h-294l432 -750z" />
<glyph unicode="&#x426;" horiz-adv-x="1404" d="M111 0h924l1 -165h258l-1 423h-103v1242h-258v-1242h-563v1242h-258v-1500z" />
<glyph unicode="&#x427;" d="M111 836l215 -215h606v-621h258v1500h-258v-621h-476l-86 87v534h-259v-664z" />
<glyph unicode="&#x428;" horiz-adv-x="1869" d="M111 0h1647v1500h-258v-1242h-436v1242h-258v-1242h-436v1242h-259v-1500z" />
<glyph unicode="&#x429;" horiz-adv-x="1972" d="M111 1500l1 -1500h1491l1 -165h257v423h-103v1242h-258v-1242h-436v1242h-258v-1242h-436v1242h-259z" />
<glyph unicode="&#x42a;" horiz-adv-x="1577" d="M111 1242v258h534v-621h606l215 -215v-449l-215 -215h-864v1242h-276zM645 258h476l87 87v189l-87 87h-476v-363z" />
<glyph unicode="&#x42b;" horiz-adv-x="1690" d="M111 0v1500h258v-621h606l215 -215v-449l-215 -215h-864zM369 258h476l87 87v189l-87 87h-476v-363zM1321 0v1500h258v-1500h-258z" />
<glyph unicode="&#x42c;" d="M111 0v1500h258v-621h606l215 -215v-449l-215 -215h-864zM369 258h476l87 87v189l-87 87h-476v-363z" />
<glyph unicode="&#x42d;" d="M111 215v272h258v-141l87 -88h389l88 87v276h-313v258h313v275l-89 89h-388l-87 -88v-141h-258v271l215 215h649l215 -215v-1070l-215 -215h-649z" />
<glyph unicode="&#x42e;" horiz-adv-x="1687" d="M111 0h258v621l128 1v-407l215 -215h649l215 215v1070l-215 215h-649l-215 -215v-405h-128v620h-258v-1500zM755 345v810l87 87h389l87 -87v-810l-87 -87h-389z" />
<glyph unicode="&#x42f;" d="M111 0l216 621l-215 215v449l215 215h864v-1500h-258v621h-333l-215 -621h-274zM370 966l87 -87h476v363h-476l-87 -87v-189z" />
<glyph unicode="&#x430;" horiz-adv-x="1305" d="M45 0l447 1500h322l446 -1500h-268l-100 331h-480l-98 -331h-269zM486 589h332l-166 557z" />
<glyph unicode="&#x431;" d="M111 0v1500h954l1 -258h-697v-363h606l215 -215v-449l-215 -215h-864zM369 258h476l87 87v189l-87 87h-476v-363z" />
<glyph unicode="&#x432;" d="M111 0h864l215 215v401l-134 134l134 134v401l-215 215h-864v-1500zM369 258v363h476l87 -87v-189l-87 -87h-476zM369 879v363h476l87 -87v-189l-87 -87h-476z" />
<glyph unicode="&#x433;" horiz-adv-x="1221" d="M111 0h258v1242h741v258h-999v-1500z" />
<glyph unicode="&#x434;" horiz-adv-x="1431" d="M111 -165h258v165h693v-165h258v423h-103v1242h-785l-208 -1242h-113v-423zM485 258l173 984h301v-984h-474z" />
<glyph unicode="&#x435;" horiz-adv-x="1221" d="M111 0v1500h999v-258h-741v-363h578v-258h-578v-363h741v-258h-999z" />
<glyph unicode="&#x436;" horiz-adv-x="2171" d="M111 -1l594 866l-594 635h320l551 -582v582h257v-582l551 582h320l-594 -635l594 -865h-293l-485 666l-93 -99v-567h-257l1 568l-94 99l-485 -667z" />
<glyph unicode="&#x437;" d="M111 215l215 -215h649l215 215v401l-134 134l134 134v401l-215 215h-649l-215 -215v-250h258v121l87 86h390l86 -86l1 -190l-88 -87h-369v-258h370l86 -86l1 -189l-88 -88h-388l-88 87v120h-258v-250z" />
<glyph unicode="&#x438;" d="M111 0h375l446 1092v-1092h258v1500h-377l-444 -1094v1094h-258v-1500z" />
<glyph unicode="&#x439;" d="M111 0h375l446 1092v-1092h258v1500h-377l-444 -1094v1094h-258v-1500zM399 1806h147q-5 -70 24 -92.5t79 -22.5q49 0 78 22t24 93h147q10 -143 -66 -210.5t-183 -67.5q-105 0 -182.5 68t-67.5 210z" />
<glyph unicode="&#x43a;" d="M112 0v1500h257v-582l551 582h320l-594 -635l594 -865h-293l-485 666l-93 -99v-567h-257z" />
<glyph unicode="&#x43b;" horiz-adv-x="1301" d="M111 0v258h82l87 87v1155h910v-1500h-257l-1 1242h-394v-1027l-214 -215h-213z" />
<glyph unicode="&#x43c;" horiz-adv-x="1660" d="M111 0v1500h369l350 -958l350 959h370l-1 -1501h-258v1089l-389 -1089h-143l-390 1088v-1088h-258z" />
<glyph unicode="&#x43d;" d="M111 0v1500h258v-621h563v621h258v-1500h-258v621h-563v-621h-258z" />
<glyph unicode="&#x43e;" d="M111 215l215 -215h649l215 215v1070l-215 215h-649l-215 -215v-1070zM369 345v810l87 87h389l87 -87v-810l-87 -87h-389z" />
<glyph unicode="&#x43f;" d="M111 0v1500h1079v-1500h-258v1242h-563v-1242h-258z" />
<glyph unicode="&#x440;" d="M111 0h258v621h606l215 215v449l-215 215h-864v-1500zM369 879v363h476l87 -87v-189l-87 -87h-476z" />
<glyph unicode="&#x441;" d="M111 215l215 -215h649l215 215v272h-258v-141l-87 -88h-389l-86 87v810l87 88h388l87 -88v-141h258v271l-215 215h-649l-215 -215v-1070z" />
<glyph unicode="&#x442;" horiz-adv-x="1221" d="M111 1242v258h999v-258h-371v-1242h-258v1242h-370z" />
<glyph unicode="&#x443;" horiz-adv-x="1303" d="M44 1500h279l329 -816l329 816h278l-605 -1500h-359v258h185l32 79z" />
<glyph unicode="&#x444;" horiz-adv-x="1402" d="M111 341l215 -215h750l215 215v818l-215 215h-750l-215 -215v-818zM369 471v558l87 87h490l87 -87v-558l-87 -87h-490zM572 0h258v1500h-258v-1500z" />
<glyph unicode="&#x445;" d="M71 0h291l288 498l286 -498h292l-431 750l430 750h-294l-283 -494l-285 494h-294l432 -750z" />
<glyph unicode="&#x446;" horiz-adv-x="1404" d="M111 0h924l1 -165h258l-1 423h-103v1242h-258v-1242h-563v1242h-258v-1500z" />
<glyph unicode="&#x447;" d="M111 836l215 -215h606v-621h258v1500h-258v-621h-476l-86 87v534h-259v-664z" />
<glyph unicode="&#x448;" horiz-adv-x="1869" d="M111 0h1647v1500h-258v-1242h-436v1242h-258v-1242h-436v1242h-259v-1500z" />
<glyph unicode="&#x449;" horiz-adv-x="1972" d="M111 1500l1 -1500h1491l1 -165h257v423h-103v1242h-258v-1242h-436v1242h-258v-1242h-436v1242h-259z" />
<glyph unicode="&#x44a;" horiz-adv-x="1577" d="M111 1242v258h534v-621h606l215 -215v-449l-215 -215h-864v1242h-276zM645 258h476l87 87v189l-87 87h-476v-363z" />
<glyph unicode="&#x44b;" horiz-adv-x="1690" d="M111 0v1500h258v-621h606l215 -215v-449l-215 -215h-864zM369 258h476l87 87v189l-87 87h-476v-363zM1321 0v1500h258v-1500h-258z" />
<glyph unicode="&#x44c;" d="M111 0v1500h258v-621h606l215 -215v-449l-215 -215h-864zM369 258h476l87 87v189l-87 87h-476v-363z" />
<glyph unicode="&#x44d;" d="M111 215v272h258v-141l87 -88h389l88 87v276h-313v258h313v275l-89 89h-388l-87 -88v-141h-258v271l215 215h649l215 -215v-1070l-215 -215h-649z" />
<glyph unicode="&#x44e;" horiz-adv-x="1687" d="M111 0h258v621l128 1v-407l215 -215h649l215 215v1070l-215 215h-649l-215 -215v-405h-128v620h-258v-1500zM755 345v810l87 87h389l87 -87v-810l-87 -87h-389z" />
<glyph unicode="&#x44f;" d="M111 0l216 621l-215 215v449l215 215h864v-1500h-258v621h-333l-215 -621h-274zM370 966l87 -87h476v363h-476l-87 -87v-189z" />
<glyph unicode="&#x5d0;" d="M71 1500l284 -493h-32l-213 -215v-792h258v662l87 88l47 -1l434 -749h292l-283 492h30l214 216v792h-258v-662l-87 -88h-47l-432 750h-294z" />
<glyph unicode="&#x5d1;" horiz-adv-x="1373" d="M111 0v258h771v897l-86 87h-685v258h814l215 -215v-1027h122l-1 -258h-1150z" />
<glyph unicode="&#x5d2;" horiz-adv-x="1051" d="M74 0l472 841v314l-86 87h-328v258h457l215 -215v-665l173 -620h-256l-135 393l-219 -393h-293z" />
<glyph unicode="&#x5d3;" horiz-adv-x="1373" d="M111 1242h771v-1242h258v1242h122l-1 258h-1150v-258z" />
<glyph unicode="&#x5d4;" horiz-adv-x="1301" d="M111 0v879h258v-879h-258zM111 1242v258h864l215 -215v-1285h-258v1155l-86 87h-735z" />
<glyph unicode="&#x5d5;" horiz-adv-x="740" d="M111 1242v258h303l215 -215v-1285h-258v1155l-86 87h-174z" />
<glyph unicode="&#x5d6;" horiz-adv-x="1097" d="M111 1242v258h875v-258h-51l-346 -345v-897h-258v1027l215 215h-435z" />
<glyph unicode="&#x5d7;" horiz-adv-x="1301" d="M111 0v1500h864l215 -215v-1285h-258v1155l-86 87h-476l-1 -1242h-258z" />
<glyph unicode="&#x5d8;" d="M111 215l215 -215h649l215 215v1070l-215 215h-303l1 -258h173l86 -87v-809l-87 -88h-389l-86 87v1155h-259v-1285z" />
<glyph unicode="&#x5d9;" horiz-adv-x="740" d="M111 1242v258h303l215 -215v-670h-258v540l-86 87h-174z" />
<glyph unicode="&#x5da;" horiz-adv-x="1251" d="M111 1242v258h814l215 -215v-1511h-258v1381l-86 87h-685z" />
<glyph unicode="&#x5db;" horiz-adv-x="1251" d="M111 0v258h684l86 87v810l-87 87h-683v258h814l215 -215v-1070l-215 -215h-814z" />
<glyph unicode="&#x5dc;" d="M111 1242v548h258v-290h821v-801l-445 -445v-254h-258v360l445 445v437h-821z" />
<glyph unicode="&#x5dd;" d="M111 0h1079v1285l-215 215h-864v-1500zM369 258v984h476l87 -87v-897h-563z" />
<glyph unicode="&#x5de;" horiz-adv-x="1368" d="M72 1366l219 134l73 -120l120 120h558l215 -215v-1285h-647v258h390v896l-88 88h-298l-86 -87l-141 -1155h-259l119 1081z" />
<glyph unicode="&#x5df;" horiz-adv-x="740" d="M111 1242v258h303l215 -215v-1511h-258v1381l-86 87h-174z" />
<glyph unicode="&#x5e0;" horiz-adv-x="894" d="M111 0v258h414v897l-86 87h-173v258h302l215 -215v-1285h-672z" />
<glyph unicode="&#x5e1;" horiz-adv-x="1362" d="M61 1242h111v-1027l215 -215h649l215 215v1070l-215 215h-975v-258zM430 345v897h476l87 -87v-810l-87 -87h-389z" />
<glyph unicode="&#x5e2;" horiz-adv-x="1303" d="M44 1500h273l378 -1089l239 238l-1 851h257v-960l-542 -540h-488l1 258h313z" />
<glyph unicode="&#x5e3;" horiz-adv-x="1301" d="M111 836v664h864l215 -215v-1511h-258v1381l-86 87h-476v-275l86 -88h204l1 -257h-334z" />
<glyph unicode="&#x5e4;" horiz-adv-x="1301" d="M111 259l734 -1l88 88v809l-87 87h-476v-275l86 -88h204l1 -257h-334l-216 214v664h864l215 -215v-1070l-215 -215h-863z" />
<glyph unicode="&#x5e5;" horiz-adv-x="1258" d="M68 1500l545 -1051v-675h258v738l-42 82l319 318l-1 588h-257v-478l-186 -188l-343 666h-293z" />
<glyph unicode="&#x5e6;" horiz-adv-x="1301" d="M111 0h934v258l-173 336l318 318v588h-257v-478l-187 -187l-344 665h-291l646 -1242h-645z" />
<glyph unicode="&#x5e7;" d="M111 -227v1106h258v-1106h-258zM111 1242v258h1079v-801l-445 -445v-254h-258v360l445 445v437h-821z" />
<glyph unicode="&#x5e8;" horiz-adv-x="1251" d="M111 1242v258h814l215 -215v-1285h-258v1155l-86 87h-685z" />
<glyph unicode="&#x5e9;" horiz-adv-x="1513" d="M111 0h1076l215 215v1285h-258v-1155l-86 -87h-300l134 134l-1 1108h-257v-978l-265 -264v1242h-258v-1500z" />
<glyph unicode="&#x5ea;" horiz-adv-x="1368" d="M59 1v257h73l87 87l-1 897h-158v258h981l215 -215v-1285h-258v1155l-86 87h-436l1 -1027l-215 -215z" />
<glyph unicode="&#x2000;" horiz-adv-x="916" />
<glyph unicode="&#x2001;" horiz-adv-x="1833" />
<glyph unicode="&#x2002;" horiz-adv-x="916" />
<glyph unicode="&#x2003;" horiz-adv-x="1833" />
<glyph unicode="&#x2004;" horiz-adv-x="611" />
<glyph unicode="&#x2005;" horiz-adv-x="458" />
<glyph unicode="&#x2006;" horiz-adv-x="305" />
<glyph unicode="&#x2007;" horiz-adv-x="305" />
<glyph unicode="&#x2008;" horiz-adv-x="229" />
<glyph unicode="&#x2009;" horiz-adv-x="366" />
<glyph unicode="&#x200a;" horiz-adv-x="101" />
<glyph unicode="&#x2010;" horiz-adv-x="761" d="M176 621v258h410v-258h-410z" />
<glyph unicode="&#x2011;" horiz-adv-x="761" d="M176 621v258h410v-258h-410z" />
<glyph unicode="&#x2012;" horiz-adv-x="761" d="M176 621v258h410v-258h-410z" />
<glyph unicode="&#x2013;" d="M111 621v258h1079v-258h-1079z" />
<glyph unicode="&#x2014;" horiz-adv-x="1661" d="M111 621v258h1439v-258h-1439z" />
<glyph unicode="&#x2018;" horiz-adv-x="499" d="M111 1001v277l142 220l117 -76l-96 -144h114v-277h-277z" />
<glyph unicode="&#x2019;" horiz-adv-x="499" d="M111 1222v277h277v-277l-142 -220l-117 76l96 144h-114z" />
<glyph unicode="&#x201a;" horiz-adv-x="499" d="M111 65v277h277v-277l-142 -220l-117 76l96 144h-114z" />
<glyph unicode="&#x201c;" horiz-adv-x="868" d="M111 1002v277l142 220l117 -76l-96 -144h114v-277h-277zM480 1002v277l142 220l117 -76l-96 -144h114v-277h-277z" />
<glyph unicode="&#x201d;" horiz-adv-x="868" d="M111 1221v277h277v-277l-142 -220l-117 76l96 144h-114zM480 1221v277h277v-277l-142 -220l-117 76l96 144h-114z" />
<glyph unicode="&#x201e;" horiz-adv-x="868" d="M111 65v277h277v-277l-142 -220l-117 76l96 144h-114zM480 65v277h277v-277l-142 -220l-117 76l96 144h-114z" />
<glyph unicode="&#x2020;" horiz-adv-x="984" d="M99 1045q0 62 33 90t78 28q38 0 113 -35.5t113 -34.5q3 66 -22 151q-28 56 -35.5 80t-7.5 49q0 54 35 87.5t83 33.5q49 0 85.5 -32.5t36.5 -88.5q0 -29 -8 -53t-36.5 -74.5t-20.5 -89.5q-9 -27 -4 -63q25 -7 46.5 1.5t82.5 39.5q42 21 52 25q21 5 45 5q50 0 83.5 -29 t33.5 -92q0 -60 -33 -88t-79 -28q-25 0 -49 6q-14 5 -78 36.5t-104 26.5q13 -110 83 -187q-76 -375 -103 -810h-66q-26 435 -101 810q56 77 69.5 101.5t11.5 85.5q-13 5 -35 -1q-32 -10 -91 -39.5t-97 -29.5q-47 0 -80.5 29t-33.5 90z" />
<glyph unicode="&#x2021;" horiz-adv-x="987" d="M99 264q0 60 33 88t79 28q25 0 49 -6q14 -5 78 -36.5t104 -26.5q-13 110 -83 187q105 265 10 475h248q-94 -210 12 -475q-56 -77 -69.5 -101.5t-11.5 -85.5q13 -5 35 1q32 10 91 39.5t97 29.5q47 0 80.5 -29t33.5 -90q0 -62 -33 -90t-78 -28q-38 0 -113 35.5t-113 34.5 q-3 -66 22 -151q28 -56 35.5 -80t7.5 -49q0 -54 -35 -87.5t-83 -33.5q-49 0 -85.5 32.5t-36.5 88.5q0 29 8 53t36.5 74.5t20.5 89.5q9 27 4 63q-25 7 -46.5 -1.5t-82.5 -39.5q-42 -21 -52 -25q-21 -5 -45 -5q-50 0 -83.5 29t-33.5 92zM102 1255q0 62 33 90t78 28 q38 0 113 -35.5t113 -34.5q3 66 -22 151q-28 56 -35.5 80t-7.5 49q0 54 35 87.5t83 33.5q49 0 85.5 -32.5t36.5 -88.5q0 -29 -8 -53t-36.5 -74.5t-20.5 -89.5q-9 -27 -4 -63q25 -7 46.5 1.5t82.5 39.5q42 21 52 25q21 5 45 5q50 0 83.5 -29t33.5 -92q0 -60 -33 -88t-79 -28 q-25 0 -49 6q-14 5 -78 36.5t-104 26.5q13 -110 83 -187q-106 -275 -9 -478h-250q94 203 -11 478q56 77 69.5 101.5t11.5 85.5q-13 5 -35 -1q-32 -10 -91 -39.5t-97 -29.5q-47 0 -80.5 29t-33.5 90z" />
<glyph unicode="&#x2022;" horiz-adv-x="744" d="M111 760q0 104 81.5 182t189.5 78q105 0 177.5 -73.5t72.5 -184.5t-76.5 -187t-184.5 -76q-105 0 -182.5 77t-77.5 184z" />
<glyph unicode="&#x2026;" horiz-adv-x="1558" d="M111 0v258h258v-258h-258zM650 0v258h258v-258h-258zM1189 0v258h258v-258h-258z" />
<glyph unicode="&#x202f;" horiz-adv-x="366" />
<glyph unicode="&#x2030;" horiz-adv-x="2103" d="M111 1143q0 119 92.5 208t215.5 89q120 0 202.5 -83.5t82.5 -210.5t-87 -213.5t-210 -86.5q-119 0 -207.5 87.5t-88.5 209.5zM214 410l896 898l182 -182l-896 -897zM309 1143q0 -41 29 -70t69 -29q41 0 69.5 28.5t28.5 71.5q0 42 -27 70t-67 28q-41 0 -71.5 -30 t-30.5 -69zM763 361q0 119 92.5 208t215.5 89q120 0 202.5 -83.5t82.5 -210.5t-87 -213.5t-210 -86.5q-119 0 -207.5 87.5t-88.5 209.5zM961 361q0 -41 29 -70t69 -29q41 0 69.5 28.5t28.5 71.5q0 42 -27 70t-67 28q-41 0 -71.5 -30t-30.5 -69zM1399 361q0 119 92.5 208 t215.5 89q120 0 202.5 -83.5t82.5 -210.5t-87 -213.5t-210 -86.5q-119 0 -207.5 87.5t-88.5 209.5zM1597 361q0 -41 29 -70t69 -29q41 0 69.5 28.5t28.5 71.5q0 42 -27 70t-67 28q-41 0 -71.5 -30t-30.5 -69z" />
<glyph unicode="&#x2039;" horiz-adv-x="650" d="M34 445l443 445l139 -138l-307 -307l307 -307l-139 -138z" />
<glyph unicode="&#x203a;" horiz-adv-x="650" d="M34 138l139 -138l443 445l-443 445l-139 -138l307 -307z" />
<glyph unicode="&#x2044;" d="M111 392l896 898l182 -182l-896 -897z" />
<glyph unicode="&#x205f;" horiz-adv-x="458" />
<glyph unicode="&#x20ac;" d="M1 649h224q-2 -35 1 -69h-165l-59 -149h243q36 -139 193 -288t413 -151q259 3 402 146v252q-165 -235 -406 -237q-170 2 -286 99.5t-140 178.5h616l59 149h-706q-4 36 0 69h733l60 149h-766q45 112 168.5 191t285.5 80q87 0 174 -24.5t191 -121.5l61 158 q-170 168 -424 168q-244 -1 -418.5 -150.5t-213.5 -300.5h-180z" />
<glyph unicode="&#x2122;" horiz-adv-x="1476" d="M111 1376v124h481v-124h-178v-599h-125v599h-178zM673 778v722h178l168 -461l169 461h177v-722h-124v524l-187 -524h-69l-188 523v-523h-124z" />
<glyph unicode="&#x2202;" horiz-adv-x="1188" d="M111 215v629l215 215l493 1v96l-88 87h-195v257h326l215 -215v-1070l-215 -215h-536zM369 345l87 -87h276l87 87v456h-363l-87 -87v-369z" />
<glyph unicode="&#x2206;" horiz-adv-x="1305" d="M45 0l447 1500h322l446 -1500h-1215zM390 257h524l-262 889z" />
<glyph unicode="&#x220f;" d="M111 0v1500h1079v-1500h-258v1242h-563v-1242h-258z" />
<glyph unicode="&#x2211;" horiz-adv-x="1222" d="M111 1200v300h1000v-259h-674l433 -419v-143l-432 -421h673v-258h-999v299l448 451z" />
<glyph unicode="&#x221a;" horiz-adv-x="1238" d="M72 731l377 189l115 -375l300 955h263v-221h-96l-419 -1282h-184l-188 593l-104 -41z" />
<glyph unicode="&#x221e;" d="M111 565l155 -155h288l96 96l97 -96h288l155 155v373l-155 155h-288l-97 -96l-96 96h-288l-155 -155v-373zM317 678v147l62 62h106l63 -62v-147l-63 -62h-106zM753 678v147l63 62h106l62 -62v-147l-62 -62h-106z" />
<glyph unicode="&#x222b;" horiz-adv-x="891" d="M111 -120h255l215 215v1180l88 88h111v257h-242l-215 -215v-1179l-87 -89h-125v-257z" />
<glyph unicode="&#x2248;" horiz-adv-x="1132" d="M111 532l30 44q30 47 99 106.5t165 59.5t206 -89q48 -36 83 -42q38 -5 65.5 6.5t65.5 50.5l41 56l155 -144l-37 -55q-39 -58 -96.5 -106.5t-152.5 -48.5q-83 0 -218 90q-56 41 -104 41q-53 -2 -79.5 -23.5t-71.5 -93.5zM111 932l30 44q30 47 99 106.5t165 59.5t206 -89 q48 -36 83 -42q38 -5 65.5 6.5t65.5 50.5l41 56l155 -144l-37 -55q-39 -58 -96.5 -106.5t-152.5 -48.5q-83 0 -218 90q-56 41 -104 41q-53 -2 -79.5 -23.5t-71.5 -93.5z" />
<glyph unicode="&#x2260;" horiz-adv-x="1197" d="M111 403v258h975v-258h-975zM111 839v258h975v-258h-975zM192 294l606 1034l222 -130l-606 -1033z" />
<glyph unicode="&#x2264;" horiz-adv-x="1051" d="M111 0v238h829v-238h-829zM112 931l628 630l183 -182l-449 -449l449 -448l-183 -182z" />
<glyph unicode="&#x2265;" horiz-adv-x="1050" d="M110 0h829v238h-829v-238zM127 482l183 -182l628 631l-628 630l-183 -182l449 -449z" />
<glyph unicode="&#x25ca;" horiz-adv-x="1104" d="M111 748l353 -684h176l353 684l-353 683h-176zM358 746l192 386l196 -386l-196 -383z" />
<glyph unicode="&#xe000;" horiz-adv-x="1500" d="M0 0v1500h1500v-1500h-1500z" />
</font>
</defs>
</svg>
