<?xml version="1.0" standalone="no"?>
<!DOCTYPE svg PUBLIC "-//W3C//DTD SVG 1.1//EN" "http://www.w3.org/Graphics/SVG/1.1/DTD/svg11.dtd" >
<svg xmlns="http://www.w3.org/2000/svg">
<metadata></metadata>
<defs>
<font id="nokregular_expanded" horiz-adv-x="1159" >
<font-face units-per-em="2048" ascent="1638" descent="-410" />
<missing-glyph horiz-adv-x="550" />
<glyph horiz-adv-x="2048" />
<glyph horiz-adv-x="2048" />
<glyph unicode="&#xd;" horiz-adv-x="2048" />
<glyph unicode=" "  horiz-adv-x="550" />
<glyph unicode="&#x09;" horiz-adv-x="550" />
<glyph unicode="&#xa0;" horiz-adv-x="550" />
<glyph unicode="!" horiz-adv-x="489" d="M172 0v156h147v-156h-147zM176 326v1040h141v-1040h-141z" />
<glyph unicode="&#x22;" horiz-adv-x="819" d="M172 1427h158l-25 -342h-106zM492 1427h157l-24 -342h-109z" />
<glyph unicode="#" horiz-adv-x="1290" d="M172 463l23 112h155l43 216h-155l20 112h156l80 402h141l-80 -402h268l80 402h141l-79 -402h155l-20 -112h-156l-43 -216h156l-23 -112h-155l-80 -402h-142l80 402h-268l-80 -402h-141l80 402h-156zM492 575h268l43 216h-268z" />
<glyph unicode="$" horiz-adv-x="1167" d="M172 270v92h133v-92q0 -54 43 -90.5t107 -36.5h256q66 0 109.5 36.5t43.5 90.5v193q0 30 -18.5 55.5t-43 42t-64 32t-66 22.5t-65 16.5t-46.5 11.5q-15 5 -55 16t-64 18t-63 21t-63.5 26t-54.5 31t-47 38.5t-28.5 46t-11.5 55.5l-2 10v182q0 95 82.5 162.5t200.5 67.5h57 v196h147v-196h52q120 0 203 -67t83 -163v-92h-133v92q0 54 -42.5 90.5t-106.5 36.5h-256q-66 0 -110 -36.5t-44 -90.5v-151q0 -35 17.5 -64t41 -47t60.5 -34.5t63 -24t63.5 -17t47.5 -12.5q23 -7 68.5 -20t71 -20.5t65.5 -21.5t63.5 -25t51.5 -27.5t43 -33t25.5 -38.5 t10.5 -47v-234q0 -95 -82 -162t-200 -67h-56v-197h-147v197h-53q-120 0 -203.5 67t-83.5 162z" />
<glyph unicode="%" horiz-adv-x="1976" d="M172 903v234q0 95 87.5 162t211.5 67h92q124 0 211.5 -67t87.5 -162v-234q0 -95 -87.5 -162t-211.5 -67h-92q-124 0 -211.5 67t-87.5 162zM311 903q0 -54 45.5 -90.5t114.5 -36.5h92q69 0 113.5 36.5t44.5 90.5v234q0 54 -44.5 90.5t-113.5 36.5h-92q-69 0 -114.5 -36.5 t-45.5 -90.5v-234zM522 0l797 1421h154l-797 -1421h-154zM1116 229v234q0 95 87.5 162t211.5 67h92q124 0 211.5 -67t87.5 -162v-234q0 -95 -87.5 -162t-211.5 -67h-92q-124 0 -211.5 67t-87.5 162zM1257 229q0 -54 44.5 -90.5t113.5 -36.5h92q69 0 114.5 36.5t45.5 90.5 v234q0 54 -45.5 90.5t-114.5 36.5h-92q-69 0 -113.5 -36.5t-44.5 -90.5v-234z" />
<glyph unicode="&#x26;" horiz-adv-x="1196" d="M172 229v316q0 53 39.5 103.5t97.5 74.5q-58 23 -97.5 75t-39.5 105v234q0 95 87.5 162t211.5 67h117q126 0 214.5 -67t88.5 -162v-15h-143v15h2q0 54 -44.5 90.5t-113.5 36.5h-119q-69 0 -115.5 -36.5t-46.5 -90.5v-234q0 -54 45.5 -90.5t114.5 -36.5h328v74h143v-74h84 v-104h-84v-443q0 -95 -87.5 -162t-211.5 -67h-170q-125 0 -213 67t-88 162zM311 229q0 -54 45.5 -90.5t114.5 -36.5h168q69 0 114.5 36.5t45.5 90.5v443h-326q-69 0 -115.5 -36.5t-46.5 -90.5v-316z" />
<glyph unicode="'" horiz-adv-x="499" d="M172 1427h158l-25 -342h-106z" />
<glyph unicode="(" horiz-adv-x="686" d="M172 -16v1214q0 105 94.5 177.5t229.5 72.5h20v-102h-20q-80 0 -132.5 -42t-52.5 -106v-1214q0 -64 52.5 -106t132.5 -42h20v-102h-20q-135 0 -229.5 72.5t-94.5 177.5z" />
<glyph unicode=")" horiz-adv-x="686" d="M172 -164h21q80 0 132 42t52 106v1214q0 64 -52 106t-132 42h-21v102h21q135 0 229 -72.5t94 -177.5v-1214q0 -105 -94 -177.5t-229 -72.5h-21v102z" />
<glyph unicode="*" horiz-adv-x="1146" d="M172 899l311 125l-311 125l64 92l294 -156l-24 281h133l-21 -281l293 156l66 -92l-313 -125l313 -125l-66 -92l-293 156l21 -281h-133l24 281l-294 -156z" />
<glyph unicode="+" horiz-adv-x="1300" d="M172 631v112h410v328h139v-328h409v-112h-409v-328h-139v328h-410z" />
<glyph unicode="," horiz-adv-x="540" d="M172 0v176h199v-176q0 -2 -27 -57t-55.5 -113.5t-30.5 -65.5h-53l63 236h-96z" />
<glyph unicode="-" horiz-adv-x="1028" d="M172 590v112h688v-112h-688z" />
<glyph unicode="." horiz-adv-x="542" d="M172 0v176h201v-176h-201z" />
<glyph unicode="/" horiz-adv-x="964" d="M8 0l795 1421h153l-794 -1421h-154z" />
<glyph unicode="0" d="M172 250v866q0 105 94.5 177.5t229.5 72.5h170q143 0 234 -72.5t91 -177.5v-866q0 -105 -90.5 -177.5t-234.5 -72.5h-170q-135 0 -229.5 72.5t-94.5 177.5zM311 250q0 -64 52.5 -106t132.5 -42h170q89 0 136.5 42t47.5 106v866q0 64 -47.5 106t-136.5 42h-170 q-80 0 -132.5 -42t-52.5 -106v-866z" />
<glyph unicode="1" horiz-adv-x="694" d="M172 1122v101l289 143h63v-1366h-141v1206z" />
<glyph unicode="2" d="M172 0v451q0 22 7.5 41.5t24 36t34 30.5t46.5 27t52.5 22.5t61 21t63 18.5t67 18t64.5 18q6 2 38 10.5t48 14t47 17.5t49 25.5t38 32.5t29 44t9 55v254q0 54 -45.5 90.5t-114.5 36.5h-219q-69 0 -114.5 -36.5t-45.5 -90.5v-93h-139v93q0 95 87.5 162t211.5 67h219 q126 0 213.5 -67t87.5 -162v-295q0 -44 -21 -80t-54.5 -60.5t-78 -44.5t-88.5 -34t-89 -26q-9 -2 -15 -3.5t-12 -3.5q-9 -2 -49 -11.5t-69 -16.5t-70.5 -22.5t-68 -32t-46 -42t-19.5 -55.5v-310h674v-100h-813z" />
<glyph unicode="3" horiz-adv-x="1161" d="M172 229v109h143v-109q0 -54 44.5 -90.5t113.5 -36.5h221q69 0 113.5 36.5t44.5 90.5v316q0 54 -46.5 90.5t-115.5 36.5h-219v104h223q69 0 113.5 36.5t44.5 90.5v234q0 54 -46.5 90.5t-115.5 36.5h-219q-69 0 -114.5 -36.5t-45.5 -90.5h4v-117h-143v117q0 95 88 162 t213 67h221q124 0 211.5 -67t87.5 -162v-234q0 -54 -40 -105.5t-99 -74.5q59 -23 99 -74t40 -104v-316q0 -95 -88.5 -162t-214.5 -67h-219q-124 0 -211.5 67t-87.5 162z" />
<glyph unicode="4" horiz-adv-x="1335" d="M172 328l475 1038h135l-426 -938h445v553h125v-553h241v-100h-241v-328h-125v328h-629z" />
<glyph unicode="5" horiz-adv-x="1161" d="M172 229v101h139v-101q0 -54 45.5 -90.5t114.5 -36.5h219q69 0 115.5 36.5t46.5 90.5v396q0 54 -44.5 90.5t-113.5 36.5h-508v614h789v-100h-666v-412h381q126 0 214.5 -67t88.5 -162v-396q0 -95 -87.5 -162t-211.5 -67h-221q-125 0 -213 67t-88 162z" />
<glyph unicode="6" d="M172 229v908q0 95 87.5 162t211.5 67h219q126 0 213.5 -67t87.5 -162v-52h-141v52q0 54 -45.5 90.5t-114.5 36.5h-219q-69 0 -114.5 -36.5t-45.5 -90.5v-357q23 24 69 40t91 16h219q126 0 213.5 -67.5t87.5 -162.5v-377q0 -95 -87.5 -162t-213.5 -67h-219 q-124 0 -211.5 67t-87.5 162zM311 229q0 -54 45.5 -90.5t114.5 -36.5h219q69 0 114.5 36.5t45.5 90.5v377q0 54 -45.5 90.5t-114.5 36.5h-219q-69 0 -114.5 -36.5t-45.5 -90.5v-377z" />
<glyph unicode="7" horiz-adv-x="1239" d="M172 1260v106h897l-522 -1366h-156l483 1260h-702z" />
<glyph unicode="8" horiz-adv-x="1161" d="M172 229v316q0 55 39 106.5t98 71.5q-65 22 -101 72.5t-36 107.5v234q0 95 87.5 162t211.5 67h219q126 0 214.5 -67t88.5 -162v-234q0 -54 -40 -105t-99 -73q59 -25 99 -76t40 -104v-316q0 -95 -87.5 -162t-211.5 -67h-221q-125 0 -213 67t-88 162zM311 229 q0 -54 45.5 -90.5t114.5 -36.5h219q69 0 115.5 36.5t46.5 90.5v316q0 54 -44.5 90.5t-113.5 36.5h-221q-69 0 -115.5 -36.5t-46.5 -90.5v-316zM311 903q0 -54 45.5 -90.5t114.5 -36.5h219q69 0 115.5 36.5t46.5 90.5v234q0 55 -45.5 91t-116.5 36h-217q-69 0 -115.5 -36.5 t-46.5 -90.5v-234z" />
<glyph unicode="9" d="M172 229v52h139v-52q0 -54 45.5 -90.5t114.5 -36.5h219q69 0 114.5 36.5t45.5 90.5v336q-23 -24 -69 -39.5t-91 -15.5h-219q-124 0 -211.5 67t-87.5 162v398q0 95 87.5 162t211.5 67h219q126 0 213.5 -67t87.5 -162v-908q0 -95 -87.5 -162t-213.5 -67h-219 q-124 0 -211.5 67t-87.5 162zM311 739q0 -54 45.5 -90.5t114.5 -36.5h219q69 0 114.5 36.5t45.5 90.5v398q0 54 -45.5 90.5t-114.5 36.5h-219q-69 0 -114.5 -36.5t-45.5 -90.5v-398z" />
<glyph unicode=":" horiz-adv-x="542" d="M172 0v176h201v-176h-201zM172 676v176h201v-176h-201z" />
<glyph unicode=";" horiz-adv-x="542" d="M172 0v176h199v-176q0 -2 -27 -57t-55.5 -113.5t-30.5 -65.5h-53l63 236h-96zM172 676v176h201v-176h-201z" />
<glyph unicode="&#x3c;" horiz-adv-x="1396" d="M172 659v99l1057 381v-129l-883 -301l883 -301v-132z" />
<glyph unicode="=" horiz-adv-x="1386" d="M172 487v113h1047v-113h-1047zM172 815v113h1047v-113h-1047z" />
<glyph unicode="&#x3e;" horiz-adv-x="1396" d="M172 276v132l883 301l-883 301v129l1057 -381v-99z" />
<glyph unicode="?" horiz-adv-x="1161" d="M172 1036v92q0 95 88 162.5t213 67.5h221q124 0 211.5 -67.5t87.5 -162.5v-202q0 -24 -5.5 -45t-19.5 -40.5t-25 -33t-35.5 -31.5t-36 -26t-42 -26.5t-38.5 -23.5q-12 -7 -43 -25.5t-42.5 -26.5t-29.5 -22.5t-24.5 -29t-6.5 -31.5v-239h-141v229q0 15 3.5 30t8 26.5 t15 25t16.5 22t22 21t22.5 18t26.5 18t25.5 16t27.5 16t25 14.5q8 5 36.5 21t38.5 22.5t30.5 22.5t28 28.5t15 32t7.5 41.5v198q0 54 -46.5 90.5t-115.5 36.5h-219q-69 0 -114.5 -36.5t-45.5 -90.5v-92h-139zM500 0v156h147v-156h-147z" />
<glyph unicode="@" horiz-adv-x="1271" d="M147 297v805q0 95 88 162t214 67h372q125 0 214 -67t89 -162v-754h-141v62q-68 -62 -160 -62h-116q-124 0 -211.5 67.5t-87.5 162.5v233q0 95 87.5 162t211.5 67h116q93 0 160 -61v123q0 54 -46 90.5t-116 36.5h-370q-69 0 -115.5 -36.5t-46.5 -90.5v-805 q0 -54 45.5 -90.5t114.5 -36.5h655l2 -102h-655q-125 0 -214.5 67t-89.5 162zM547 578q0 -54 45.5 -90.5t114.5 -36.5h116q69 0 114.5 36.5t45.5 90.5v233q0 54 -45.5 90.5t-114.5 36.5h-116q-69 0 -114.5 -36.5t-45.5 -90.5v-233z" />
<glyph unicode="A" horiz-adv-x="1196" d="M86 0l434 1366h154l434 -1366h-145l-142 471h-444l-139 -471h-152zM403 571h388l-113 383q-27 89 -53.5 189.5t-26.5 118.5q-5 -41 -78 -306z" />
<glyph unicode="B" horiz-adv-x="1157" d="M172 0v1366h516q124 0 211.5 -67t87.5 -162v-234q0 -54 -38.5 -105t-96.5 -73q59 -25 97 -75.5t38 -104.5v-316q0 -95 -87.5 -162t-211.5 -67h-516zM311 102h377q69 0 114.5 36.5t45.5 90.5v316q0 54 -45.5 90.5t-114.5 36.5h-377v-570zM311 776h377q69 0 114.5 36.5 t45.5 90.5v234q0 54 -45.5 90.5t-114.5 36.5h-377v-488z" />
<glyph unicode="C" horiz-adv-x="1210" d="M172 229v908q0 95 87.5 162t211.5 67h270q126 0 213.5 -67t87.5 -162v-93h-141v93q0 54 -45.5 90.5t-114.5 36.5h-270q-69 0 -114.5 -36.5t-45.5 -90.5v-908q0 -54 45.5 -90.5t114.5 -36.5h270q69 0 114.5 36.5t45.5 90.5v101h141v-101q0 -95 -87.5 -162t-213.5 -67h-270 q-124 0 -211.5 67t-87.5 162z" />
<glyph unicode="D" horiz-adv-x="1212" d="M172 0v1366h573q124 0 211.5 -67t87.5 -162v-908q0 -95 -87.5 -162t-211.5 -67h-573zM311 102h434q69 0 113.5 36.5t44.5 90.5v908q0 54 -44.5 90.5t-113.5 36.5h-434v-1162z" />
<glyph unicode="E" horiz-adv-x="1128" d="M172 0v1366h789v-100h-642v-494h545v-100h-547v-572h644v-100h-789z" />
<glyph unicode="F" horiz-adv-x="1097" d="M172 0v1366h789v-100h-642v-494h545v-100h-547v-672h-145z" />
<glyph unicode="G" horiz-adv-x="1210" d="M172 229v908q0 95 87.5 162t211.5 67h270q126 0 213.5 -67t87.5 -162v-93h-141v93q0 54 -45.5 90.5t-114.5 36.5h-270q-69 0 -114.5 -36.5t-45.5 -90.5v-908q0 -54 45.5 -90.5t114.5 -36.5h270q69 0 114.5 36.5t45.5 90.5v367h-315v100h456v-467q0 -95 -87.5 -162 t-213.5 -67h-270q-124 0 -211.5 67t-87.5 162z" />
<glyph unicode="H" horiz-adv-x="1273" d="M172 0v1366h139v-563h654v563h141v-1366h-141v702h-654v-702h-139z" />
<glyph unicode="I" horiz-adv-x="481" d="M172 0v1366h139v-1366h-139z" />
<glyph unicode="J" horiz-adv-x="1134" d="M172 229v101h139v-101q0 -54 45.5 -90.5t114.5 -36.5h195q68 0 112.5 36.5t44.5 90.5v1137h142v-1137q0 -95 -87.5 -162t-211.5 -67h-195q-124 0 -211.5 67t-87.5 162z" />
<glyph unicode="K" horiz-adv-x="1128" d="M172 0v1366h145v-573l504 573h170l-583 -639l614 -727h-174l-531 657v-657h-145z" />
<glyph unicode="L" horiz-adv-x="1054" d="M172 0v1366h145v-1266h568v-100h-713z" />
<glyph unicode="M" horiz-adv-x="1638" d="M172 0v1366h174l402 -969q43 -124 73 -270q40 186 68 252l399 987h180v-1366h-137v940q0 28 5 143.5t5 141.5q-7 -37 -38 -132t-50 -147l-364 -946h-137l-363 928q-15 40 -48 148.5t-42 148.5q10 -265 10 -285v-940h-137z" />
<glyph unicode="N" horiz-adv-x="1288" d="M172 0v1366h184l529 -983q24 -47 108 -262q0 21 -8 137t-8 137v971h141v-1366h-178l-537 1001q-11 20 -54.5 130t-51.5 126q3 -29 8.5 -131.5t5.5 -130.5v-995h-139z" />
<glyph unicode="O" horiz-adv-x="1212" d="M172 229v908q0 95 87.5 162t211.5 67h270q126 0 214.5 -67t88.5 -162v-908q0 -95 -87.5 -162t-211.5 -67h-272q-125 0 -213 67t-88 162zM311 229q0 -54 45.5 -90.5t114.5 -36.5h270q69 0 115.5 36.5t46.5 90.5v908q0 55 -45.5 91t-116.5 36h-268q-69 0 -115.5 -36.5 t-46.5 -90.5v-908z" />
<glyph unicode="P" horiz-adv-x="1212" d="M172 0v1366h573q124 0 211.5 -67t87.5 -162v-336q0 -95 -87.5 -162.5t-211.5 -67.5h-434v-571h-139zM311 674h434q69 0 113.5 36.5t44.5 90.5v336q0 54 -44.5 90.5t-113.5 36.5h-434v-590z" />
<glyph unicode="Q" horiz-adv-x="1189" d="M172 229v908q0 95 87.5 162t211.5 67h270q126 0 214.5 -67t88.5 -162v-908q0 -95 -87.5 -162t-211.5 -67h-260l605 -162v-121l-687 205v84q-101 19 -166 80.5t-65 142.5zM311 229q0 -54 45.5 -90.5t114.5 -36.5h270q69 0 115.5 36.5t46.5 90.5v908q0 54 -44.5 90.5 t-113.5 36.5h-272q-69 0 -115.5 -36.5t-46.5 -90.5v-908z" />
<glyph unicode="R" horiz-adv-x="1198" d="M172 0v1366h573q124 0 211.5 -67t87.5 -162v-295q0 -95 -87.5 -162.5t-211.5 -67.5h-92l416 -612h-154l-413 612v101h137l106 2q69 2 113.5 37.5t44.5 89.5v295q0 54 -44.5 90.5t-113.5 36.5h-434v-1264h-139z" />
<glyph unicode="S" horiz-adv-x="1212" d="M172 229v93h139v-93q0 -54 45.5 -90.5t114.5 -36.5h270q69 0 115.5 36.5t46.5 90.5v234q0 30 -19.5 55.5t-46 42t-67 32t-70 23t-68.5 16t-48 11.5q-16 5 -58.5 16t-67.5 18t-66.5 21t-67.5 26t-57.5 31t-49.5 38.5t-30.5 46t-12.5 55.5l-2 10v223q0 95 87.5 162.5 t211.5 67.5h270q126 0 214.5 -67.5t88.5 -162.5v-92h-141v92q0 54 -44.5 90.5t-113.5 36.5h-272q-69 0 -115.5 -36.5t-46.5 -90.5v-192q0 -35 18.5 -64t43.5 -47t64.5 -34.5t68 -24t67.5 -17t50 -12.5q24 -7 81.5 -22.5t86.5 -24.5t76 -25t72.5 -30.5t53 -34.5t39.5 -44 t12 -52v-275q0 -95 -87.5 -162t-211.5 -67h-272q-125 0 -213 67t-88 162z" />
<glyph unicode="T" horiz-adv-x="1116" d="M84 1266v100h948v-100h-403v-1266h-140v1266h-405z" />
<glyph unicode="U" horiz-adv-x="1210" d="M172 229v1137h139v-1137q0 -54 45.5 -90.5t114.5 -36.5h270q69 0 114.5 36.5t45.5 90.5v1137h141v-1137q0 -95 -87.5 -162t-213.5 -67h-270q-124 0 -211.5 67t-87.5 162z" />
<glyph unicode="V" horiz-adv-x="1189" d="M84 1366h149l281 -956q55 -174 82 -306q0 34 78 308l282 954h150l-432 -1366h-154z" />
<glyph unicode="W" horiz-adv-x="1863" d="M86 1366h150l233 -915q39 -156 78 -347q0 18 27.5 140.5t50.5 210.5l233 911h148l233 -915q50 -200 80 -347q0 18 27 142t49 209l233 911h148l-381 -1366h-154l-254 932l-53 274l-53 -280l-256 -926h-154z" />
<glyph unicode="X" horiz-adv-x="1218" d="M82 0l444 705l-403 661h164l217 -362q81 -152 104 -209q101 187 101 196l221 375h168l-408 -661l447 -705h-166l-252 408q-58 92 -107 206q-9 -21 -24.5 -49.5t-44 -76.5t-37.5 -64l-256 -424h-168z" />
<glyph unicode="Y" horiz-adv-x="1120" d="M84 1366h160l231 -494q16 -30 41.5 -95.5t40.5 -125.5q19 62 82 215l235 500h162l-401 -811v-555h-146v555z" />
<glyph unicode="Z" horiz-adv-x="1169" d="M172 0v92l535 952q10 22 62.5 107.5t80.5 124.5q-88 -10 -236 -10h-374v100h761v-86l-589 -1034l-86 -154q82 10 229 10h440v-102h-823z" />
<glyph unicode="[" horiz-adv-x="669" d="M172 -266v1714h330v-100h-191v-1514h191v-100h-330z" />
<glyph unicode="\" horiz-adv-x="964" d="M8 1421h154l794 -1421h-153z" />
<glyph unicode="]" horiz-adv-x="669" d="M172 -166h188v1514h-188v100h330v-1714h-330v100z" />
<glyph unicode="^" horiz-adv-x="1267" d="M172 807l399 559h123l404 -559h-164l-299 420l-299 -420h-164z" />
<glyph unicode="_" horiz-adv-x="1298" d="M-8 -209h1306v-106h-1306v106z" />
<glyph unicode="`" horiz-adv-x="761" d="M172 1427h190l232 -239h-115z" />
<glyph unicode="a" horiz-adv-x="1120" d="M125 229v131q0 78 59.5 139.5t151.5 80.5l104 20l367 66v125q0 55 -46 91t-114 36h-196q-67 0 -111.5 -36.5t-44.5 -90.5v-52h-143v52q0 95 88 162t211 67h196q123 0 211 -67t88 -162v-791h-139v61q-74 -61 -160 -61h-223q-123 0 -211 67t-88 162zM266 229 q0 -54 46 -90.5t112 -36.5h223q68 0 114 36.5t46 90.5v332l-449 -84q-27 -8 -59.5 -38.5t-32.5 -78.5v-131z" />
<glyph unicode="b" d="M172 0v1389h139v-431q72 62 160 62h219q126 0 213.5 -67t87.5 -162v-562q0 -95 -87.5 -162t-213.5 -67h-219q-90 0 -160 61v-61h-139zM311 229q0 -54 45.5 -90.5t114.5 -36.5h219q69 0 114.5 36.5t45.5 90.5v562q0 54 -45.5 90.5t-114.5 36.5h-219q-69 0 -114.5 -36.5 t-45.5 -90.5v-562z" />
<glyph unicode="c" d="M172 229v562q0 95 87.5 162t211.5 67h219q126 0 213.5 -67t87.5 -162v-52h-141v52q0 54 -45.5 90.5t-114.5 36.5h-219q-69 0 -114.5 -36.5t-45.5 -90.5v-562q0 -54 45.5 -90.5t114.5 -36.5h219q69 0 114.5 36.5t45.5 90.5v60h141v-60q0 -95 -87.5 -162t-213.5 -67h-219 q-124 0 -211.5 67t-87.5 162z" />
<glyph unicode="d" d="M172 229v562q0 95 87.5 162t211.5 67h219q92 0 160 -62v431h141v-1389h-141v61q-67 -61 -160 -61h-219q-124 0 -211.5 67t-87.5 162zM311 229q0 -54 45.5 -90.5t114.5 -36.5h219q69 0 114.5 36.5t45.5 90.5v562q0 54 -45.5 90.5t-114.5 36.5h-219q-69 0 -114.5 -36.5 t-45.5 -90.5v-562z" />
<glyph unicode="e" horiz-adv-x="1161" d="M172 229v562q0 95 87.5 162t211.5 67h219q126 0 214.5 -67t88.5 -162v-297h-682v-265q0 -54 45.5 -90.5t114.5 -36.5h219q69 0 114.5 36.5t45.5 90.5v60h143v-60q0 -95 -87.5 -162t-211.5 -67h-221q-125 0 -213 67t-88 162zM315 606h537v185q0 54 -44.5 90.5t-113.5 36.5 h-221q-69 0 -113.5 -36.5t-44.5 -90.5v-185z" />
<glyph unicode="f" horiz-adv-x="653" d="M94 928v92h94v137q0 95 87.5 162t213.5 67h138v-100l-138 -2q-69 -2 -114 -37.5t-45 -89.5v-137h254v-92h-254v-928h-142v928h-94z" />
<glyph unicode="g" horiz-adv-x="1130" d="M172 -53h139v-148q0 -54 45.5 -90.5t114.5 -36.5h270q69 0 114.5 36.5t45.5 90.5v193q0 54 -45.5 90.5t-114.5 36.5h-286q-80 0 -138.5 51t-58.5 115v59q0 56 51 100q-63 31 -100 83t-37 112v152q0 95 87.5 162t211.5 67h195q41 0 86 -10l57 65h192l-149 -104 q53 -31 83 -78t30 -102v-152q0 -95 -87.5 -162t-211.5 -67h-205q-37 0 -60.5 -19.5t-23.5 -48.5v-55q0 -31 21 -48.5t57 -17.5h286q126 0 213.5 -67t87.5 -162v-193q0 -95 -87.5 -162t-213.5 -67h-270q-124 0 -211.5 67t-87.5 162v148zM311 639q0 -54 45.5 -90.5 t114.5 -36.5h195q68 0 112.5 36.5t44.5 90.5v152q0 54 -44.5 90.5t-112.5 36.5h-195q-69 0 -114.5 -36.5t-45.5 -90.5v-152z" />
<glyph unicode="h" horiz-adv-x="1161" d="M172 0v1389h143v-428q69 59 156 59h219q126 0 214.5 -67t88.5 -162v-791h-141v791q0 54 -44.5 90.5t-113.5 36.5h-221q-69 0 -113.5 -36.5t-44.5 -90.5v-791h-143z" />
<glyph unicode="i" horiz-adv-x="489" d="M172 1231v135h147v-135h-147zM176 0v1020h141v-1020h-141z" />
<glyph unicode="j" horiz-adv-x="489" d="M-84 -276h113q69 2 113 37t44 89v1170h142v-1170q0 -95 -87.5 -162t-211.5 -67h-113v103zM178 1231v135h150v-135h-150z" />
<glyph unicode="k" horiz-adv-x="1021" d="M172 0v1386h139v-804l437 438h165l-473 -469l543 -551h-176l-496 514v-514h-139z" />
<glyph unicode="l" horiz-adv-x="481" d="M172 0v1325l139 61v-1386h-139z" />
<glyph unicode="m" horiz-adv-x="1837" d="M172 0v1020h139v-62q21 28 69 45t91 17h219q82 0 150 -30.5t110 -82.5q7 48 72 80.5t127 32.5h221q124 0 211.5 -67t87.5 -162v-791h-141v791q0 54 -44.5 90.5t-113.5 36.5h-221q-69 0 -113.5 -36.5t-44.5 -90.5v-791h-141v791q0 54 -45.5 90.5t-114.5 36.5h-219 q-69 0 -114.5 -36.5t-45.5 -90.5v-791h-139z" />
<glyph unicode="n" d="M172 0v1020h139v-62q72 62 160 62h219q126 0 213.5 -67t87.5 -162v-791h-141v791q0 54 -45.5 90.5t-114.5 36.5h-219q-69 0 -114.5 -36.5t-45.5 -90.5v-791h-139z" />
<glyph unicode="o" d="M172 229v562q0 95 87.5 162t211.5 67h219q126 0 213.5 -67t87.5 -162v-562q0 -95 -87.5 -162t-213.5 -67h-219q-124 0 -211.5 67t-87.5 162zM311 229q0 -54 45.5 -90.5t114.5 -36.5h219q69 0 114.5 36.5t45.5 90.5v562q0 54 -45.5 90.5t-114.5 36.5h-219 q-69 0 -114.5 -36.5t-45.5 -90.5v-562z" />
<glyph unicode="p" horiz-adv-x="1161" d="M172 -389v1409h139v-62q75 62 160 62h223q123 0 211 -67t88 -162v-562q0 -95 -88 -162t-211 -67h-223q-39 0 -82 16t-74 45v-450h-143zM311 225q0 -52 46.5 -87.5t113.5 -35.5h223q66 0 112 36.5t46 90.5v562q0 54 -46 90.5t-112 36.5h-223q-68 0 -114 -36.5t-46 -90.5 v-566z" />
<glyph unicode="q" horiz-adv-x="1161" d="M172 229v562q0 95 88 162t211 67h223q39 0 81.5 -16.5t74.5 -45.5v62h143v-1409h-141v450q-70 -61 -158 -61h-223q-123 0 -211 67t-88 162zM311 229q0 -54 46 -90.5t114 -36.5h223q66 0 112 36.5t46 90.5v562q0 54 -46 90.5t-112 36.5h-223q-68 0 -114 -36.5t-46 -90.5 v-562z" />
<glyph unicode="r" horiz-adv-x="903" d="M172 0v1020h139v-62q72 62 160 62h195q111 0 145 -47l-59 -82q-22 27 -86 27h-195q-69 0 -114.5 -36.5t-45.5 -90.5v-791h-139z" />
<glyph unicode="s" d="M172 229v52h139v-52q0 -54 45.5 -90.5t114.5 -36.5h219q69 0 114.5 36.5t45.5 90.5v50q0 19 -10.5 37t-31 33.5t-41 27.5t-50.5 24.5t-49.5 19t-48.5 16t-37 12.5q-50 17 -81.5 28.5t-87 34t-91.5 43.5t-74 47.5t-57 57t-19 61.5v70q0 95 87.5 162t211.5 67h219 q126 0 213.5 -67t87.5 -162v-52h-141v52q0 54 -45.5 90.5t-114.5 36.5h-219q-69 0 -114.5 -36.5t-45.5 -90.5v-50q0 -24 13 -45.5t39 -40.5t50.5 -33t63 -29t60 -22.5t57.5 -19.5q5 -2 29 -8q69 -24 115 -41.5t98.5 -42t83 -47.5t51 -52t20.5 -61v-70q0 -95 -87.5 -162 t-213.5 -67h-219q-124 0 -211.5 67t-87.5 162z" />
<glyph unicode="t" horiz-adv-x="751" d="M94 928v92h119v221l139 47v-268h307v-92h-307v-699q0 -54 45.5 -90t114.5 -39h164v-100h-164q-124 0 -211.5 67t-87.5 162v699h-119z" />
<glyph unicode="u" d="M172 229v791h139v-791q0 -54 45.5 -90.5t114.5 -36.5h219q69 0 114.5 36.5t45.5 90.5v791h141v-1020h-141v61q-67 -61 -160 -61h-219q-124 0 -211.5 67t-87.5 162z" />
<glyph unicode="v" horiz-adv-x="1044" d="M90 1020h148l204 -610q23 -68 48 -166.5t32 -139.5q2 23 28.5 128.5t51.5 179.5l207 608h145l-356 -1020h-154z" />
<glyph unicode="w" horiz-adv-x="1656" d="M86 1020h150l178 -610q55 -174 82 -306q0 37 77 308l183 604v4h145l178 -610q55 -174 82 -306q0 34 78 308l182 608h148l-330 -1020h-154l-200 641l-56 231l-49 -231l-207 -641h-153z" />
<glyph unicode="x" horiz-adv-x="1044" d="M86 0l352 520l-336 500h164l162 -250q0 -1 22 -38t43.5 -78t28.5 -64q9 33 42 92.5t48 79.5l166 258h166l-338 -500l350 -520h-163l-211 326q-9 14 -31 58.5t-29 64.5q-37 -86 -67 -134l-205 -315h-164z" />
<glyph unicode="y" horiz-adv-x="1036" d="M84 1020h149l209 -590q45 -117 72 -254l82 236l207 608h147l-508 -1438h-145l162 420z" />
<glyph unicode="z" horiz-adv-x="1118" d="M172 0v92l533 725q10 16 94 113q-88 -10 -236 -10h-323v100h710v-86l-579 -793q-5 -8 -20.5 -23.5t-24.5 -25.5q82 10 229 10h389v-102h-772z" />
<glyph unicode="{" horiz-adv-x="823" d="M172 549v110q62 11 99.5 50t37.5 94v401q0 106 94.5 178t231.5 72h20v-102h-20q-81 0 -132.5 -41.5t-51.5 -106.5v-401q0 -60 -33.5 -112.5t-91.5 -86.5q58 -34 91.5 -86t33.5 -112v-402q0 -65 51 -106t133 -41h20v-103h-20q-137 0 -231.5 72t-94.5 178v402 q0 55 -37.5 93.5t-99.5 49.5z" />
<glyph unicode="|" horiz-adv-x="475" d="M172 -254v1708h135v-1708h-135z" />
<glyph unicode="}" horiz-adv-x="823" d="M172 -143h21q80 0 132 41.5t52 105.5v402q0 61 33 112.5t92 85.5q-59 34 -92 86t-33 113v401q0 64 -52 106t-132 42h-21v102h21q135 0 229 -72.5t94 -177.5v-401q0 -55 38.5 -94t100.5 -50v-110q-62 -11 -100.5 -49.5t-38.5 -93.5v-402q0 -105 -94 -177.5t-229 -72.5h-21 v103z" />
<glyph unicode="~" horiz-adv-x="1392" d="M172 707l43 59q64 87 179 115t220 -21l131 -61l105 -49q55 -27 117.5 -13.5t97.5 60.5l45 63l113 -51l-45 -64q-63 -86 -180 -112.5t-220 20.5l-131 60l-104 49q-58 26 -119.5 13t-95.5 -60l-43 -60z" />
<glyph unicode="&#xa1;" horiz-adv-x="489" d="M172 1026v156h147v-156h-147zM174 -184v1040h141v-1040h-141z" />
<glyph unicode="&#xa2;" horiz-adv-x="1107" d="M172 291v438q0 95 87.5 162t211.5 67h12v187h135v-187h21q126 0 213.5 -67t87.5 -162v-51h-141v51q0 54 -45.5 90.5t-114.5 36.5h-168q-69 0 -114.5 -36.5t-45.5 -90.5v-438q0 -54 45.5 -90.5t114.5 -36.5h168q69 0 114.5 36.5t45.5 90.5v59h141v-59q0 -95 -87.5 -162.5 t-213.5 -67.5h-21v-174h-135v174h-12q-124 0 -211.5 67.5t-87.5 162.5z" />
<glyph unicode="&#xa3;" horiz-adv-x="1212" d="M172 0v1137q0 95 87.5 162t211.5 67h270q126 0 214.5 -67t88.5 -162v-93h-141v93q0 54 -44.5 90.5t-113.5 36.5h-272q-69 0 -115.5 -36.5t-46.5 -90.5v-455h375v-100h-375v-482h731v-100h-870z" />
<glyph unicode="&#xa4;" horiz-adv-x="1560" d="M172 291l133 106q-41 53 -41 115v377q0 59 37 112l-129 107l98 80l131 -107q70 37 162 37h424q94 0 170 -39l133 109l101 -80l-140 -111q37 -53 37 -108v-377q0 -58 -37 -111l140 -110l-101 -80l-135 108q-77 -36 -168 -36h-424q-91 0 -160 34l-133 -106zM403 512 q0 -54 45.5 -90.5t114.5 -36.5h424q69 0 114.5 36.5t45.5 90.5v377q0 54 -45.5 90.5t-114.5 36.5h-424q-69 0 -114.5 -36.5t-45.5 -90.5v-377z" />
<glyph unicode="&#xa5;" horiz-adv-x="1120" d="M84 1366h160l231 -494q16 -30 41.5 -95.5t40.5 -125.5q19 62 82 215l235 500h162l-360 -721h332v-113h-375v-235h375v-113h-373v-184h-146v184h-376v113h376v235h-376v113h331z" />
<glyph unicode="&#xa6;" horiz-adv-x="475" d="M172 -199v697h135v-697h-135zM172 733v633h135v-633h-135z" />
<glyph unicode="&#xa7;" d="M172 -18v51h139v-51q0 -54 45.5 -90.5t114.5 -36.5h219q69 0 114.5 36.5t45.5 90.5v49q0 30 -20.5 56.5t-58.5 48.5t-72.5 36.5t-80.5 30.5q-62 20 -77 26q-57 20 -97 34.5t-86.5 34.5t-76.5 38t-56.5 40t-39.5 46t-13 51v213q0 67 45 122t121 85q-166 81 -166 174v70 q0 95 87.5 162t211.5 67h219q126 0 213.5 -67t87.5 -162v-52h-141v52q0 54 -45.5 90.5t-114.5 36.5h-219q-69 0 -114.5 -36.5t-45.5 -90.5v-50q0 -30 20.5 -56.5t58.5 -48.5t72.5 -36.5t80.5 -30.5l80 -26q70 -24 114.5 -41t98 -42.5t83.5 -47.5t51 -51.5t21 -61.5v-213 q0 -66 -46 -121.5t-122 -85.5q168 -82 168 -174v-69q0 -95 -87.5 -162.5t-213.5 -67.5h-219q-124 0 -211.5 67.5t-87.5 162.5zM311 494q0 -19 10.5 -37.5t31 -33.5t41.5 -27.5t51.5 -24t50.5 -19t49 -16.5t37 -12q24 -10 53 -19h55q69 0 114.5 36.5t45.5 90.5v193 q0 19 -10.5 37t-31 33.5t-41 27.5t-50.5 24.5t-49.5 19t-48.5 16t-37 12.5l-56 18h-55q-69 0 -114.5 -36.5t-45.5 -90.5v-192z" />
<glyph unicode="&#xa8;" horiz-adv-x="874" d="M172 1219v176h176v-176h-176zM530 1219v176h177v-176h-177z" />
<glyph unicode="&#xa9;" horiz-adv-x="1280" d="M172 684v449q0 97 90 165t219 68h318q129 0 220 -68t91 -165v-449q0 -97 -90 -165t-219 -68h-318q-129 0 -220 68t-91 165zM287 666q0 -46 63.5 -91t130.5 -45h318q67 0 131.5 45t64.5 91v485q0 46 -64 90.5t-132 44.5h-316q-67 0 -131.5 -44.5t-64.5 -90.5v-485z M397 717v387q0 55 51 94t123 39h148q73 0 124.5 -38.5t51.5 -94.5v-60h-102v60q0 25 -21 42t-53 17h-148q-31 0 -51 -17t-20 -42v-387q0 -25 20.5 -42.5t50.5 -17.5h148q32 0 53 17.5t21 42.5v63h102v-63q0 -57 -51 -95t-125 -38h-148q-73 0 -123.5 38t-50.5 95z" />
<glyph unicode="&#xaa;" horiz-adv-x="833" d="M172 897v76q0 50 35 88.5t92 48.5l61 12l197 37v64q0 28 -21.5 45.5t-54.5 17.5h-112q-33 0 -55.5 -18t-22.5 -45v-39h-107v39q0 60 54.5 101.5t130.5 41.5h112q75 0 129 -41.5t54 -101.5v-469h-107v24q-35 -24 -76 -24h-129q-74 0 -127 41.5t-53 101.5zM276 897 q0 -28 21.5 -45.5t54.5 -17.5h129q33 0 54.5 17.5t21.5 45.5v180l-238 -45q-8 -3 -16 -8.5t-17.5 -19.5t-9.5 -31v-76z" />
<glyph unicode="&#xab;" horiz-adv-x="997" d="M172 539l219 372h129l-223 -372l225 -357h-129zM479 539l219 372h129l-223 -372l225 -357h-129z" />
<glyph unicode="&#xac;" horiz-adv-x="1335" d="M172 651v113h995v-490h-141v377h-854z" />
<glyph unicode="&#xad;" horiz-adv-x="1028" d="M172 590v112h688v-112h-688z" />
<glyph unicode="&#xae;" horiz-adv-x="1280" d="M172 684v449q0 97 90 165t219 68h318q129 0 220 -68t91 -165v-449q0 -97 -90 -165t-219 -68h-318q-129 0 -220 68t-91 165zM287 666q0 -46 63.5 -91t130.5 -45h318q67 0 132.5 45t65.5 91v485q0 46 -64.5 90.5t-133.5 44.5h-316q-67 0 -131.5 -44.5t-64.5 -90.5v-485z M408 584v653h323q74 0 126 -38t52 -95v-98q0 -55 -52 -94.5t-126 -39.5h-26l227 -288h-113l-231 295v67h88l55 2q34 2 55 17.5t21 40.5v98q0 25 -21.5 42t-54.5 17h-221v-579h-102z" />
<glyph unicode="&#xaf;" horiz-adv-x="772" d="M172 1276v100h432v-100h-432z" />
<glyph unicode="&#xb0;" horiz-adv-x="790" d="M172 1147v76q0 60 52 101.5t128 41.5h88q78 0 130.5 -42t52.5 -101v-76q0 -60 -51 -101.5t-132 -41.5h-88q-77 0 -128.5 41t-51.5 102zM268 1147q0 -30 24 -49t60 -19h88q42 0 63 19t21 49v76q0 30 -21 48.5t-63 18.5h-88q-36 0 -60 -19t-24 -48v-76z" />
<glyph unicode="&#xb1;" horiz-adv-x="1310" d="M172 98v113h969v-113h-969zM176 631v112h410v328h141v-328h410v-112h-410v-328h-141v328h-410z" />
<glyph unicode="&#xb2;" horiz-adv-x="790" d="M172 614v252q0 23 13.5 42.5t39 33t46.5 21t51 16.5q74 20 112 33q90 26 90 86v135q0 25 -20 41t-51 16h-113q-32 0 -52 -16t-20 -41v-59h-96v59q0 56 49 94.5t119 38.5h113q71 0 120.5 -39t49.5 -94v-158q0 -64 -70 -100q-47 -25 -170 -55q-115 -27 -115 -76v-156h350 v-74h-446z" />
<glyph unicode="&#xb3;" horiz-adv-x="792" d="M172 748v67h98v-67q0 -25 20 -41.5t52 -16.5h113q31 0 51 16.5t20 41.5v167q0 25 -20.5 42.5t-50.5 17.5h-127v76h127q31 0 51 16t20 41v125q0 25 -20 41t-51 16h-115q-27 0 -46.5 -13t-23.5 -34v-82h-98v72q0 55 49.5 94t120.5 39h113q72 0 121 -38.5t49 -94.5v-125 q0 -27 -17.5 -54t-44.5 -42q62 -41 62 -97v-167q0 -55 -50.5 -94.5t-119.5 -39.5h-115q-69 0 -118.5 39.5t-49.5 94.5z" />
<glyph unicode="&#xb4;" horiz-adv-x="761" d="M172 1188l229 239h193l-307 -239h-115z" />
<glyph unicode="&#xb5;" d="M172 -389v1409h139v-791q0 -54 45.5 -90.5t114.5 -36.5h219q69 0 114.5 36.5t45.5 90.5v791h141v-791q0 -65 -44.5 -119.5t-117.5 -82.5l162 -168h-117l-180 141h-223q-90 0 -160 61v-450h-139z" />
<glyph unicode="&#xb6;" horiz-adv-x="1341" d="M172 903v234q0 95 87.5 162t211.5 67h700v-100h-102v-1465h102v-100h-577v100h104v1463h-227q-69 0 -114.5 -36.5t-45.5 -90.5v-234q0 -54 45.5 -90.5t114.5 -36.5h123v-102h-123q-124 0 -211.5 67t-87.5 162zM813 -199h141v1465h-141v-1465z" />
<glyph unicode="&#xb7;" horiz-adv-x="542" d="M172 676v176h201v-176h-201z" />
<glyph unicode="&#xb8;" horiz-adv-x="819" d="M172 -377q48 9 111 36t127 76t86 103h-185l56 207h84l-33 -129h231q-1 -20 -21.5 -61t-41.5 -70q-43 -62 -160 -123t-233 -76z" />
<glyph unicode="&#xb9;" horiz-adv-x="532" d="M172 1208v76l147 82h43v-752h-88v639z" />
<glyph unicode="&#xba;" horiz-adv-x="790" d="M172 881v342q0 60 52 101.5t128 41.5h88q78 0 130.5 -42t52.5 -101v-342q0 -60 -51 -102t-132 -42h-88q-77 0 -128.5 41.5t-51.5 102.5zM268 881q0 -30 24 -49t60 -19h88q42 0 63 19t21 49v342q0 30 -21 48.5t-63 18.5h-88q-36 0 -60 -19t-24 -48v-342z" />
<glyph unicode="&#xbb;" horiz-adv-x="997" d="M172 182l225 357l-223 372h127l221 -372l-223 -357h-127zM479 182l226 357l-224 372h127l221 -372l-223 -357h-127z" />
<glyph unicode="&#xbc;" horiz-adv-x="1703" d="M172 1208v76l147 82h48v-752h-93v639zM295 0l897 1401h102l-897 -1401h-102zM983 176l258 576h98l-223 -502h203v295h92v-295h125v-74h-125v-176h-92v176h-336z" />
<glyph unicode="&#xbd;" horiz-adv-x="1753" d="M172 1208v76l147 82h48v-752h-91v639zM297 0l899 1401h102l-899 -1401h-102zM1135 0v252q0 23 13.5 42t38.5 33t45.5 21.5t49.5 16.5q78 20 115 32q90 26 90 86v135q0 25 -20.5 41.5t-51.5 16.5h-115q-30 0 -49.5 -16.5t-19.5 -41.5v-59h-96v59q0 56 48 95t117 39h115 q69 0 119.5 -39.5t50.5 -94.5v-157q0 -62 -72 -101q-49 -26 -167 -55q-115 -27 -115 -76v-155h350v-74h-446z" />
<glyph unicode="&#xbe;" horiz-adv-x="1898" d="M172 748v67h98v-67q0 -25 20 -41.5t52 -16.5h113q31 0 51 16.5t20 41.5v167q0 25 -20.5 42.5t-50.5 17.5h-127v76h127q31 0 51 16t20 41v125q0 25 -20 41t-51 16h-115q-27 0 -46.5 -13t-23.5 -34v-82h-98v72q0 55 49.5 94t120.5 39h113q72 0 121 -38.5t49 -94.5v-125 q0 -27 -17.5 -54t-44.5 -42q62 -41 62 -97v-167q0 -55 -50.5 -94.5t-119.5 -39.5h-115q-69 0 -118.5 39.5t-49.5 94.5zM489 0l897 1401h103l-897 -1401h-103zM1178 176l258 576h98l-225 -502h204v295h93v-295h125v-74h-125v-176h-93v176h-335z" />
<glyph unicode="&#xbf;" horiz-adv-x="1161" d="M172 66v202q0 21 5.5 41t12 34.5t22.5 32t25 27t32.5 26t32.5 22t37 22.5t34 21q13 8 43.5 25.5t42.5 26t30 23t24.5 29t6.5 31.5v239h139v-229q0 -28 -11.5 -54t-24.5 -43t-42.5 -39.5t-44 -31t-50.5 -29.5q-12 -7 -17 -10q-7 -4 -37.5 -21t-39 -22.5t-30 -22t-29 -28.5 t-15 -32t-7.5 -42v-198q0 -54 46.5 -90.5t115.5 -36.5h221q69 0 113.5 36.5t44.5 90.5v92h141v-92q0 -95 -88.5 -162.5t-214.5 -67.5h-219q-124 0 -211.5 67.5t-87.5 162.5zM516 1038v156h150v-156h-150z" />
<glyph unicode="&#xc0;" horiz-adv-x="1196" d="M86 0l434 1366h154l434 -1366h-145l-142 471h-444l-139 -471h-152zM391 1729h193l233 -240h-117zM403 571h388l-113 383q-27 89 -53.5 189.5t-26.5 118.5q-5 -41 -78 -306z" />
<glyph unicode="&#xc1;" horiz-adv-x="1196" d="M86 0l434 1366h154l434 -1366h-145l-142 471h-444l-139 -471h-152zM391 1489l232 240h194l-307 -240h-119zM403 571h388l-113 383q-27 89 -53.5 189.5t-26.5 118.5q-5 -41 -78 -306z" />
<glyph unicode="&#xc2;" horiz-adv-x="1196" d="M86 0l434 1366h154l434 -1366h-145l-142 471h-444l-139 -471h-152zM315 1489l205 240h166l207 -240h-115l-172 162l-174 -162h-117zM403 571h388l-113 383q-27 89 -53.5 189.5t-26.5 118.5q-5 -41 -78 -306z" />
<glyph unicode="&#xc3;" horiz-adv-x="1196" d="M86 0l434 1366h154l434 -1366h-145l-142 471h-444l-139 -471h-152zM225 1567l31 49q44 70 129 92.5t158 -16.5l94 -50l74 -38q44 -23 89 -12.5t68 48.5l33 54l82 -43l-33 -52q-46 -70 -129 -92t-155 17l-95 49l-77 39q-41 22 -86.5 11t-69.5 -50l-31 -49zM403 571h388 l-113 383q-27 89 -53.5 189.5t-26.5 118.5q-5 -41 -78 -306z" />
<glyph unicode="&#xc4;" horiz-adv-x="1196" d="M86 0l434 1366h154l434 -1366h-145l-142 471h-444l-139 -471h-152zM336 1518v176h176v-176h-176zM403 571h388l-113 383q-27 89 -53.5 189.5t-26.5 118.5q-5 -41 -78 -306zM694 1518v176h178v-176h-178z" />
<glyph unicode="&#xc5;" horiz-adv-x="1196" d="M86 0l434 1366h154l434 -1366h-145l-142 471h-444l-139 -471h-152zM391 1571v55q0 60 53 101.5t129 41.5h62q78 0 130 -42t52 -101v-55q0 -60 -50.5 -102t-131.5 -42h-62q-77 0 -129.5 41.5t-52.5 102.5zM403 571h388l-113 383q-27 89 -53.5 189.5t-26.5 118.5 q-5 -41 -78 -306zM489 1571q0 -31 23.5 -49.5t60.5 -18.5h62q42 0 63 19t21 49v55q0 30 -21 49t-63 19h-62q-37 0 -60.5 -19.5t-23.5 -48.5v-55z" />
<glyph unicode="&#xc6;" horiz-adv-x="1984" d="M172 2l825 1364h815v-100h-641v-494h547v-100h-549v-572h643v-100h-788v535h-377l-328 -535zM709 635h315v565q-19 -35 -57.5 -108.5t-57.5 -106.5z" />
<glyph unicode="&#xc7;" horiz-adv-x="1210" d="M172 229v908q0 95 87.5 162t211.5 67h270q126 0 213.5 -67t87.5 -162v-93h-141v93q0 54 -45.5 90.5t-114.5 36.5h-270q-69 0 -114.5 -36.5t-45.5 -90.5v-908q0 -54 45.5 -90.5t114.5 -36.5h270q69 0 114.5 36.5t45.5 90.5v101h141v-101q0 -95 -87.5 -162t-213.5 -67h-86 l-20 -84h233q-3 -20 -23.5 -61.5t-41.5 -69.5q-43 -63 -159.5 -124t-233.5 -75l-21 37q82 16 187.5 76.5t138.5 138.5h-185l41 162h-100q-124 0 -211.5 67t-87.5 162z" />
<glyph unicode="&#xc8;" horiz-adv-x="1128" d="M172 0v1366h789v-100h-642v-494h545v-100h-547v-572h644v-100h-789zM322 1729h192l231 -240h-116z" />
<glyph unicode="&#xc9;" horiz-adv-x="1128" d="M172 0v1366h789v-100h-642v-494h545v-100h-547v-572h644v-100h-789zM322 1489l231 240h192l-307 -240h-116z" />
<glyph unicode="&#xca;" horiz-adv-x="1128" d="M172 0v1366h789v-100h-642v-494h545v-100h-547v-572h644v-100h-789zM246 1489l205 240h165l205 -240h-114l-172 162l-175 -162h-114z" />
<glyph unicode="&#xcb;" horiz-adv-x="1128" d="M172 0v1366h789v-100h-642v-494h545v-100h-547v-572h644v-100h-789zM291 1518v176h178v-176h-178zM649 1518v176h178v-176h-178z" />
<glyph unicode="&#xcc;" horiz-adv-x="481" d="M31 1729h192l230 -240h-115zM172 0v1366h139v-1366h-139z" />
<glyph unicode="&#xcd;" horiz-adv-x="481" d="M31 1489l229 240h193l-308 -240h-114zM172 0v1366h139v-1366h-139z" />
<glyph unicode="&#xce;" horiz-adv-x="481" d="M-47 1489l205 240h168l204 -240h-116l-170 162l-174 -162h-117zM172 0v1366h139v-1366h-139z" />
<glyph unicode="&#xcf;" horiz-adv-x="481" d="M-27 1518v176h179v-176h-179zM172 0v1366h139v-1366h-139zM332 1518v176h178v-176h-178z" />
<glyph unicode="&#xd0;" horiz-adv-x="1300" d="M172 672v112h86v582h573q124 0 211.5 -67t87.5 -162v-908q0 -95 -87.5 -162t-211.5 -67h-573v672h-86zM399 102h432q69 0 114.5 36.5t45.5 90.5v908q0 54 -45.5 90.5t-114.5 36.5h-432v-480h410v-112h-410v-570z" />
<glyph unicode="&#xd1;" horiz-adv-x="1288" d="M172 0v1366h184l529 -983q24 -47 108 -262q0 21 -8 137t-8 137v971h141v-1366h-178l-537 1001q-11 20 -54.5 130t-51.5 126q3 -29 8.5 -131.5t5.5 -130.5v-995h-139zM266 1567l31 49q44 70 129 92.5t158 -16.5l94 -50l74 -38q43 -23 88.5 -12.5t68.5 48.5l33 54l80 -43 l-35 -52q-46 -70 -127.5 -91.5t-154.5 16.5l-97 49l-76 39q-39 22 -85 11t-70 -50l-31 -49z" />
<glyph unicode="&#xd2;" horiz-adv-x="1212" d="M172 229v908q0 95 87.5 162t211.5 67h270q126 0 214.5 -67t88.5 -162v-908q0 -95 -87.5 -162t-211.5 -67h-272q-125 0 -213 67t-88 162zM311 229q0 -54 45.5 -90.5t114.5 -36.5h270q69 0 115.5 36.5t46.5 90.5v908q0 55 -45.5 91t-116.5 36h-268q-69 0 -115.5 -36.5 t-46.5 -90.5v-908zM397 1729h191l231 -240h-114z" />
<glyph unicode="&#xd3;" horiz-adv-x="1212" d="M172 229v908q0 95 87.5 162t211.5 67h270q126 0 214.5 -67t88.5 -162v-908q0 -95 -87.5 -162t-211.5 -67h-272q-125 0 -213 67t-88 162zM311 229q0 -54 45.5 -90.5t114.5 -36.5h270q69 0 115.5 36.5t46.5 90.5v908q0 55 -45.5 91t-116.5 36h-268q-69 0 -115.5 -36.5 t-46.5 -90.5v-908zM397 1489l230 240h192l-307 -240h-115z" />
<glyph unicode="&#xd4;" horiz-adv-x="1212" d="M172 229v908q0 95 87.5 162t211.5 67h270q126 0 214.5 -67t88.5 -162v-908q0 -95 -87.5 -162t-211.5 -67h-272q-125 0 -213 67t-88 162zM311 229q0 -54 45.5 -90.5t114.5 -36.5h270q69 0 115.5 36.5t46.5 90.5v908q0 55 -45.5 91t-116.5 36h-268q-69 0 -115.5 -36.5 t-46.5 -90.5v-908zM319 1489l205 240h166l205 -240h-115l-172 162l-174 -162h-115z" />
<glyph unicode="&#xd5;" horiz-adv-x="1212" d="M172 229v908q0 95 87.5 162t211.5 67h270q126 0 214.5 -67t88.5 -162v-908q0 -95 -87.5 -162t-211.5 -67h-272q-125 0 -213 67t-88 162zM229 1567l31 49q44 70 129.5 92.5t157.5 -16.5l96 -50l74 -38q41 -23 85.5 -12.5t69.5 48.5l33 54l80 -43l-33 -52 q-46 -70 -127.5 -91.5t-156.5 16.5l-95 49l-77 39q-41 22 -86.5 11t-69.5 -50l-31 -49zM311 229q0 -54 45.5 -90.5t114.5 -36.5h270q69 0 115.5 36.5t46.5 90.5v908q0 55 -45.5 91t-116.5 36h-268q-69 0 -115.5 -36.5t-46.5 -90.5v-908z" />
<glyph unicode="&#xd6;" horiz-adv-x="1212" d="M172 229v908q0 95 87.5 162t211.5 67h270q126 0 214.5 -67t88.5 -162v-908q0 -95 -87.5 -162t-211.5 -67h-272q-125 0 -213 67t-88 162zM311 229q0 -54 45.5 -90.5t114.5 -36.5h270q69 0 115.5 36.5t46.5 90.5v908q0 55 -45.5 91t-116.5 36h-268q-69 0 -115.5 -36.5 t-46.5 -90.5v-908zM340 1518v176h176v-176h-176zM698 1518v176h176v-176h-176z" />
<glyph unicode="&#xd7;" horiz-adv-x="1228" d="M172 412l342 274l-342 277l98 79l344 -276l342 276l101 -79l-342 -277l342 -274l-101 -80l-342 276l-344 -276z" />
<glyph unicode="&#xd8;" horiz-adv-x="1290" d="M172 0l68 127q-31 48 -31 102v908q0 95 87.5 162t213.5 67h270q69 0 142 -27l45 82h153l-88 -157q51 -61 51 -127v-908q0 -95 -87.5 -162t-213.5 -67h-270q-90 0 -166 37l-20 -37h-154zM350 319l518 926q-43 19 -88 19h-268q-69 0 -115.5 -36.5t-46.5 -90.5v-818z M399 135q48 -33 111 -33h270q69 0 115.5 36.5t46.5 90.5v873z" />
<glyph unicode="&#xd9;" horiz-adv-x="1210" d="M172 229v1137h139v-1137q0 -54 45.5 -90.5t114.5 -36.5h270q69 0 114.5 36.5t45.5 90.5v1137h141v-1137q0 -95 -87.5 -162t-213.5 -67h-270q-124 0 -211.5 67t-87.5 162zM393 1729h193l231 -240h-117z" />
<glyph unicode="&#xda;" horiz-adv-x="1210" d="M172 229v1137h139v-1137q0 -54 45.5 -90.5t114.5 -36.5h270q69 0 114.5 36.5t45.5 90.5v1137h141v-1137q0 -95 -87.5 -162t-213.5 -67h-270q-124 0 -211.5 67t-87.5 162zM393 1489l232 240h192l-307 -240h-117z" />
<glyph unicode="&#xdb;" horiz-adv-x="1210" d="M172 229v1137h139v-1137q0 -54 45.5 -90.5t114.5 -36.5h270q69 0 114.5 36.5t45.5 90.5v1137h141v-1137q0 -95 -87.5 -162t-213.5 -67h-270q-124 0 -211.5 67t-87.5 162zM317 1489l205 240h166l205 -240h-115l-172 162l-174 -162h-115z" />
<glyph unicode="&#xdc;" horiz-adv-x="1210" d="M172 229v1137h139v-1137q0 -54 45.5 -90.5t114.5 -36.5h270q69 0 114.5 36.5t45.5 90.5v1137h141v-1137q0 -95 -87.5 -162t-213.5 -67h-270q-124 0 -211.5 67t-87.5 162zM338 1518v176h176v-176h-176zM696 1518v176h176v-176h-176z" />
<glyph unicode="&#xdd;" horiz-adv-x="1120" d="M84 1366h160l231 -494q16 -30 41.5 -95.5t40.5 -125.5q19 62 82 215l235 500h162l-401 -811v-555h-146v555zM348 1489l230 240h194l-307 -240h-117z" />
<glyph unicode="&#xde;" horiz-adv-x="1216" d="M172 0v1366h143v-266h430q125 0 213.5 -67.5t88.5 -162.5v-376q0 -95 -87.5 -162.5t-211.5 -67.5h-437v-264h-139zM311 367h434q69 0 114.5 36.5t45.5 90.5v376q0 54 -44.5 90.5t-112.5 36.5h-433z" />
<glyph unicode="&#xdf;" horiz-adv-x="1263" d="M172 0v1137q0 95 88 162t213 67h221q124 0 211.5 -67t87.5 -162v-234q0 -40 -29 -83.5t-71 -74.5q36 -8 63 -22q59 -24 99.5 -74.5t40.5 -103.5v-316q0 -95 -88.5 -162t-214.5 -67h-144q-125 0 -215 70l101 71q45 -39 118 -39h144q68 0 112.5 36.5t44.5 90.5v316 q0 54 -46 90.5t-115 36.5h-220v104h121q69 0 113.5 36.5t44.5 90.5v234q0 54 -46.5 90.5t-115.5 36.5h-219q-69 0 -114.5 -36.5t-45.5 -90.5h4v-1137h-143z" />
<glyph unicode="&#xe0;" horiz-adv-x="1161" d="M172 229v131q0 78 58.5 139.5t150.5 80.5l104 20l367 66v125q0 55 -45.5 91t-112.5 36h-198q-66 0 -111 -36.5t-45 -90.5v-52h-143v52q0 95 88 162t211 67h198q123 0 211 -67t88 -162v-791h-141v61q-70 -61 -158 -61h-223q-123 0 -211 67t-88 162zM311 229 q0 -54 46 -90.5t114 -36.5h223q66 0 112 36.5t46 90.5v332l-449 -84q-27 -8 -59.5 -38.5t-32.5 -78.5v-131zM371 1368h192l230 -240h-115z" />
<glyph unicode="&#xe1;" horiz-adv-x="1161" d="M172 229v131q0 78 58.5 139.5t150.5 80.5l104 20l367 66v125q0 55 -45.5 91t-112.5 36h-198q-66 0 -111 -36.5t-45 -90.5v-52h-143v52q0 95 88 162t211 67h198q123 0 211 -67t88 -162v-791h-141v61q-70 -61 -158 -61h-223q-123 0 -211 67t-88 162zM311 229 q0 -54 46 -90.5t114 -36.5h223q66 0 112 36.5t46 90.5v332l-449 -84q-27 -8 -59.5 -38.5t-32.5 -78.5v-131zM371 1128l231 240h191l-308 -240h-114z" />
<glyph unicode="&#xe2;" horiz-adv-x="1161" d="M172 229v131q0 78 58.5 139.5t150.5 80.5l104 20l367 66v125q0 55 -45.5 91t-112.5 36h-198q-66 0 -111 -36.5t-45 -90.5v-52h-143v52q0 95 88 162t211 67h198q123 0 211 -67t88 -162v-791h-141v61q-70 -61 -158 -61h-223q-123 0 -211 67t-88 162zM295 1128l205 240h166 l204 -240h-114l-172 162l-174 -162h-115zM311 229q0 -54 46 -90.5t114 -36.5h223q66 0 112 36.5t46 90.5v332l-449 -84q-27 -8 -59.5 -38.5t-32.5 -78.5v-131z" />
<glyph unicode="&#xe3;" horiz-adv-x="1161" d="M172 229v131q0 78 58.5 139.5t150.5 80.5l104 20l367 66v125q0 55 -45.5 91t-112.5 36h-198q-66 0 -111 -36.5t-45 -90.5v-52h-143v52q0 95 88 162t211 67h198q123 0 211 -67t88 -162v-791h-141v61q-70 -61 -158 -61h-223q-123 0 -211 67t-88 162zM205 1208l31 49 q44 70 128.5 92.5t157.5 -16.5l94 -49l74 -39q43 -23 87.5 -12.5t70.5 49.5l33 53l80 -43l-35 -51q-46 -70 -128 -92t-155 16l-96 49l-76 39q-43 22 -87 11t-69 -50l-30 -49zM311 229q0 -54 46 -90.5t114 -36.5h223q66 0 112 36.5t46 90.5v332l-449 -84q-27 -8 -59.5 -38.5 t-32.5 -78.5v-131z" />
<glyph unicode="&#xe4;" horiz-adv-x="1161" d="M172 229v131q0 78 58.5 139.5t150.5 80.5l104 20l367 66v125q0 55 -45.5 91t-112.5 36h-198q-66 0 -111 -36.5t-45 -90.5v-52h-143v52q0 95 88 162t211 67h198q123 0 211 -67t88 -162v-791h-141v61q-70 -61 -158 -61h-223q-123 0 -211 67t-88 162zM311 229 q0 -54 46 -90.5t114 -36.5h223q66 0 112 36.5t46 90.5v332l-449 -84q-27 -8 -59.5 -38.5t-32.5 -78.5v-131zM315 1159v176h177v-176h-177zM674 1159v176h176v-176h-176z" />
<glyph unicode="&#xe5;" horiz-adv-x="1161" d="M172 229v131q0 78 58.5 139.5t150.5 80.5l104 20l367 66v125q0 55 -45.5 91t-112.5 36h-198q-66 0 -111 -36.5t-45 -90.5v-52h-143v52q0 95 88 162t211 67h198q123 0 211 -67t88 -162v-791h-141v61q-70 -61 -158 -61h-223q-123 0 -211 67t-88 162zM311 229 q0 -54 46 -90.5t114 -36.5h223q66 0 112 36.5t46 90.5v332l-449 -84q-27 -8 -59.5 -38.5t-32.5 -78.5v-131zM369 1223v55q0 60 53 101.5t129 41.5h61q78 0 129.5 -41.5t51.5 -101.5v-55q0 -60 -50.5 -102t-130.5 -42h-61q-77 0 -129.5 41.5t-52.5 102.5zM465 1223 q0 -30 24.5 -49t61.5 -19h61q41 0 62.5 19.5t21.5 48.5v55q0 29 -21.5 48.5t-62.5 19.5h-61q-37 0 -61.5 -19.5t-24.5 -48.5v-55z" />
<glyph unicode="&#xe6;" horiz-adv-x="1843" d="M172 229v131q0 107 74.5 174.5t197.5 67.5h408v189q0 55 -45.5 91t-112.5 36h-198q-66 0 -111 -36.5t-45 -90.5v-52h-143v52q0 95 88 162t211 67h198q136 0 228 -82q85 82 229 82h221q125 0 213 -67t88 -162v-297h-680v-265q0 -54 44.5 -90.5t113.5 -36.5h221 q69 0 113.5 36.5t44.5 90.5v60h143v-60q0 -95 -87.5 -162t-211.5 -67h-219q-82 0 -150 29t-110 80l-43 -48q-70 -61 -158 -61h-223q-123 0 -211 67t-88 162zM311 229q0 -54 46 -90.5t114 -36.5h223q66 0 112 36.5t46 90.5v256h-401q-140 0 -140 -125v-131zM995 606h539v185 q0 54 -45.5 90.5t-114.5 36.5h-219q-69 0 -114.5 -36.5t-45.5 -90.5v-185z" />
<glyph unicode="&#xe7;" d="M172 229v562q0 95 87.5 162t211.5 67h219q126 0 213.5 -67t87.5 -162v-52h-141v52q0 54 -45.5 90.5t-114.5 36.5h-219q-69 0 -114.5 -36.5t-45.5 -90.5v-562q0 -54 45.5 -90.5t114.5 -36.5h219q69 0 114.5 36.5t45.5 90.5v60h141v-60q0 -95 -87.5 -162t-213.5 -67h-72 l-20 -84h233q-1 -19 -21.5 -59.5t-41.5 -71.5q-45 -63 -161.5 -124t-233.5 -75l-21 37q49 9 112 36t127 76t87 103h-184l41 162h-64q-124 0 -211.5 67t-87.5 162z" />
<glyph unicode="&#xe8;" horiz-adv-x="1161" d="M172 229v562q0 95 87.5 162t211.5 67h219q126 0 214.5 -67t88.5 -162v-297h-682v-265q0 -54 45.5 -90.5t114.5 -36.5h219q69 0 114.5 36.5t45.5 90.5v60h143v-60q0 -95 -87.5 -162t-211.5 -67h-221q-125 0 -213 67t-88 162zM315 606h537v185q0 54 -44.5 90.5t-113.5 36.5 h-221q-69 0 -113.5 -36.5t-44.5 -90.5v-185zM371 1368h192l230 -240h-115z" />
<glyph unicode="&#xe9;" horiz-adv-x="1161" d="M172 229v562q0 95 87.5 162t211.5 67h219q126 0 214.5 -67t88.5 -162v-297h-682v-265q0 -54 45.5 -90.5t114.5 -36.5h219q69 0 114.5 36.5t45.5 90.5v60h143v-60q0 -95 -87.5 -162t-211.5 -67h-221q-125 0 -213 67t-88 162zM315 606h537v185q0 54 -44.5 90.5t-113.5 36.5 h-221q-69 0 -113.5 -36.5t-44.5 -90.5v-185zM371 1128l231 240h191l-308 -240h-114z" />
<glyph unicode="&#xea;" horiz-adv-x="1161" d="M172 229v562q0 95 87.5 162t211.5 67h219q126 0 214.5 -67t88.5 -162v-297h-682v-265q0 -54 45.5 -90.5t114.5 -36.5h219q69 0 114.5 36.5t45.5 90.5v60h143v-60q0 -95 -87.5 -162t-211.5 -67h-221q-125 0 -213 67t-88 162zM295 1128l205 240h166l204 -240h-114l-172 162 l-174 -162h-115zM315 606h537v185q0 54 -44.5 90.5t-113.5 36.5h-221q-69 0 -113.5 -36.5t-44.5 -90.5v-185z" />
<glyph unicode="&#xeb;" horiz-adv-x="1161" d="M172 229v562q0 95 87.5 162t211.5 67h219q126 0 214.5 -67t88.5 -162v-297h-682v-265q0 -54 45.5 -90.5t114.5 -36.5h219q69 0 114.5 36.5t45.5 90.5v60h143v-60q0 -95 -87.5 -162t-211.5 -67h-221q-125 0 -213 67t-88 162zM315 606h537v185q0 54 -44.5 90.5t-113.5 36.5 h-221q-69 0 -113.5 -36.5t-44.5 -90.5v-185zM315 1159v176h177v-176h-177zM674 1159v176h176v-176h-176z" />
<glyph unicode="&#xec;" horiz-adv-x="489" d="M33 1368h192l230 -240h-115zM176 0v1020h141v-1020h-141z" />
<glyph unicode="&#xed;" horiz-adv-x="489" d="M33 1128l231 240h191l-308 -240h-114zM176 0v1020h141v-1020h-141z" />
<glyph unicode="&#xee;" horiz-adv-x="489" d="M-43 1128l205 240h166l204 -240h-114l-172 162l-174 -162h-115zM176 0v1020h141v-1020h-141z" />
<glyph unicode="&#xef;" horiz-adv-x="489" d="M-23 1159v176h177v-176h-177zM176 0v1020h141v-1020h-141zM336 1159v176h176v-176h-176z" />
<glyph unicode="&#xf0;" d="M172 229v398q0 95 87.5 162t211.5 67h219q70 0 131 -22q-16 126 -121 274l-270 -70v92l213 54q-123 141 -254 215h166q116 -67 211 -182l225 57v-92l-168 -43q78 -112 123 -244t45 -268v-398q0 -95 -87.5 -162t-213.5 -67h-219q-124 0 -211.5 67t-87.5 162zM311 229 q0 -54 45.5 -90.5t114.5 -36.5h219q69 0 114.5 36.5t45.5 90.5v398q0 54 -45.5 90.5t-114.5 36.5h-219q-69 0 -114.5 -36.5t-45.5 -90.5v-398z" />
<glyph unicode="&#xf1;" d="M172 0v1020h139v-62q72 62 160 62h219q126 0 213.5 -67t87.5 -162v-791h-141v791q0 54 -45.5 90.5t-114.5 36.5h-219q-69 0 -114.5 -36.5t-45.5 -90.5v-791h-139zM199 1208l30 49q44 70 129.5 92.5t157.5 -16.5l96 -49l74 -39q41 -23 87 -12t69 49l32 53l80 -43l-32 -51 q-46 -70 -128 -92t-157 16l-94 49l-78 39q-39 22 -85.5 11t-70.5 -50l-30 -49z" />
<glyph unicode="&#xf2;" d="M172 229v562q0 95 87.5 162t211.5 67h219q126 0 213.5 -67t87.5 -162v-562q0 -95 -87.5 -162t-213.5 -67h-219q-124 0 -211.5 67t-87.5 162zM311 229q0 -54 45.5 -90.5t114.5 -36.5h219q69 0 114.5 36.5t45.5 90.5v562q0 54 -45.5 90.5t-114.5 36.5h-219 q-69 0 -114.5 -36.5t-45.5 -90.5v-562zM369 1368h192l230 -240h-115z" />
<glyph unicode="&#xf3;" d="M172 229v562q0 95 87.5 162t211.5 67h219q126 0 213.5 -67t87.5 -162v-562q0 -95 -87.5 -162t-213.5 -67h-219q-124 0 -211.5 67t-87.5 162zM311 229q0 -54 45.5 -90.5t114.5 -36.5h219q69 0 114.5 36.5t45.5 90.5v562q0 54 -45.5 90.5t-114.5 36.5h-219 q-69 0 -114.5 -36.5t-45.5 -90.5v-562zM369 1128l229 240h193l-308 -240h-114z" />
<glyph unicode="&#xf4;" d="M172 229v562q0 95 87.5 162t211.5 67h219q126 0 213.5 -67t87.5 -162v-562q0 -95 -87.5 -162t-213.5 -67h-219q-124 0 -211.5 67t-87.5 162zM291 1128l205 240h168l204 -240h-116l-170 162l-174 -162h-117zM311 229q0 -54 45.5 -90.5t114.5 -36.5h219q69 0 114.5 36.5 t45.5 90.5v562q0 54 -45.5 90.5t-114.5 36.5h-219q-69 0 -114.5 -36.5t-45.5 -90.5v-562z" />
<glyph unicode="&#xf5;" d="M172 229v562q0 95 87.5 162t211.5 67h219q126 0 213.5 -67t87.5 -162v-562q0 -95 -87.5 -162t-213.5 -67h-219q-124 0 -211.5 67t-87.5 162zM203 1208l30 49q43 70 128.5 92.5t158.5 -16.5l94 -49l74 -39q43 -23 88 -12t68 49l35 53l77 -43l-32 -51q-46 -70 -128 -92 t-157 16l-94 49l-76 39q-41 22 -86.5 11t-71.5 -50l-30 -49zM311 229q0 -54 45.5 -90.5t114.5 -36.5h219q69 0 114.5 36.5t45.5 90.5v562q0 54 -45.5 90.5t-114.5 36.5h-219q-69 0 -114.5 -36.5t-45.5 -90.5v-562z" />
<glyph unicode="&#xf6;" d="M172 229v562q0 95 87.5 162t211.5 67h219q126 0 213.5 -67t87.5 -162v-562q0 -95 -87.5 -162t-213.5 -67h-219q-124 0 -211.5 67t-87.5 162zM311 229q0 -54 45.5 -90.5t114.5 -36.5h219q69 0 114.5 36.5t45.5 90.5v562q0 54 -45.5 90.5t-114.5 36.5h-219 q-69 0 -114.5 -36.5t-45.5 -90.5v-562zM311 1159v176h178v-176h-178zM670 1159v176h178v-176h-178z" />
<glyph unicode="&#xf7;" horiz-adv-x="1310" d="M172 651v113h969v-113h-969zM567 358v156h178v-156h-178zM567 901v156h178v-156h-178z" />
<glyph unicode="&#xf8;" horiz-adv-x="1187" d="M172 0l66 98q-54 61 -54 131v562q0 95 87.5 162t211.5 67h222q71 0 135 -25l24 37h154l-72 -106q58 -58 58 -135v-562q0 -95 -87.5 -162t-211.5 -67h-222q-72 0 -141 27l-16 -27h-154zM326 231l452 672q-30 15 -73 15h-222q-68 0 -112.5 -36.5t-44.5 -90.5v-560zM403 119 q43 -17 80 -17h222q68 0 112.5 36.5t44.5 90.5v572z" />
<glyph unicode="&#xf9;" d="M172 229v791h139v-791q0 -54 45.5 -90.5t114.5 -36.5h219q69 0 114.5 36.5t45.5 90.5v791h141v-1020h-141v61q-67 -61 -160 -61h-219q-124 0 -211.5 67t-87.5 162zM362 1368h193l231 -240h-116z" />
<glyph unicode="&#xfa;" d="M172 229v791h139v-791q0 -54 45.5 -90.5t114.5 -36.5h219q69 0 114.5 36.5t45.5 90.5v791h141v-1020h-141v61q-67 -61 -160 -61h-219q-124 0 -211.5 67t-87.5 162zM362 1128l232 240h192l-307 -240h-117z" />
<glyph unicode="&#xfb;" d="M172 229v791h139v-791q0 -54 45.5 -90.5t114.5 -36.5h219q69 0 114.5 36.5t45.5 90.5v791h141v-1020h-141v61q-67 -61 -160 -61h-219q-124 0 -211.5 67t-87.5 162zM287 1128l205 240h165l205 -240h-114l-173 162l-174 -162h-114z" />
<glyph unicode="&#xfc;" d="M172 229v791h139v-791q0 -54 45.5 -90.5t114.5 -36.5h219q69 0 114.5 36.5t45.5 90.5v791h141v-1020h-141v61q-67 -61 -160 -61h-219q-124 0 -211.5 67t-87.5 162zM307 1159v176h176v-176h-176zM666 1159v176h176v-176h-176z" />
<glyph unicode="&#xfd;" horiz-adv-x="1036" d="M84 1020h149l209 -590q45 -117 72 -254l82 236l207 608h147l-508 -1438h-145l162 420zM307 1128l230 240h192l-307 -240h-115z" />
<glyph unicode="&#xfe;" horiz-adv-x="1161" d="M172 -389v1757h139v-410q75 62 160 62h223q123 0 211 -67t88 -162v-562q0 -95 -88 -162t-211 -67h-223q-39 0 -82 16t-74 45v-450h-143zM311 229q-1 -54 45.5 -90.5t114.5 -36.5h223q66 0 112 36.5t46 90.5v562q0 54 -46 90.5t-112 36.5h-223q-67 0 -111.5 -36.5 t-44.5 -90.5v-445z" />
<glyph unicode="&#xff;" horiz-adv-x="1036" d="M84 1020h149l209 -590q45 -117 72 -254l82 236l207 608h147l-508 -1438h-145l162 420zM250 1159v176h178v-176h-178zM608 1159v176h178v-176h-178z" />
<glyph unicode="&#x131;" horiz-adv-x="489" d="M176 0v1020h141v-1020h-141z" />
<glyph unicode="&#x152;" horiz-adv-x="1761" d="M172 229v908q0 95 87.5 162t211.5 67h1120v-100h-590v-494h496v-100h-500v-572h594v-100h-1118q-125 0 -213 67t-88 162zM311 229q0 -54 45.5 -90.5t114.5 -36.5h381l2 1162h-381q-69 0 -115.5 -36.5t-46.5 -90.5v-908z" />
<glyph unicode="&#x153;" horiz-adv-x="1837" d="M172 229v562q0 95 87.5 162t211.5 67h219q140 0 230 -80q87 80 227 80h219q126 0 214.5 -67t88.5 -162v-297h-678v-283q8 -48 51 -78.5t105 -30.5h219q69 0 114.5 36.5t45.5 90.5v60h143v-60q0 -95 -87.5 -162t-211.5 -67h-221q-139 0 -229 80q-90 -80 -230 -80h-219 q-124 0 -211.5 67t-87.5 162zM311 229q0 -54 45.5 -90.5t114.5 -36.5h219q64 0 107 30.5t51 78.5v598q-8 48 -51 78.5t-107 30.5h-219q-69 0 -114.5 -36.5t-45.5 -90.5v-562zM991 606h537v185q0 54 -44.5 90.5t-113.5 36.5h-221q-69 0 -113.5 -36.5t-44.5 -90.5v-185z" />
<glyph unicode="&#x160;" horiz-adv-x="1212" d="M172 229v93h139v-93q0 -54 45.5 -90.5t114.5 -36.5h270q69 0 115.5 36.5t46.5 90.5v234q0 30 -19.5 55.5t-46 42t-67 32t-70 23t-68.5 16t-48 11.5q-16 5 -58.5 16t-67.5 18t-66.5 21t-67.5 26t-57.5 31t-49.5 38.5t-30.5 46t-12.5 55.5l-2 10v223q0 95 87.5 162.5 t211.5 67.5h270q126 0 214.5 -67.5t88.5 -162.5v-92h-141v92q0 54 -44.5 90.5t-113.5 36.5h-272q-69 0 -115.5 -36.5t-46.5 -90.5v-192q0 -35 18.5 -64t43.5 -47t64.5 -34.5t68 -24t67.5 -17t50 -12.5q24 -7 81.5 -22.5t86.5 -24.5t76 -25t72.5 -30.5t53 -34.5t39.5 -44 t12 -52v-275q0 -95 -87.5 -162t-211.5 -67h-272q-125 0 -213 67t-88 162zM319 1729h115l174 -162l172 162h115l-205 -240h-166z" />
<glyph unicode="&#x161;" d="M172 229v52h139v-52q0 -54 45.5 -90.5t114.5 -36.5h219q69 0 114.5 36.5t45.5 90.5v50q0 19 -10.5 37t-31 33.5t-41 27.5t-50.5 24.5t-49.5 19t-48.5 16t-37 12.5q-50 17 -81.5 28.5t-87 34t-91.5 43.5t-74 47.5t-57 57t-19 61.5v70q0 95 87.5 162t211.5 67h219 q126 0 213.5 -67t87.5 -162v-52h-141v52q0 54 -45.5 90.5t-114.5 36.5h-219q-69 0 -114.5 -36.5t-45.5 -90.5v-50q0 -20 10 -39t25 -33.5t40 -30t46 -25.5t52.5 -22.5t50 -18.5t49 -16t39.5 -13q69 -24 115 -41.5t98.5 -42t83 -47.5t51 -52t20.5 -61v-70q0 -95 -87.5 -162 t-213.5 -67h-219q-124 0 -211.5 67t-87.5 162zM291 1368h117l174 -162l170 162h116l-204 -240h-168z" />
<glyph unicode="&#x178;" horiz-adv-x="1120" d="M84 1366h160l231 -494q16 -30 41.5 -95.5t40.5 -125.5q19 62 82 215l235 500h162l-401 -811v-555h-146v555zM291 1518v176h178v-176h-178zM649 1518v176h180v-176h-180z" />
<glyph unicode="&#x17d;" horiz-adv-x="1169" d="M172 0v92l535 952q10 22 62.5 107.5t80.5 124.5q-88 -10 -236 -10h-374v100h761v-86l-589 -1034l-86 -154q82 10 229 10h440v-102h-823zM319 1729h115l174 -162l172 162h115l-205 -240h-166z" />
<glyph unicode="&#x17e;" horiz-adv-x="1118" d="M172 0v92l533 725q10 16 94 113q-88 -10 -236 -10h-323v100h710v-86l-579 -793q-5 -8 -20.5 -23.5t-24.5 -25.5q82 10 229 10h389v-102h-772zM291 1368h117l174 -162l170 162h116l-204 -240h-168z" />
<glyph unicode="&#x17f;" horiz-adv-x="690" d="M172 0v1137q0 95 87.5 162t211.5 67h51v-102h-51q-69 0 -114.5 -36.5t-45.5 -90.5v-1137h-139z" />
<glyph unicode="&#x192;" horiz-adv-x="1259" d="M172 -383l16 102h78q69 0 120.5 36.5t62.5 90.5l184 1047l4 35h-121l16 92h121l21 117q15 95 115 162t225 67h76l-17 -102h-78q-69 0 -120 -36.5t-62 -90.5l-20 -117h229l-16 -92h-228l-2 -10l-188 -1072q-17 -95 -116.5 -162t-223.5 -67h-76z" />
<glyph unicode="&#x1fa;" horiz-adv-x="1161" d="M172 -129h139v-31q0 -54 45.5 -90.5t114.5 -36.5h219q69 0 115.5 36t46.5 91v221q-67 -61 -158 -61h-221q-125 0 -213 67t-88 162v791h139v-791q0 -54 45.5 -90.5t114.5 -36.5h219q69 0 114.5 36.5t45.5 90.5v791h143v-1180q0 -95 -87.5 -162t-211.5 -67h-221 q-125 0 -213 67t-88 162v31z" />
<glyph unicode="&#x1fb;" d="M172 229v562q0 95 87.5 162t211.5 67h219q92 0 160 -62v68h141v-1026h-141v61q-67 -61 -160 -61h-219q-124 0 -211.5 67t-87.5 162zM311 229q0 -54 45.5 -90.5t114.5 -36.5h219q69 0 114.5 36.5t45.5 90.5v562q0 54 -45.5 90.5t-114.5 36.5h-219q-69 0 -114.5 -36.5 t-45.5 -90.5v-562z" />
<glyph unicode="&#x1fc;" d="M172 -129h139v-31q0 -54 45.5 -90.5t114.5 -36.5h219q69 0 114.5 36t45.5 91v221q-67 -61 -160 -61h-219q-124 0 -211.5 67t-87.5 162v562q0 95 87.5 162t211.5 67h219q92 0 160 -62v62h141v-1180q0 -95 -87.5 -162t-213.5 -67h-219q-124 0 -211.5 67t-87.5 162v31z M311 229q0 -55 45.5 -91t114.5 -36h219q69 0 114.5 36.5t45.5 90.5v562q0 54 -45.5 90.5t-114.5 36.5h-219q-69 0 -114.5 -36.5t-45.5 -90.5v-562z" />
<glyph unicode="&#x2c6;" horiz-adv-x="915" d="M172 1188l205 239h166l205 -239h-115l-172 162l-174 -162h-115z" />
<glyph unicode="&#x2c7;" horiz-adv-x="915" d="M172 1427h115l174 -161l172 161h115l-205 -239h-166z" />
<glyph unicode="&#x2d8;" horiz-adv-x="956" d="M172 1407v16h98v-16q0 -48 52.5 -83.5t115.5 -35.5h84q63 0 114.5 35.5t51.5 83.5v16h100v-16q0 -89 -78 -152t-188 -63h-84q-112 0 -189 62.5t-77 152.5z" />
<glyph unicode="&#x2d9;" horiz-adv-x="479" d="M172 1190v176h137v-176h-137z" />
<glyph unicode="&#x2da;" horiz-adv-x="837" d="M172 1331q0 83 72 141t176 58q103 0 175.5 -58t72.5 -141q0 -82 -73 -140t-175 -58q-104 0 -176 57.5t-72 140.5zM258 1331q0 -54 47 -91.5t115 -37.5t115 37.5t47 91.5t-47 91.5t-115 37.5t-115 -37.5t-47 -91.5z" />
<glyph unicode="&#x2dc;" horiz-adv-x="1095" d="M172 1268l31 49q43 70 128 92.5t158 -16.5l95 -50l73 -38q43 -23 87 -12.5t69 48.5l35 54l78 -43l-33 -52q-46 -70 -128 -91.5t-157 16.5l-94 49l-76 39q-43 22 -87 11.5t-70 -50.5l-31 -49z" />
<glyph unicode="&#x2dd;" horiz-adv-x="1097" d="M172 1188l229 239h193l-305 -239h-117zM504 1188l231 239h195l-307 -239h-119z" />
<glyph unicode="&#x391;" horiz-adv-x="1212" d="M172 0v1137q0 95 87.5 162t211.5 67h270q126 0 214.5 -67t88.5 -162v-1137h-141v596h-592v-596h-139zM311 696h592v441q0 55 -45.5 91t-116.5 36h-268q-69 0 -115.5 -36.5t-46.5 -90.5v-441z" />
<glyph unicode="&#x392;" horiz-adv-x="1157" d="M172 0v1366h516q124 0 211.5 -67t87.5 -162v-234q0 -54 -38.5 -105t-96.5 -73q59 -25 97 -75.5t38 -104.5v-316q0 -95 -87.5 -162t-211.5 -67h-516zM311 102h377q69 0 114.5 36.5t45.5 90.5v316q0 54 -45.5 90.5t-114.5 36.5h-377v-570zM311 776h377q69 0 114.5 36.5 t45.5 90.5v234q0 54 -45.5 90.5t-114.5 36.5h-377v-488z" />
<glyph unicode="&#x393;" horiz-adv-x="1054" d="M172 0v1366h713v-100h-568v-1266h-145z" />
<glyph unicode="&#x395;" horiz-adv-x="1128" d="M172 0v1366h789v-100h-642v-494h545v-100h-547v-572h644v-100h-789z" />
<glyph unicode="&#x396;" horiz-adv-x="1169" d="M172 0v92l535 952q10 22 62.5 107.5t80.5 124.5q-88 -10 -236 -10h-374v100h761v-86l-589 -1034l-86 -154q82 10 229 10h440v-102h-823z" />
<glyph unicode="&#x397;" horiz-adv-x="1273" d="M172 0v1366h139v-563h654v563h141v-1366h-141v702h-654v-702h-139z" />
<glyph unicode="&#x398;" horiz-adv-x="1212" d="M172 229v908q0 95 87.5 162t211.5 67h270q126 0 214.5 -67t88.5 -162v-908q0 -95 -87.5 -162t-211.5 -67h-272q-125 0 -213 67t-88 162zM311 229q0 -54 45.5 -90.5t114.5 -36.5h270q69 0 115.5 36.5t46.5 90.5v908q0 55 -45.5 91t-116.5 36h-268q-69 0 -115.5 -36.5 t-46.5 -90.5v-908zM481 651v113h254v-113h-254z" />
<glyph unicode="&#x399;" horiz-adv-x="481" d="M172 0v1366h139v-1366h-139z" />
<glyph unicode="&#x39a;" horiz-adv-x="1189" d="M172 0v1366h145v-573l504 573h170l-583 -639l614 -727h-174l-531 657v-657h-145z" />
<glyph unicode="&#x39b;" horiz-adv-x="1359" d="M172 0l432 1366h154l432 -1366h-146l-284 954q-23 74 -49.5 180t-30.5 128q-5 -41 -78 -306l-283 -956h-147z" />
<glyph unicode="&#x39c;" horiz-adv-x="1638" d="M172 0v1366h174l402 -969q43 -124 73 -270q40 186 68 252l399 987h180v-1366h-137v940q0 28 5 143.5t5 141.5q-7 -37 -38 -132t-50 -147l-364 -946h-137l-363 928q-15 40 -48 148.5t-42 148.5q10 -265 10 -285v-940h-137z" />
<glyph unicode="&#x39d;" horiz-adv-x="1288" d="M172 0v1366h184l529 -983q24 -47 108 -262q0 21 -8 137t-8 137v971h141v-1366h-178l-537 1001q-11 20 -54.5 130t-51.5 126q3 -29 8.5 -131.5t5.5 -130.5v-995h-139z" />
<glyph unicode="&#x39e;" horiz-adv-x="1288" d="M172 0v100h946v-100h-946zM172 1266v100h946v-100h-946zM428 651v113h434v-113h-434z" />
<glyph unicode="&#x39f;" horiz-adv-x="1212" d="M172 229v908q0 95 87.5 162t211.5 67h270q126 0 214.5 -67t88.5 -162v-908q0 -95 -87.5 -162t-211.5 -67h-272q-125 0 -213 67t-88 162zM311 229q0 -54 45.5 -90.5t114.5 -36.5h270q69 0 115.5 36.5t46.5 90.5v908q0 55 -45.5 91t-116.5 36h-268q-69 0 -115.5 -36.5 t-46.5 -90.5v-908z" />
<glyph unicode="&#x3a0;" horiz-adv-x="1157" d="M172 0v1366h815v-1366h-139v1266h-531v-1266h-145z" />
<glyph unicode="&#x3a1;" horiz-adv-x="1212" d="M172 0v1366h573q124 0 211.5 -67t87.5 -162v-295q0 -95 -87.5 -162.5t-211.5 -67.5h-284v103h284q69 0 113.5 36.5t44.5 90.5v295q0 54 -44.5 90.5t-113.5 36.5h-434v-1264h-139z" />
<glyph unicode="&#x3a3;" horiz-adv-x="1288" d="M172 0l506 692l-506 674h946v-100h-700l440 -574l-444 -592h704v-100h-946z" />
<glyph unicode="&#x3a4;" horiz-adv-x="1288" d="M172 1266v100h946v-100h-401v-1266h-142v1266h-403z" />
<glyph unicode="&#x3a5;" horiz-adv-x="1228" d="M172 1366h158q39 -184 101 -337t183 -290q66 70 116 149t82.5 166.5t50.5 153t38 158.5h158q-39 -214 -149 -415.5t-222 -313.5v-637h-145v637q-112 112 -222 313.5t-149 415.5z" />
<glyph unicode="&#x3c0;" horiz-adv-x="1302" d="M172 920v100h963v-100h-129v-920h-142v920h-422v-920h-141v920h-129z" />
<glyph unicode="&#x410;" horiz-adv-x="1212" d="M172 0v1137q0 95 87.5 162t211.5 67h270q126 0 214.5 -67t88.5 -162v-1137h-141v596h-592v-596h-139zM311 696h592v441q0 55 -45.5 91t-116.5 36h-268q-69 0 -115.5 -36.5t-46.5 -90.5v-441z" />
<glyph unicode="&#x412;" horiz-adv-x="1157" d="M172 0v1366h516q124 0 211.5 -67t87.5 -162v-234q0 -54 -38.5 -105t-96.5 -73q59 -25 97 -75.5t38 -104.5v-316q0 -95 -87.5 -162t-211.5 -67h-516zM311 102h377q69 0 114.5 36.5t45.5 90.5v316q0 54 -45.5 90.5t-114.5 36.5h-377v-570zM311 776h377q69 0 114.5 36.5 t45.5 90.5v234q0 54 -45.5 90.5t-114.5 36.5h-377v-488z" />
<glyph unicode="&#x413;" horiz-adv-x="1054" d="M172 0v1366h713v-100h-568v-1266h-145z" />
<glyph unicode="&#x415;" horiz-adv-x="1128" d="M172 0v1366h789v-100h-642v-494h545v-100h-547v-572h644v-100h-789z" />
<glyph unicode="&#x416;" horiz-adv-x="1720" d="M82 0l616 727q-94 53 -170 109t-152.5 132.5t-137.5 177t-103 220.5h146q41 -160 154.5 -295.5t350.5 -277.5v573h146v-573q236 142 349.5 278t154.5 295h149q-33 -97 -80.5 -182t-99.5 -149.5t-118 -122.5t-128 -100.5t-137 -84.5l616 -727h-174l-530 643v-643h-146v643 l-530 -643h-176z" />
<glyph unicode="&#x417;" horiz-adv-x="1161" d="M172 229v27h143v-27q0 -54 44.5 -90.5t113.5 -36.5h221q69 0 113.5 36.5t44.5 90.5v316q0 54 -46.5 90.5t-115.5 36.5h-219v104h223q69 0 113.5 36.5t44.5 90.5v234q0 54 -46.5 90.5t-115.5 36.5h-219q-69 0 -114.5 -36.5t-45.5 -90.5v-35h-139v35q0 95 88 162t213 67 h221q124 0 211.5 -67t87.5 -162v-234q0 -54 -40 -105.5t-99 -74.5q59 -23 99 -74t40 -104v-316q0 -95 -88.5 -162t-214.5 -67h-219q-124 0 -211.5 67t-87.5 162z" />
<glyph unicode="&#x418;" horiz-adv-x="1273" d="M172 0v1366h139v-1034l654 921v113h141v-1366h-141v1051l-654 -922v-129h-139z" />
<glyph unicode="&#x41a;" horiz-adv-x="1103" d="M172 0v1366h145v-573q236 142 349.5 278t154.5 295h146q-41 -120 -101.5 -220.5t-136 -177t-151.5 -132.5t-170 -109l614 -727h-174l-531 643v-643h-145z" />
<glyph unicode="&#x41c;" horiz-adv-x="1638" d="M172 0v1366h174l402 -969q43 -124 73 -270q40 186 68 252l399 987h180v-1366h-137v940q0 28 5 143.5t5 141.5q-7 -37 -38 -132t-50 -147l-364 -946h-137l-363 928q-15 40 -48 148.5t-42 148.5q10 -265 10 -285v-940h-137z" />
<glyph unicode="&#x41d;" horiz-adv-x="1273" d="M172 0v1366h139v-563h654v563h141v-1366h-141v702h-654v-702h-139z" />
<glyph unicode="&#x41e;" horiz-adv-x="1212" d="M172 229v908q0 95 87.5 162t211.5 67h270q126 0 214.5 -67t88.5 -162v-908q0 -95 -87.5 -162t-211.5 -67h-272q-125 0 -213 67t-88 162zM311 229q0 -54 45.5 -90.5t114.5 -36.5h270q69 0 115.5 36.5t46.5 90.5v908q0 55 -45.5 91t-116.5 36h-268q-69 0 -115.5 -36.5 t-46.5 -90.5v-908z" />
<glyph unicode="&#x41f;" horiz-adv-x="1157" d="M172 0v1366h815v-1366h-139v1266h-531v-1266h-145z" />
<glyph unicode="&#x420;" horiz-adv-x="1212" d="M172 0v1366h573q124 0 211.5 -67t87.5 -162v-295q0 -95 -87.5 -162.5t-211.5 -67.5h-284v103h284q69 0 113.5 36.5t44.5 90.5v295q0 54 -44.5 90.5t-113.5 36.5h-434v-1264h-139z" />
<glyph unicode="&#x421;" horiz-adv-x="1210" d="M172 229v908q0 95 87.5 162t211.5 67h270q126 0 213.5 -67t87.5 -162v-93h-141v93q0 54 -45.5 90.5t-114.5 36.5h-270q-69 0 -114.5 -36.5t-45.5 -90.5v-908q0 -54 45.5 -90.5t114.5 -36.5h270q69 0 114.5 36.5t45.5 90.5v101h141v-101q0 -95 -87.5 -162t-213.5 -67h-270 q-124 0 -211.5 67t-87.5 162z" />
<glyph unicode="&#x422;" horiz-adv-x="1118" d="M84 1266v100h950v-100h-401v-1266h-141v1266h-408z" />
<glyph unicode="&#x424;" horiz-adv-x="1431" d="M172 494v376q0 95 88 162.5t213 67.5h170v266h143v-266h175q125 0 213 -67.5t88 -162.5v-376q0 -95 -87.5 -162.5t-211.5 -67.5h-181v-264h-139v264h-172q-124 0 -211.5 67.5t-87.5 162.5zM311 494q0 -54 46.5 -90.5t115.5 -36.5h170v630h-172q-69 0 -114.5 -36.5 t-45.5 -90.5v-376zM782 367h179q69 0 114 36.5t45 90.5v376q0 54 -44.5 90.5t-112.5 36.5h-177z" />
<glyph unicode="&#x425;" horiz-adv-x="1228" d="M86 0l446 705l-405 661h164l219 -362q81 -152 104 -209q101 187 101 196l219 375h170l-408 -661l445 -705h-166l-250 408q-58 86 -109 206q-14 -34 -104 -190l-256 -424h-170z" />
<glyph unicode="&#x42d;" horiz-adv-x="1210" d="M172 229v39h139v-39q0 -54 45.5 -90.5t114.5 -36.5h270q69 0 114.5 36.5t45.5 90.5v414h-446v100h446v394q0 54 -45.5 90.5t-114.5 36.5h-270q-69 0 -114.5 -36.5t-45.5 -90.5v-31h-139v31q0 95 87.5 162t211.5 67h270q126 0 213.5 -67t87.5 -162v-908q0 -95 -87.5 -162 t-213.5 -67h-270q-124 0 -211.5 67t-87.5 162z" />
<glyph unicode="&#x42e;" horiz-adv-x="1546" d="M172 0v1366h139v-596h193v367q0 95 87.5 162t211.5 67h272q125 0 213 -67t88 -162v-908q0 -95 -87.5 -162t-211.5 -67h-270q-126 0 -214.5 67t-88.5 162v441h-193v-670h-139zM645 229q0 -54 44.5 -90.5t113.5 -36.5h272q69 0 115.5 36.5t46.5 90.5v908q0 54 -46 90.5 t-116 36.5h-268q-69 0 -115.5 -36.5t-46.5 -90.5v-908z" />
<glyph unicode="&#x42f;" horiz-adv-x="1239" d="M172 0l416 612h-92q-124 0 -211.5 67.5t-87.5 162.5v295q0 95 87.5 162t211.5 67h573v-1366h-139v1264h-434q-69 0 -113.5 -36.5t-44.5 -90.5v-295q0 -54 44.5 -89.5t113.5 -37.5l106 -2h137v-101l-413 -612h-154z" />
<glyph unicode="&#x2000;" horiz-adv-x="884" />
<glyph unicode="&#x2001;" horiz-adv-x="1769" />
<glyph unicode="&#x2002;" horiz-adv-x="884" />
<glyph unicode="&#x2003;" horiz-adv-x="1769" />
<glyph unicode="&#x2004;" horiz-adv-x="589" />
<glyph unicode="&#x2005;" horiz-adv-x="442" />
<glyph unicode="&#x2006;" horiz-adv-x="294" />
<glyph unicode="&#x2007;" horiz-adv-x="294" />
<glyph unicode="&#x2008;" horiz-adv-x="221" />
<glyph unicode="&#x2009;" horiz-adv-x="353" />
<glyph unicode="&#x200a;" horiz-adv-x="98" />
<glyph unicode="&#x2010;" horiz-adv-x="1028" d="M172 590v112h688v-112h-688z" />
<glyph unicode="&#x2011;" horiz-adv-x="1028" d="M172 590v112h688v-112h-688z" />
<glyph unicode="&#x2012;" horiz-adv-x="1028" d="M172 590v112h688v-112h-688z" />
<glyph unicode="&#x2013;" horiz-adv-x="1564" d="M172 651v113h1225v-113h-1225z" />
<glyph unicode="&#x2014;" horiz-adv-x="1939" d="M172 651v113h1634v-113h-1634z" />
<glyph unicode="&#x2018;" horiz-adv-x="542" d="M172 954v197q0 2 27 62t55.5 124t30.5 70h55l-61 -258h94v-195h-201z" />
<glyph unicode="&#x2019;" horiz-adv-x="542" d="M172 1212v195h201v-197q0 -2 -27 -62t-55.5 -124t-30.5 -70h-55l61 258h-94z" />
<glyph unicode="&#x201a;" horiz-adv-x="540" d="M172 0v176h199v-176q0 -2 -27 -57t-55.5 -113.5t-30.5 -65.5h-53l63 236h-96z" />
<glyph unicode="&#x201c;" horiz-adv-x="901" d="M172 954v197q0 2 27 62t55.5 124t30.5 70h55l-61 -258h92v-195h-199zM530 954v197q0 2 27 62t55.5 124t30.5 70h55l-61 -258h94v-195h-201z" />
<glyph unicode="&#x201d;" horiz-adv-x="901" d="M172 1212v195h199v-197h2q0 -2 -27 -62t-55.5 -124t-30.5 -70h-55l61 258h-94zM530 1212v195h201v-197q0 -2 -27 -62t-55.5 -124t-30.5 -70h-55l62 258h-95z" />
<glyph unicode="&#x201e;" horiz-adv-x="923" d="M172 0v176h199v-176q0 -2 -27 -57t-55.5 -113.5t-30.5 -65.5h-53l63 236h-96zM555 0v176h201v-176q0 -2 -27.5 -57.5t-55.5 -113.5t-30 -65h-55l65 236h-98z" />
<glyph unicode="&#x2020;" horiz-adv-x="903" d="M172 975v106h209v285h141v-285h213v-106h-213v-975h-141v975h-209z" />
<glyph unicode="&#x2021;" horiz-adv-x="903" d="M172 360v107h209v508h-209v106h209v285h141v-285h213v-106h-213v-508h213v-107h-213v-360h-141v360h-209z" />
<glyph unicode="&#x2022;" horiz-adv-x="749" d="M172 594v319h410v-319h-410z" />
<glyph unicode="&#x2026;" horiz-adv-x="1413" d="M172 0v176h201v-176h-201zM606 0v176h203v-176h-203zM1042 0v176h201v-176h-201z" />
<glyph unicode="&#x202f;" horiz-adv-x="353" />
<glyph unicode="&#x2030;" horiz-adv-x="2768" d="M172 903v234q0 95 87.5 162t211.5 67h92q124 0 211.5 -67t87.5 -162v-234q0 -95 -87.5 -162t-211.5 -67h-92q-124 0 -211.5 67t-87.5 162zM311 903q0 -54 45.5 -90.5t114.5 -36.5h92q69 0 113.5 36.5t44.5 90.5v234q0 54 -44.5 90.5t-113.5 36.5h-92q-69 0 -114.5 -36.5 t-45.5 -90.5v-234zM522 0l797 1421h154l-797 -1421h-154zM1116 229v234q0 95 87.5 162t211.5 67h92q124 0 211.5 -67t87.5 -162v-234q0 -95 -87.5 -162t-211.5 -67h-92q-124 0 -211.5 67t-87.5 162zM1257 229q0 -54 44.5 -90.5t113.5 -36.5h92q69 0 114.5 36.5t45.5 90.5 v234q0 54 -45.5 90.5t-114.5 36.5h-92q-69 0 -113.5 -36.5t-44.5 -90.5v-234zM1909 229v234q0 95 87.5 162t213.5 67h92q124 0 211.5 -67t87.5 -162v-234q0 -95 -87.5 -162t-211.5 -67h-92q-126 0 -213.5 67t-87.5 162zM2050 229q0 -54 45.5 -90.5t114.5 -36.5h92 q69 0 113.5 36.5t44.5 90.5v234q0 54 -44.5 90.5t-113.5 36.5h-92q-69 0 -114.5 -36.5t-45.5 -90.5v-234z" />
<glyph unicode="&#x2039;" horiz-adv-x="690" d="M172 539l219 372h129l-223 -372l225 -357h-129z" />
<glyph unicode="&#x203a;" horiz-adv-x="690" d="M172 182l225 357l-223 372h127l221 -372l-223 -357h-127z" />
<glyph unicode="&#x2044;" horiz-adv-x="1282" d="M172 0l832 1366h110l-825 -1366h-117z" />
<glyph unicode="&#x205f;" horiz-adv-x="442" />
<glyph unicode="&#x20ac;" horiz-adv-x="1359" d="M172 508l51 92h96v174h-122l51 92h71v271q0 95 87.5 162t211.5 67h273q124 0 211.5 -67t87.5 -162v-31h-141v31q0 54 -44.5 90.5t-113.5 36.5h-273q-68 0 -112.5 -36.5t-44.5 -90.5v-271h602l-51 -92h-551v-174h500l-52 -92h-448v-279q0 -54 44.5 -90.5t112.5 -36.5h273 q69 0 113.5 36.5t44.5 90.5v19h141v-19q0 -95 -87.5 -162t-211.5 -67h-273q-124 0 -211.5 67t-87.5 162v279h-147z" />
<glyph unicode="&#x2122;" horiz-adv-x="1701" d="M172 1292v74h535v-74h-218v-678h-100v678h-217zM807 614v752h115q1 -3 39 -87t75 -168.5t77 -190.5t56 -170q12 46 34 109.5t44.5 121t52.5 128t48 112t41.5 93t23.5 52.5h121v-752h-100v568q-27 -84 -65 -183.5t-85.5 -217.5t-66.5 -167h-93q-15 36 -53 127t-61.5 149 t-54 140t-50.5 148v-564h-98z" />
<glyph unicode="&#x2206;" horiz-adv-x="1462" d="M172 0l483 1366h154l483 -1366h-1120zM330 100h780l-391 1117q-9 -31 -25 -76.5t-37.5 -104t-29.5 -80.5z" />
<glyph unicode="&#x220f;" horiz-adv-x="1157" d="M172 0v1366h815v-1366h-139v1266h-531v-1266h-145z" />
<glyph unicode="&#x2211;" horiz-adv-x="1288" d="M172 0l506 692l-506 674h946v-100h-700l440 -574l-444 -592h704v-100h-946z" />
<glyph unicode="&#x222b;" horiz-adv-x="1005" d="M172 -354h102q69 0 113.5 36.5t44.5 90.5v1515q0 95 87.5 162.5t211.5 67.5h107v-103h-103q-69 0 -114.5 -36.5t-45.5 -90.5v-1515q0 -95 -87.5 -162.5t-211.5 -67.5h-104v103z" />
<glyph unicode="&#xe000;" horiz-adv-x="1024" d="M0 0v1024h1024v-1024h-1024z" />
</font>
</defs>
</svg>
